G04 #@! TF.GenerationSoftware,KiCad,Pcbnew,7.0.9*
G04 #@! TF.CreationDate,2024-03-21T10:00:35+04:00*
G04 #@! TF.ProjectId,BSPD_Nucleo_Shield,42535044-5f4e-4756-936c-656f5f536869,rev?*
G04 #@! TF.SameCoordinates,Original*
G04 #@! TF.FileFunction,Legend,Top*
G04 #@! TF.FilePolarity,Positive*
%FSLAX46Y46*%
G04 Gerber Fmt 4.6, Leading zero omitted, Abs format (unit mm)*
G04 Created by KiCad (PCBNEW 7.0.9) date 2024-03-21 10:00:35*
%MOMM*%
%LPD*%
G01*
G04 APERTURE LIST*
%ADD10C,0.150000*%
%ADD11C,0.120000*%
G04 APERTURE END LIST*
D10*
X167302438Y-75738095D02*
X167254819Y-75833333D01*
X167254819Y-75833333D02*
X167254819Y-75976190D01*
X167254819Y-75976190D02*
X167302438Y-76119047D01*
X167302438Y-76119047D02*
X167397676Y-76214285D01*
X167397676Y-76214285D02*
X167492914Y-76261904D01*
X167492914Y-76261904D02*
X167683390Y-76309523D01*
X167683390Y-76309523D02*
X167826247Y-76309523D01*
X167826247Y-76309523D02*
X168016723Y-76261904D01*
X168016723Y-76261904D02*
X168111961Y-76214285D01*
X168111961Y-76214285D02*
X168207200Y-76119047D01*
X168207200Y-76119047D02*
X168254819Y-75976190D01*
X168254819Y-75976190D02*
X168254819Y-75880952D01*
X168254819Y-75880952D02*
X168207200Y-75738095D01*
X168207200Y-75738095D02*
X168159580Y-75690476D01*
X168159580Y-75690476D02*
X167826247Y-75690476D01*
X167826247Y-75690476D02*
X167826247Y-75880952D01*
X101349942Y-94709524D02*
X101397561Y-94757143D01*
X101397561Y-94757143D02*
X101445180Y-94852381D01*
X101445180Y-94852381D02*
X101445180Y-95090476D01*
X101445180Y-95090476D02*
X101397561Y-95185714D01*
X101397561Y-95185714D02*
X101349942Y-95233333D01*
X101349942Y-95233333D02*
X101254704Y-95280952D01*
X101254704Y-95280952D02*
X101159466Y-95280952D01*
X101159466Y-95280952D02*
X101016609Y-95233333D01*
X101016609Y-95233333D02*
X100445180Y-94661905D01*
X100445180Y-94661905D02*
X100445180Y-95280952D01*
X101111847Y-96138095D02*
X100445180Y-96138095D01*
X101492800Y-95900000D02*
X100778514Y-95661905D01*
X100778514Y-95661905D02*
X100778514Y-96280952D01*
X101445180Y-96519048D02*
X100445180Y-96852381D01*
X100445180Y-96852381D02*
X101445180Y-97185714D01*
X167302438Y-91638095D02*
X167254819Y-91733333D01*
X167254819Y-91733333D02*
X167254819Y-91876190D01*
X167254819Y-91876190D02*
X167302438Y-92019047D01*
X167302438Y-92019047D02*
X167397676Y-92114285D01*
X167397676Y-92114285D02*
X167492914Y-92161904D01*
X167492914Y-92161904D02*
X167683390Y-92209523D01*
X167683390Y-92209523D02*
X167826247Y-92209523D01*
X167826247Y-92209523D02*
X168016723Y-92161904D01*
X168016723Y-92161904D02*
X168111961Y-92114285D01*
X168111961Y-92114285D02*
X168207200Y-92019047D01*
X168207200Y-92019047D02*
X168254819Y-91876190D01*
X168254819Y-91876190D02*
X168254819Y-91780952D01*
X168254819Y-91780952D02*
X168207200Y-91638095D01*
X168207200Y-91638095D02*
X168159580Y-91590476D01*
X168159580Y-91590476D02*
X167826247Y-91590476D01*
X167826247Y-91590476D02*
X167826247Y-91780952D01*
X101297561Y-91061904D02*
X101345180Y-90966666D01*
X101345180Y-90966666D02*
X101345180Y-90823809D01*
X101345180Y-90823809D02*
X101297561Y-90680952D01*
X101297561Y-90680952D02*
X101202323Y-90585714D01*
X101202323Y-90585714D02*
X101107085Y-90538095D01*
X101107085Y-90538095D02*
X100916609Y-90490476D01*
X100916609Y-90490476D02*
X100773752Y-90490476D01*
X100773752Y-90490476D02*
X100583276Y-90538095D01*
X100583276Y-90538095D02*
X100488038Y-90585714D01*
X100488038Y-90585714D02*
X100392800Y-90680952D01*
X100392800Y-90680952D02*
X100345180Y-90823809D01*
X100345180Y-90823809D02*
X100345180Y-90919047D01*
X100345180Y-90919047D02*
X100392800Y-91061904D01*
X100392800Y-91061904D02*
X100440419Y-91109523D01*
X100440419Y-91109523D02*
X100773752Y-91109523D01*
X100773752Y-91109523D02*
X100773752Y-90919047D01*
X167969104Y-71414285D02*
X167969104Y-70938095D01*
X168254819Y-71509523D02*
X167254819Y-71176190D01*
X167254819Y-71176190D02*
X168254819Y-70842857D01*
X168254819Y-69985714D02*
X168254819Y-70557142D01*
X168254819Y-70271428D02*
X167254819Y-70271428D01*
X167254819Y-70271428D02*
X167397676Y-70366666D01*
X167397676Y-70366666D02*
X167492914Y-70461904D01*
X167492914Y-70461904D02*
X167540533Y-70557142D01*
X167254819Y-82290476D02*
X167254819Y-82766666D01*
X167254819Y-82766666D02*
X167731009Y-82814285D01*
X167731009Y-82814285D02*
X167683390Y-82766666D01*
X167683390Y-82766666D02*
X167635771Y-82671428D01*
X167635771Y-82671428D02*
X167635771Y-82433333D01*
X167635771Y-82433333D02*
X167683390Y-82338095D01*
X167683390Y-82338095D02*
X167731009Y-82290476D01*
X167731009Y-82290476D02*
X167826247Y-82242857D01*
X167826247Y-82242857D02*
X168064342Y-82242857D01*
X168064342Y-82242857D02*
X168159580Y-82290476D01*
X168159580Y-82290476D02*
X168207200Y-82338095D01*
X168207200Y-82338095D02*
X168254819Y-82433333D01*
X168254819Y-82433333D02*
X168254819Y-82671428D01*
X168254819Y-82671428D02*
X168207200Y-82766666D01*
X168207200Y-82766666D02*
X168159580Y-82814285D01*
X167254819Y-81957142D02*
X168254819Y-81623809D01*
X168254819Y-81623809D02*
X167254819Y-81290476D01*
X167969104Y-87514285D02*
X167969104Y-87038095D01*
X168254819Y-87609523D02*
X167254819Y-87276190D01*
X167254819Y-87276190D02*
X168254819Y-86942857D01*
X167254819Y-86419047D02*
X167254819Y-86323809D01*
X167254819Y-86323809D02*
X167302438Y-86228571D01*
X167302438Y-86228571D02*
X167350057Y-86180952D01*
X167350057Y-86180952D02*
X167445295Y-86133333D01*
X167445295Y-86133333D02*
X167635771Y-86085714D01*
X167635771Y-86085714D02*
X167873866Y-86085714D01*
X167873866Y-86085714D02*
X168064342Y-86133333D01*
X168064342Y-86133333D02*
X168159580Y-86180952D01*
X168159580Y-86180952D02*
X168207200Y-86228571D01*
X168207200Y-86228571D02*
X168254819Y-86323809D01*
X168254819Y-86323809D02*
X168254819Y-86419047D01*
X168254819Y-86419047D02*
X168207200Y-86514285D01*
X168207200Y-86514285D02*
X168159580Y-86561904D01*
X168159580Y-86561904D02*
X168064342Y-86609523D01*
X168064342Y-86609523D02*
X167873866Y-86657142D01*
X167873866Y-86657142D02*
X167635771Y-86657142D01*
X167635771Y-86657142D02*
X167445295Y-86609523D01*
X167445295Y-86609523D02*
X167350057Y-86561904D01*
X167350057Y-86561904D02*
X167302438Y-86514285D01*
X167302438Y-86514285D02*
X167254819Y-86419047D01*
X167254819Y-66090476D02*
X167254819Y-66566666D01*
X167254819Y-66566666D02*
X167731009Y-66614285D01*
X167731009Y-66614285D02*
X167683390Y-66566666D01*
X167683390Y-66566666D02*
X167635771Y-66471428D01*
X167635771Y-66471428D02*
X167635771Y-66233333D01*
X167635771Y-66233333D02*
X167683390Y-66138095D01*
X167683390Y-66138095D02*
X167731009Y-66090476D01*
X167731009Y-66090476D02*
X167826247Y-66042857D01*
X167826247Y-66042857D02*
X168064342Y-66042857D01*
X168064342Y-66042857D02*
X168159580Y-66090476D01*
X168159580Y-66090476D02*
X168207200Y-66138095D01*
X168207200Y-66138095D02*
X168254819Y-66233333D01*
X168254819Y-66233333D02*
X168254819Y-66471428D01*
X168254819Y-66471428D02*
X168207200Y-66566666D01*
X168207200Y-66566666D02*
X168159580Y-66614285D01*
X167254819Y-65757142D02*
X168254819Y-65423809D01*
X168254819Y-65423809D02*
X167254819Y-65090476D01*
X164354819Y-59261903D02*
X164354819Y-58690475D01*
X165354819Y-58976189D02*
X164354819Y-58976189D01*
X165259580Y-58357141D02*
X165307200Y-58309522D01*
X165307200Y-58309522D02*
X165354819Y-58357141D01*
X165354819Y-58357141D02*
X165307200Y-58404760D01*
X165307200Y-58404760D02*
X165259580Y-58357141D01*
X165259580Y-58357141D02*
X165354819Y-58357141D01*
X165354819Y-57880951D02*
X164354819Y-57880951D01*
X165354819Y-57309523D02*
X164783390Y-57738094D01*
X164354819Y-57309523D02*
X164926247Y-57880951D01*
X165259580Y-56880951D02*
X165307200Y-56833332D01*
X165307200Y-56833332D02*
X165354819Y-56880951D01*
X165354819Y-56880951D02*
X165307200Y-56928570D01*
X165307200Y-56928570D02*
X165259580Y-56880951D01*
X165259580Y-56880951D02*
X165354819Y-56880951D01*
X165354819Y-56404761D02*
X164354819Y-56404761D01*
X164354819Y-56404761D02*
X165069104Y-56071428D01*
X165069104Y-56071428D02*
X164354819Y-55738095D01*
X164354819Y-55738095D02*
X165354819Y-55738095D01*
X165259580Y-55261904D02*
X165307200Y-55214285D01*
X165307200Y-55214285D02*
X165354819Y-55261904D01*
X165354819Y-55261904D02*
X165307200Y-55309523D01*
X165307200Y-55309523D02*
X165259580Y-55261904D01*
X165259580Y-55261904D02*
X165354819Y-55261904D01*
X165259580Y-54214286D02*
X165307200Y-54261905D01*
X165307200Y-54261905D02*
X165354819Y-54404762D01*
X165354819Y-54404762D02*
X165354819Y-54500000D01*
X165354819Y-54500000D02*
X165307200Y-54642857D01*
X165307200Y-54642857D02*
X165211961Y-54738095D01*
X165211961Y-54738095D02*
X165116723Y-54785714D01*
X165116723Y-54785714D02*
X164926247Y-54833333D01*
X164926247Y-54833333D02*
X164783390Y-54833333D01*
X164783390Y-54833333D02*
X164592914Y-54785714D01*
X164592914Y-54785714D02*
X164497676Y-54738095D01*
X164497676Y-54738095D02*
X164402438Y-54642857D01*
X164402438Y-54642857D02*
X164354819Y-54500000D01*
X164354819Y-54500000D02*
X164354819Y-54404762D01*
X164354819Y-54404762D02*
X164402438Y-54261905D01*
X164402438Y-54261905D02*
X164450057Y-54214286D01*
X165259580Y-53785714D02*
X165307200Y-53738095D01*
X165307200Y-53738095D02*
X165354819Y-53785714D01*
X165354819Y-53785714D02*
X165307200Y-53833333D01*
X165307200Y-53833333D02*
X165259580Y-53785714D01*
X165259580Y-53785714D02*
X165354819Y-53785714D01*
X164831009Y-53309524D02*
X164831009Y-52976191D01*
X165354819Y-52833334D02*
X165354819Y-53309524D01*
X165354819Y-53309524D02*
X164354819Y-53309524D01*
X164354819Y-53309524D02*
X164354819Y-52833334D01*
X100445180Y-49747619D02*
X101445180Y-49747619D01*
X101445180Y-49747619D02*
X100730895Y-50080952D01*
X100730895Y-50080952D02*
X101445180Y-50414285D01*
X101445180Y-50414285D02*
X100445180Y-50414285D01*
X100826133Y-50890476D02*
X100826133Y-51652381D01*
X100445180Y-51271428D02*
X101207085Y-51271428D01*
X101911847Y-67371428D02*
X100911847Y-67371428D01*
X101864228Y-67371428D02*
X101911847Y-67466666D01*
X101911847Y-67466666D02*
X101911847Y-67657142D01*
X101911847Y-67657142D02*
X101864228Y-67752380D01*
X101864228Y-67752380D02*
X101816609Y-67799999D01*
X101816609Y-67799999D02*
X101721371Y-67847618D01*
X101721371Y-67847618D02*
X101435657Y-67847618D01*
X101435657Y-67847618D02*
X101340419Y-67799999D01*
X101340419Y-67799999D02*
X101292800Y-67752380D01*
X101292800Y-67752380D02*
X101245180Y-67657142D01*
X101245180Y-67657142D02*
X101245180Y-67466666D01*
X101245180Y-67466666D02*
X101292800Y-67371428D01*
X101245180Y-68276190D02*
X102245180Y-68276190D01*
X101245180Y-68704761D02*
X101768990Y-68704761D01*
X101768990Y-68704761D02*
X101864228Y-68657142D01*
X101864228Y-68657142D02*
X101911847Y-68561904D01*
X101911847Y-68561904D02*
X101911847Y-68419047D01*
X101911847Y-68419047D02*
X101864228Y-68323809D01*
X101864228Y-68323809D02*
X101816609Y-68276190D01*
X101245180Y-69180952D02*
X101911847Y-69180952D01*
X102245180Y-69180952D02*
X102197561Y-69133333D01*
X102197561Y-69133333D02*
X102149942Y-69180952D01*
X102149942Y-69180952D02*
X102197561Y-69228571D01*
X102197561Y-69228571D02*
X102245180Y-69180952D01*
X102245180Y-69180952D02*
X102149942Y-69180952D01*
X101292800Y-69609523D02*
X101245180Y-69704761D01*
X101245180Y-69704761D02*
X101245180Y-69895237D01*
X101245180Y-69895237D02*
X101292800Y-69990475D01*
X101292800Y-69990475D02*
X101388038Y-70038094D01*
X101388038Y-70038094D02*
X101435657Y-70038094D01*
X101435657Y-70038094D02*
X101530895Y-69990475D01*
X101530895Y-69990475D02*
X101578514Y-69895237D01*
X101578514Y-69895237D02*
X101578514Y-69752380D01*
X101578514Y-69752380D02*
X101626133Y-69657142D01*
X101626133Y-69657142D02*
X101721371Y-69609523D01*
X101721371Y-69609523D02*
X101768990Y-69609523D01*
X101768990Y-69609523D02*
X101864228Y-69657142D01*
X101864228Y-69657142D02*
X101911847Y-69752380D01*
X101911847Y-69752380D02*
X101911847Y-69895237D01*
X101911847Y-69895237D02*
X101864228Y-69990475D01*
X101292800Y-70895237D02*
X101245180Y-70799999D01*
X101245180Y-70799999D02*
X101245180Y-70609523D01*
X101245180Y-70609523D02*
X101292800Y-70514285D01*
X101292800Y-70514285D02*
X101340419Y-70466666D01*
X101340419Y-70466666D02*
X101435657Y-70419047D01*
X101435657Y-70419047D02*
X101721371Y-70419047D01*
X101721371Y-70419047D02*
X101816609Y-70466666D01*
X101816609Y-70466666D02*
X101864228Y-70514285D01*
X101864228Y-70514285D02*
X101911847Y-70609523D01*
X101911847Y-70609523D02*
X101911847Y-70799999D01*
X101911847Y-70799999D02*
X101864228Y-70895237D01*
X101245180Y-71752380D02*
X101768990Y-71752380D01*
X101768990Y-71752380D02*
X101864228Y-71704761D01*
X101864228Y-71704761D02*
X101911847Y-71609523D01*
X101911847Y-71609523D02*
X101911847Y-71419047D01*
X101911847Y-71419047D02*
X101864228Y-71323809D01*
X101292800Y-71752380D02*
X101245180Y-71657142D01*
X101245180Y-71657142D02*
X101245180Y-71419047D01*
X101245180Y-71419047D02*
X101292800Y-71323809D01*
X101292800Y-71323809D02*
X101388038Y-71276190D01*
X101388038Y-71276190D02*
X101483276Y-71276190D01*
X101483276Y-71276190D02*
X101578514Y-71323809D01*
X101578514Y-71323809D02*
X101626133Y-71419047D01*
X101626133Y-71419047D02*
X101626133Y-71657142D01*
X101626133Y-71657142D02*
X101673752Y-71752380D01*
X101911847Y-72228571D02*
X100911847Y-72228571D01*
X101864228Y-72228571D02*
X101911847Y-72323809D01*
X101911847Y-72323809D02*
X101911847Y-72514285D01*
X101911847Y-72514285D02*
X101864228Y-72609523D01*
X101864228Y-72609523D02*
X101816609Y-72657142D01*
X101816609Y-72657142D02*
X101721371Y-72704761D01*
X101721371Y-72704761D02*
X101435657Y-72704761D01*
X101435657Y-72704761D02*
X101340419Y-72657142D01*
X101340419Y-72657142D02*
X101292800Y-72609523D01*
X101292800Y-72609523D02*
X101245180Y-72514285D01*
X101245180Y-72514285D02*
X101245180Y-72323809D01*
X101245180Y-72323809D02*
X101292800Y-72228571D01*
X101292800Y-73514285D02*
X101245180Y-73419047D01*
X101245180Y-73419047D02*
X101245180Y-73228571D01*
X101245180Y-73228571D02*
X101292800Y-73133333D01*
X101292800Y-73133333D02*
X101388038Y-73085714D01*
X101388038Y-73085714D02*
X101768990Y-73085714D01*
X101768990Y-73085714D02*
X101864228Y-73133333D01*
X101864228Y-73133333D02*
X101911847Y-73228571D01*
X101911847Y-73228571D02*
X101911847Y-73419047D01*
X101911847Y-73419047D02*
X101864228Y-73514285D01*
X101864228Y-73514285D02*
X101768990Y-73561904D01*
X101768990Y-73561904D02*
X101673752Y-73561904D01*
X101673752Y-73561904D02*
X101578514Y-73085714D01*
X101626133Y-74752381D02*
X101626133Y-75514286D01*
X101768990Y-77085714D02*
X101721371Y-77228571D01*
X101721371Y-77228571D02*
X101673752Y-77276190D01*
X101673752Y-77276190D02*
X101578514Y-77323809D01*
X101578514Y-77323809D02*
X101435657Y-77323809D01*
X101435657Y-77323809D02*
X101340419Y-77276190D01*
X101340419Y-77276190D02*
X101292800Y-77228571D01*
X101292800Y-77228571D02*
X101245180Y-77133333D01*
X101245180Y-77133333D02*
X101245180Y-76752381D01*
X101245180Y-76752381D02*
X102245180Y-76752381D01*
X102245180Y-76752381D02*
X102245180Y-77085714D01*
X102245180Y-77085714D02*
X102197561Y-77180952D01*
X102197561Y-77180952D02*
X102149942Y-77228571D01*
X102149942Y-77228571D02*
X102054704Y-77276190D01*
X102054704Y-77276190D02*
X101959466Y-77276190D01*
X101959466Y-77276190D02*
X101864228Y-77228571D01*
X101864228Y-77228571D02*
X101816609Y-77180952D01*
X101816609Y-77180952D02*
X101768990Y-77085714D01*
X101768990Y-77085714D02*
X101768990Y-76752381D01*
X101292800Y-77704762D02*
X101245180Y-77847619D01*
X101245180Y-77847619D02*
X101245180Y-78085714D01*
X101245180Y-78085714D02*
X101292800Y-78180952D01*
X101292800Y-78180952D02*
X101340419Y-78228571D01*
X101340419Y-78228571D02*
X101435657Y-78276190D01*
X101435657Y-78276190D02*
X101530895Y-78276190D01*
X101530895Y-78276190D02*
X101626133Y-78228571D01*
X101626133Y-78228571D02*
X101673752Y-78180952D01*
X101673752Y-78180952D02*
X101721371Y-78085714D01*
X101721371Y-78085714D02*
X101768990Y-77895238D01*
X101768990Y-77895238D02*
X101816609Y-77800000D01*
X101816609Y-77800000D02*
X101864228Y-77752381D01*
X101864228Y-77752381D02*
X101959466Y-77704762D01*
X101959466Y-77704762D02*
X102054704Y-77704762D01*
X102054704Y-77704762D02*
X102149942Y-77752381D01*
X102149942Y-77752381D02*
X102197561Y-77800000D01*
X102197561Y-77800000D02*
X102245180Y-77895238D01*
X102245180Y-77895238D02*
X102245180Y-78133333D01*
X102245180Y-78133333D02*
X102197561Y-78276190D01*
X101245180Y-78704762D02*
X102245180Y-78704762D01*
X102245180Y-78704762D02*
X102245180Y-79085714D01*
X102245180Y-79085714D02*
X102197561Y-79180952D01*
X102197561Y-79180952D02*
X102149942Y-79228571D01*
X102149942Y-79228571D02*
X102054704Y-79276190D01*
X102054704Y-79276190D02*
X101911847Y-79276190D01*
X101911847Y-79276190D02*
X101816609Y-79228571D01*
X101816609Y-79228571D02*
X101768990Y-79180952D01*
X101768990Y-79180952D02*
X101721371Y-79085714D01*
X101721371Y-79085714D02*
X101721371Y-78704762D01*
X101245180Y-79704762D02*
X102245180Y-79704762D01*
X102245180Y-79704762D02*
X102245180Y-79942857D01*
X102245180Y-79942857D02*
X102197561Y-80085714D01*
X102197561Y-80085714D02*
X102102323Y-80180952D01*
X102102323Y-80180952D02*
X102007085Y-80228571D01*
X102007085Y-80228571D02*
X101816609Y-80276190D01*
X101816609Y-80276190D02*
X101673752Y-80276190D01*
X101673752Y-80276190D02*
X101483276Y-80228571D01*
X101483276Y-80228571D02*
X101388038Y-80180952D01*
X101388038Y-80180952D02*
X101292800Y-80085714D01*
X101292800Y-80085714D02*
X101245180Y-79942857D01*
X101245180Y-79942857D02*
X101245180Y-79704762D01*
X102245180Y-81323810D02*
X101245180Y-81657143D01*
X101245180Y-81657143D02*
X102245180Y-81990476D01*
X101245180Y-82847619D02*
X101245180Y-82276191D01*
X101245180Y-82561905D02*
X102245180Y-82561905D01*
X102245180Y-82561905D02*
X102102323Y-82466667D01*
X102102323Y-82466667D02*
X102007085Y-82371429D01*
X102007085Y-82371429D02*
X101959466Y-82276191D01*
X101340419Y-83276191D02*
X101292800Y-83323810D01*
X101292800Y-83323810D02*
X101245180Y-83276191D01*
X101245180Y-83276191D02*
X101292800Y-83228572D01*
X101292800Y-83228572D02*
X101340419Y-83276191D01*
X101340419Y-83276191D02*
X101245180Y-83276191D01*
X102245180Y-83942857D02*
X102245180Y-84038095D01*
X102245180Y-84038095D02*
X102197561Y-84133333D01*
X102197561Y-84133333D02*
X102149942Y-84180952D01*
X102149942Y-84180952D02*
X102054704Y-84228571D01*
X102054704Y-84228571D02*
X101864228Y-84276190D01*
X101864228Y-84276190D02*
X101626133Y-84276190D01*
X101626133Y-84276190D02*
X101435657Y-84228571D01*
X101435657Y-84228571D02*
X101340419Y-84180952D01*
X101340419Y-84180952D02*
X101292800Y-84133333D01*
X101292800Y-84133333D02*
X101245180Y-84038095D01*
X101245180Y-84038095D02*
X101245180Y-83942857D01*
X101245180Y-83942857D02*
X101292800Y-83847619D01*
X101292800Y-83847619D02*
X101340419Y-83800000D01*
X101340419Y-83800000D02*
X101435657Y-83752381D01*
X101435657Y-83752381D02*
X101626133Y-83704762D01*
X101626133Y-83704762D02*
X101864228Y-83704762D01*
X101864228Y-83704762D02*
X102054704Y-83752381D01*
X102054704Y-83752381D02*
X102149942Y-83800000D01*
X102149942Y-83800000D02*
X102197561Y-83847619D01*
X102197561Y-83847619D02*
X102245180Y-83942857D01*
X100545180Y-55147619D02*
X101545180Y-55147619D01*
X101545180Y-55147619D02*
X100830895Y-55480952D01*
X100830895Y-55480952D02*
X101545180Y-55814285D01*
X101545180Y-55814285D02*
X100545180Y-55814285D01*
X100926133Y-56290476D02*
X100926133Y-57052381D01*
X125064819Y-97793333D02*
X125779104Y-97793333D01*
X125779104Y-97793333D02*
X125921961Y-97840952D01*
X125921961Y-97840952D02*
X126017200Y-97936190D01*
X126017200Y-97936190D02*
X126064819Y-98079047D01*
X126064819Y-98079047D02*
X126064819Y-98174285D01*
X125064819Y-96840952D02*
X125064819Y-97317142D01*
X125064819Y-97317142D02*
X125541009Y-97364761D01*
X125541009Y-97364761D02*
X125493390Y-97317142D01*
X125493390Y-97317142D02*
X125445771Y-97221904D01*
X125445771Y-97221904D02*
X125445771Y-96983809D01*
X125445771Y-96983809D02*
X125493390Y-96888571D01*
X125493390Y-96888571D02*
X125541009Y-96840952D01*
X125541009Y-96840952D02*
X125636247Y-96793333D01*
X125636247Y-96793333D02*
X125874342Y-96793333D01*
X125874342Y-96793333D02*
X125969580Y-96840952D01*
X125969580Y-96840952D02*
X126017200Y-96888571D01*
X126017200Y-96888571D02*
X126064819Y-96983809D01*
X126064819Y-96983809D02*
X126064819Y-97221904D01*
X126064819Y-97221904D02*
X126017200Y-97317142D01*
X126017200Y-97317142D02*
X125969580Y-97364761D01*
X147854819Y-97833333D02*
X148569104Y-97833333D01*
X148569104Y-97833333D02*
X148711961Y-97880952D01*
X148711961Y-97880952D02*
X148807200Y-97976190D01*
X148807200Y-97976190D02*
X148854819Y-98119047D01*
X148854819Y-98119047D02*
X148854819Y-98214285D01*
X147854819Y-97452380D02*
X147854819Y-96785714D01*
X147854819Y-96785714D02*
X148854819Y-97214285D01*
X151154819Y-52433333D02*
X151869104Y-52433333D01*
X151869104Y-52433333D02*
X152011961Y-52480952D01*
X152011961Y-52480952D02*
X152107200Y-52576190D01*
X152107200Y-52576190D02*
X152154819Y-52719047D01*
X152154819Y-52719047D02*
X152154819Y-52814285D01*
X151154819Y-51528571D02*
X151154819Y-51719047D01*
X151154819Y-51719047D02*
X151202438Y-51814285D01*
X151202438Y-51814285D02*
X151250057Y-51861904D01*
X151250057Y-51861904D02*
X151392914Y-51957142D01*
X151392914Y-51957142D02*
X151583390Y-52004761D01*
X151583390Y-52004761D02*
X151964342Y-52004761D01*
X151964342Y-52004761D02*
X152059580Y-51957142D01*
X152059580Y-51957142D02*
X152107200Y-51909523D01*
X152107200Y-51909523D02*
X152154819Y-51814285D01*
X152154819Y-51814285D02*
X152154819Y-51623809D01*
X152154819Y-51623809D02*
X152107200Y-51528571D01*
X152107200Y-51528571D02*
X152059580Y-51480952D01*
X152059580Y-51480952D02*
X151964342Y-51433333D01*
X151964342Y-51433333D02*
X151726247Y-51433333D01*
X151726247Y-51433333D02*
X151631009Y-51480952D01*
X151631009Y-51480952D02*
X151583390Y-51528571D01*
X151583390Y-51528571D02*
X151535771Y-51623809D01*
X151535771Y-51623809D02*
X151535771Y-51814285D01*
X151535771Y-51814285D02*
X151583390Y-51909523D01*
X151583390Y-51909523D02*
X151631009Y-51957142D01*
X151631009Y-51957142D02*
X151726247Y-52004761D01*
X130633333Y-74054819D02*
X130157143Y-74054819D01*
X130157143Y-74054819D02*
X130157143Y-73054819D01*
X131490476Y-74054819D02*
X130919048Y-74054819D01*
X131204762Y-74054819D02*
X131204762Y-73054819D01*
X131204762Y-73054819D02*
X131109524Y-73197676D01*
X131109524Y-73197676D02*
X131014286Y-73292914D01*
X131014286Y-73292914D02*
X130919048Y-73340533D01*
X106506666Y-98654819D02*
X106506666Y-99369104D01*
X106506666Y-99369104D02*
X106459047Y-99511961D01*
X106459047Y-99511961D02*
X106363809Y-99607200D01*
X106363809Y-99607200D02*
X106220952Y-99654819D01*
X106220952Y-99654819D02*
X106125714Y-99654819D01*
X106935238Y-98750057D02*
X106982857Y-98702438D01*
X106982857Y-98702438D02*
X107078095Y-98654819D01*
X107078095Y-98654819D02*
X107316190Y-98654819D01*
X107316190Y-98654819D02*
X107411428Y-98702438D01*
X107411428Y-98702438D02*
X107459047Y-98750057D01*
X107459047Y-98750057D02*
X107506666Y-98845295D01*
X107506666Y-98845295D02*
X107506666Y-98940533D01*
X107506666Y-98940533D02*
X107459047Y-99083390D01*
X107459047Y-99083390D02*
X106887619Y-99654819D01*
X106887619Y-99654819D02*
X107506666Y-99654819D01*
X121461905Y-76254819D02*
X121461905Y-75254819D01*
X121461905Y-75254819D02*
X121700000Y-75254819D01*
X121700000Y-75254819D02*
X121842857Y-75302438D01*
X121842857Y-75302438D02*
X121938095Y-75397676D01*
X121938095Y-75397676D02*
X121985714Y-75492914D01*
X121985714Y-75492914D02*
X122033333Y-75683390D01*
X122033333Y-75683390D02*
X122033333Y-75826247D01*
X122033333Y-75826247D02*
X121985714Y-76016723D01*
X121985714Y-76016723D02*
X121938095Y-76111961D01*
X121938095Y-76111961D02*
X121842857Y-76207200D01*
X121842857Y-76207200D02*
X121700000Y-76254819D01*
X121700000Y-76254819D02*
X121461905Y-76254819D01*
X122414286Y-75350057D02*
X122461905Y-75302438D01*
X122461905Y-75302438D02*
X122557143Y-75254819D01*
X122557143Y-75254819D02*
X122795238Y-75254819D01*
X122795238Y-75254819D02*
X122890476Y-75302438D01*
X122890476Y-75302438D02*
X122938095Y-75350057D01*
X122938095Y-75350057D02*
X122985714Y-75445295D01*
X122985714Y-75445295D02*
X122985714Y-75540533D01*
X122985714Y-75540533D02*
X122938095Y-75683390D01*
X122938095Y-75683390D02*
X122366667Y-76254819D01*
X122366667Y-76254819D02*
X122985714Y-76254819D01*
X125554819Y-55838094D02*
X124554819Y-55838094D01*
X124554819Y-55838094D02*
X124554819Y-55599999D01*
X124554819Y-55599999D02*
X124602438Y-55457142D01*
X124602438Y-55457142D02*
X124697676Y-55361904D01*
X124697676Y-55361904D02*
X124792914Y-55314285D01*
X124792914Y-55314285D02*
X124983390Y-55266666D01*
X124983390Y-55266666D02*
X125126247Y-55266666D01*
X125126247Y-55266666D02*
X125316723Y-55314285D01*
X125316723Y-55314285D02*
X125411961Y-55361904D01*
X125411961Y-55361904D02*
X125507200Y-55457142D01*
X125507200Y-55457142D02*
X125554819Y-55599999D01*
X125554819Y-55599999D02*
X125554819Y-55838094D01*
X124888152Y-54409523D02*
X125554819Y-54409523D01*
X124507200Y-54647618D02*
X125221485Y-54885713D01*
X125221485Y-54885713D02*
X125221485Y-54266666D01*
X125113333Y-67884819D02*
X124780000Y-67408628D01*
X124541905Y-67884819D02*
X124541905Y-66884819D01*
X124541905Y-66884819D02*
X124922857Y-66884819D01*
X124922857Y-66884819D02*
X125018095Y-66932438D01*
X125018095Y-66932438D02*
X125065714Y-66980057D01*
X125065714Y-66980057D02*
X125113333Y-67075295D01*
X125113333Y-67075295D02*
X125113333Y-67218152D01*
X125113333Y-67218152D02*
X125065714Y-67313390D01*
X125065714Y-67313390D02*
X125018095Y-67361009D01*
X125018095Y-67361009D02*
X124922857Y-67408628D01*
X124922857Y-67408628D02*
X124541905Y-67408628D01*
X126065714Y-67884819D02*
X125494286Y-67884819D01*
X125780000Y-67884819D02*
X125780000Y-66884819D01*
X125780000Y-66884819D02*
X125684762Y-67027676D01*
X125684762Y-67027676D02*
X125589524Y-67122914D01*
X125589524Y-67122914D02*
X125494286Y-67170533D01*
X116133333Y-71154819D02*
X115800000Y-70678628D01*
X115561905Y-71154819D02*
X115561905Y-70154819D01*
X115561905Y-70154819D02*
X115942857Y-70154819D01*
X115942857Y-70154819D02*
X116038095Y-70202438D01*
X116038095Y-70202438D02*
X116085714Y-70250057D01*
X116085714Y-70250057D02*
X116133333Y-70345295D01*
X116133333Y-70345295D02*
X116133333Y-70488152D01*
X116133333Y-70488152D02*
X116085714Y-70583390D01*
X116085714Y-70583390D02*
X116038095Y-70631009D01*
X116038095Y-70631009D02*
X115942857Y-70678628D01*
X115942857Y-70678628D02*
X115561905Y-70678628D01*
X116990476Y-70488152D02*
X116990476Y-71154819D01*
X116752381Y-70107200D02*
X116514286Y-70821485D01*
X116514286Y-70821485D02*
X117133333Y-70821485D01*
X125514819Y-58666666D02*
X125038628Y-58999999D01*
X125514819Y-59238094D02*
X124514819Y-59238094D01*
X124514819Y-59238094D02*
X124514819Y-58857142D01*
X124514819Y-58857142D02*
X124562438Y-58761904D01*
X124562438Y-58761904D02*
X124610057Y-58714285D01*
X124610057Y-58714285D02*
X124705295Y-58666666D01*
X124705295Y-58666666D02*
X124848152Y-58666666D01*
X124848152Y-58666666D02*
X124943390Y-58714285D01*
X124943390Y-58714285D02*
X124991009Y-58761904D01*
X124991009Y-58761904D02*
X125038628Y-58857142D01*
X125038628Y-58857142D02*
X125038628Y-59238094D01*
X124514819Y-58333332D02*
X124514819Y-57666666D01*
X124514819Y-57666666D02*
X125514819Y-58095237D01*
X128559580Y-92848966D02*
X128607200Y-92896585D01*
X128607200Y-92896585D02*
X128654819Y-93039442D01*
X128654819Y-93039442D02*
X128654819Y-93134680D01*
X128654819Y-93134680D02*
X128607200Y-93277537D01*
X128607200Y-93277537D02*
X128511961Y-93372775D01*
X128511961Y-93372775D02*
X128416723Y-93420394D01*
X128416723Y-93420394D02*
X128226247Y-93468013D01*
X128226247Y-93468013D02*
X128083390Y-93468013D01*
X128083390Y-93468013D02*
X127892914Y-93420394D01*
X127892914Y-93420394D02*
X127797676Y-93372775D01*
X127797676Y-93372775D02*
X127702438Y-93277537D01*
X127702438Y-93277537D02*
X127654819Y-93134680D01*
X127654819Y-93134680D02*
X127654819Y-93039442D01*
X127654819Y-93039442D02*
X127702438Y-92896585D01*
X127702438Y-92896585D02*
X127750057Y-92848966D01*
X127750057Y-92468013D02*
X127702438Y-92420394D01*
X127702438Y-92420394D02*
X127654819Y-92325156D01*
X127654819Y-92325156D02*
X127654819Y-92087061D01*
X127654819Y-92087061D02*
X127702438Y-91991823D01*
X127702438Y-91991823D02*
X127750057Y-91944204D01*
X127750057Y-91944204D02*
X127845295Y-91896585D01*
X127845295Y-91896585D02*
X127940533Y-91896585D01*
X127940533Y-91896585D02*
X128083390Y-91944204D01*
X128083390Y-91944204D02*
X128654819Y-92515632D01*
X128654819Y-92515632D02*
X128654819Y-91896585D01*
X137252280Y-91276666D02*
X137299900Y-91324285D01*
X137299900Y-91324285D02*
X137347519Y-91467142D01*
X137347519Y-91467142D02*
X137347519Y-91562380D01*
X137347519Y-91562380D02*
X137299900Y-91705237D01*
X137299900Y-91705237D02*
X137204661Y-91800475D01*
X137204661Y-91800475D02*
X137109423Y-91848094D01*
X137109423Y-91848094D02*
X136918947Y-91895713D01*
X136918947Y-91895713D02*
X136776090Y-91895713D01*
X136776090Y-91895713D02*
X136585614Y-91848094D01*
X136585614Y-91848094D02*
X136490376Y-91800475D01*
X136490376Y-91800475D02*
X136395138Y-91705237D01*
X136395138Y-91705237D02*
X136347519Y-91562380D01*
X136347519Y-91562380D02*
X136347519Y-91467142D01*
X136347519Y-91467142D02*
X136395138Y-91324285D01*
X136395138Y-91324285D02*
X136442757Y-91276666D01*
X136347519Y-90943332D02*
X136347519Y-90324285D01*
X136347519Y-90324285D02*
X136728471Y-90657618D01*
X136728471Y-90657618D02*
X136728471Y-90514761D01*
X136728471Y-90514761D02*
X136776090Y-90419523D01*
X136776090Y-90419523D02*
X136823709Y-90371904D01*
X136823709Y-90371904D02*
X136918947Y-90324285D01*
X136918947Y-90324285D02*
X137157042Y-90324285D01*
X137157042Y-90324285D02*
X137252280Y-90371904D01*
X137252280Y-90371904D02*
X137299900Y-90419523D01*
X137299900Y-90419523D02*
X137347519Y-90514761D01*
X137347519Y-90514761D02*
X137347519Y-90800475D01*
X137347519Y-90800475D02*
X137299900Y-90895713D01*
X137299900Y-90895713D02*
X137252280Y-90943332D01*
X105038095Y-86654819D02*
X105038095Y-87464342D01*
X105038095Y-87464342D02*
X105085714Y-87559580D01*
X105085714Y-87559580D02*
X105133333Y-87607200D01*
X105133333Y-87607200D02*
X105228571Y-87654819D01*
X105228571Y-87654819D02*
X105419047Y-87654819D01*
X105419047Y-87654819D02*
X105514285Y-87607200D01*
X105514285Y-87607200D02*
X105561904Y-87559580D01*
X105561904Y-87559580D02*
X105609523Y-87464342D01*
X105609523Y-87464342D02*
X105609523Y-86654819D01*
X106609523Y-87654819D02*
X106038095Y-87654819D01*
X106323809Y-87654819D02*
X106323809Y-86654819D01*
X106323809Y-86654819D02*
X106228571Y-86797676D01*
X106228571Y-86797676D02*
X106133333Y-86892914D01*
X106133333Y-86892914D02*
X106038095Y-86940533D01*
X138958333Y-75524819D02*
X138625000Y-75048628D01*
X138386905Y-75524819D02*
X138386905Y-74524819D01*
X138386905Y-74524819D02*
X138767857Y-74524819D01*
X138767857Y-74524819D02*
X138863095Y-74572438D01*
X138863095Y-74572438D02*
X138910714Y-74620057D01*
X138910714Y-74620057D02*
X138958333Y-74715295D01*
X138958333Y-74715295D02*
X138958333Y-74858152D01*
X138958333Y-74858152D02*
X138910714Y-74953390D01*
X138910714Y-74953390D02*
X138863095Y-75001009D01*
X138863095Y-75001009D02*
X138767857Y-75048628D01*
X138767857Y-75048628D02*
X138386905Y-75048628D01*
X139529762Y-74953390D02*
X139434524Y-74905771D01*
X139434524Y-74905771D02*
X139386905Y-74858152D01*
X139386905Y-74858152D02*
X139339286Y-74762914D01*
X139339286Y-74762914D02*
X139339286Y-74715295D01*
X139339286Y-74715295D02*
X139386905Y-74620057D01*
X139386905Y-74620057D02*
X139434524Y-74572438D01*
X139434524Y-74572438D02*
X139529762Y-74524819D01*
X139529762Y-74524819D02*
X139720238Y-74524819D01*
X139720238Y-74524819D02*
X139815476Y-74572438D01*
X139815476Y-74572438D02*
X139863095Y-74620057D01*
X139863095Y-74620057D02*
X139910714Y-74715295D01*
X139910714Y-74715295D02*
X139910714Y-74762914D01*
X139910714Y-74762914D02*
X139863095Y-74858152D01*
X139863095Y-74858152D02*
X139815476Y-74905771D01*
X139815476Y-74905771D02*
X139720238Y-74953390D01*
X139720238Y-74953390D02*
X139529762Y-74953390D01*
X139529762Y-74953390D02*
X139434524Y-75001009D01*
X139434524Y-75001009D02*
X139386905Y-75048628D01*
X139386905Y-75048628D02*
X139339286Y-75143866D01*
X139339286Y-75143866D02*
X139339286Y-75334342D01*
X139339286Y-75334342D02*
X139386905Y-75429580D01*
X139386905Y-75429580D02*
X139434524Y-75477200D01*
X139434524Y-75477200D02*
X139529762Y-75524819D01*
X139529762Y-75524819D02*
X139720238Y-75524819D01*
X139720238Y-75524819D02*
X139815476Y-75477200D01*
X139815476Y-75477200D02*
X139863095Y-75429580D01*
X139863095Y-75429580D02*
X139910714Y-75334342D01*
X139910714Y-75334342D02*
X139910714Y-75143866D01*
X139910714Y-75143866D02*
X139863095Y-75048628D01*
X139863095Y-75048628D02*
X139815476Y-75001009D01*
X139815476Y-75001009D02*
X139720238Y-74953390D01*
X153737142Y-93304819D02*
X153403809Y-92828628D01*
X153165714Y-93304819D02*
X153165714Y-92304819D01*
X153165714Y-92304819D02*
X153546666Y-92304819D01*
X153546666Y-92304819D02*
X153641904Y-92352438D01*
X153641904Y-92352438D02*
X153689523Y-92400057D01*
X153689523Y-92400057D02*
X153737142Y-92495295D01*
X153737142Y-92495295D02*
X153737142Y-92638152D01*
X153737142Y-92638152D02*
X153689523Y-92733390D01*
X153689523Y-92733390D02*
X153641904Y-92781009D01*
X153641904Y-92781009D02*
X153546666Y-92828628D01*
X153546666Y-92828628D02*
X153165714Y-92828628D01*
X154689523Y-93304819D02*
X154118095Y-93304819D01*
X154403809Y-93304819D02*
X154403809Y-92304819D01*
X154403809Y-92304819D02*
X154308571Y-92447676D01*
X154308571Y-92447676D02*
X154213333Y-92542914D01*
X154213333Y-92542914D02*
X154118095Y-92590533D01*
X155308571Y-92304819D02*
X155403809Y-92304819D01*
X155403809Y-92304819D02*
X155499047Y-92352438D01*
X155499047Y-92352438D02*
X155546666Y-92400057D01*
X155546666Y-92400057D02*
X155594285Y-92495295D01*
X155594285Y-92495295D02*
X155641904Y-92685771D01*
X155641904Y-92685771D02*
X155641904Y-92923866D01*
X155641904Y-92923866D02*
X155594285Y-93114342D01*
X155594285Y-93114342D02*
X155546666Y-93209580D01*
X155546666Y-93209580D02*
X155499047Y-93257200D01*
X155499047Y-93257200D02*
X155403809Y-93304819D01*
X155403809Y-93304819D02*
X155308571Y-93304819D01*
X155308571Y-93304819D02*
X155213333Y-93257200D01*
X155213333Y-93257200D02*
X155165714Y-93209580D01*
X155165714Y-93209580D02*
X155118095Y-93114342D01*
X155118095Y-93114342D02*
X155070476Y-92923866D01*
X155070476Y-92923866D02*
X155070476Y-92685771D01*
X155070476Y-92685771D02*
X155118095Y-92495295D01*
X155118095Y-92495295D02*
X155165714Y-92400057D01*
X155165714Y-92400057D02*
X155213333Y-92352438D01*
X155213333Y-92352438D02*
X155308571Y-92304819D01*
X151183333Y-79394819D02*
X150850000Y-78918628D01*
X150611905Y-79394819D02*
X150611905Y-78394819D01*
X150611905Y-78394819D02*
X150992857Y-78394819D01*
X150992857Y-78394819D02*
X151088095Y-78442438D01*
X151088095Y-78442438D02*
X151135714Y-78490057D01*
X151135714Y-78490057D02*
X151183333Y-78585295D01*
X151183333Y-78585295D02*
X151183333Y-78728152D01*
X151183333Y-78728152D02*
X151135714Y-78823390D01*
X151135714Y-78823390D02*
X151088095Y-78871009D01*
X151088095Y-78871009D02*
X150992857Y-78918628D01*
X150992857Y-78918628D02*
X150611905Y-78918628D01*
X151564286Y-78490057D02*
X151611905Y-78442438D01*
X151611905Y-78442438D02*
X151707143Y-78394819D01*
X151707143Y-78394819D02*
X151945238Y-78394819D01*
X151945238Y-78394819D02*
X152040476Y-78442438D01*
X152040476Y-78442438D02*
X152088095Y-78490057D01*
X152088095Y-78490057D02*
X152135714Y-78585295D01*
X152135714Y-78585295D02*
X152135714Y-78680533D01*
X152135714Y-78680533D02*
X152088095Y-78823390D01*
X152088095Y-78823390D02*
X151516667Y-79394819D01*
X151516667Y-79394819D02*
X152135714Y-79394819D01*
X146618095Y-86984819D02*
X146618095Y-87794342D01*
X146618095Y-87794342D02*
X146665714Y-87889580D01*
X146665714Y-87889580D02*
X146713333Y-87937200D01*
X146713333Y-87937200D02*
X146808571Y-87984819D01*
X146808571Y-87984819D02*
X146999047Y-87984819D01*
X146999047Y-87984819D02*
X147094285Y-87937200D01*
X147094285Y-87937200D02*
X147141904Y-87889580D01*
X147141904Y-87889580D02*
X147189523Y-87794342D01*
X147189523Y-87794342D02*
X147189523Y-86984819D01*
X148094285Y-87318152D02*
X148094285Y-87984819D01*
X147856190Y-86937200D02*
X147618095Y-87651485D01*
X147618095Y-87651485D02*
X148237142Y-87651485D01*
X162996666Y-61784819D02*
X162996666Y-62499104D01*
X162996666Y-62499104D02*
X162949047Y-62641961D01*
X162949047Y-62641961D02*
X162853809Y-62737200D01*
X162853809Y-62737200D02*
X162710952Y-62784819D01*
X162710952Y-62784819D02*
X162615714Y-62784819D01*
X163996666Y-62784819D02*
X163425238Y-62784819D01*
X163710952Y-62784819D02*
X163710952Y-61784819D01*
X163710952Y-61784819D02*
X163615714Y-61927676D01*
X163615714Y-61927676D02*
X163520476Y-62022914D01*
X163520476Y-62022914D02*
X163425238Y-62070533D01*
X144704819Y-58551904D02*
X145514342Y-58551904D01*
X145514342Y-58551904D02*
X145609580Y-58504285D01*
X145609580Y-58504285D02*
X145657200Y-58456666D01*
X145657200Y-58456666D02*
X145704819Y-58361428D01*
X145704819Y-58361428D02*
X145704819Y-58170952D01*
X145704819Y-58170952D02*
X145657200Y-58075714D01*
X145657200Y-58075714D02*
X145609580Y-58028095D01*
X145609580Y-58028095D02*
X145514342Y-57980476D01*
X145514342Y-57980476D02*
X144704819Y-57980476D01*
X144704819Y-57599523D02*
X144704819Y-56980476D01*
X144704819Y-56980476D02*
X145085771Y-57313809D01*
X145085771Y-57313809D02*
X145085771Y-57170952D01*
X145085771Y-57170952D02*
X145133390Y-57075714D01*
X145133390Y-57075714D02*
X145181009Y-57028095D01*
X145181009Y-57028095D02*
X145276247Y-56980476D01*
X145276247Y-56980476D02*
X145514342Y-56980476D01*
X145514342Y-56980476D02*
X145609580Y-57028095D01*
X145609580Y-57028095D02*
X145657200Y-57075714D01*
X145657200Y-57075714D02*
X145704819Y-57170952D01*
X145704819Y-57170952D02*
X145704819Y-57456666D01*
X145704819Y-57456666D02*
X145657200Y-57551904D01*
X145657200Y-57551904D02*
X145609580Y-57599523D01*
X115554819Y-49533333D02*
X116269104Y-49533333D01*
X116269104Y-49533333D02*
X116411961Y-49580952D01*
X116411961Y-49580952D02*
X116507200Y-49676190D01*
X116507200Y-49676190D02*
X116554819Y-49819047D01*
X116554819Y-49819047D02*
X116554819Y-49914285D01*
X115888152Y-48628571D02*
X116554819Y-48628571D01*
X115507200Y-48866666D02*
X116221485Y-49104761D01*
X116221485Y-49104761D02*
X116221485Y-48485714D01*
X124733333Y-73559580D02*
X124685714Y-73607200D01*
X124685714Y-73607200D02*
X124542857Y-73654819D01*
X124542857Y-73654819D02*
X124447619Y-73654819D01*
X124447619Y-73654819D02*
X124304762Y-73607200D01*
X124304762Y-73607200D02*
X124209524Y-73511961D01*
X124209524Y-73511961D02*
X124161905Y-73416723D01*
X124161905Y-73416723D02*
X124114286Y-73226247D01*
X124114286Y-73226247D02*
X124114286Y-73083390D01*
X124114286Y-73083390D02*
X124161905Y-72892914D01*
X124161905Y-72892914D02*
X124209524Y-72797676D01*
X124209524Y-72797676D02*
X124304762Y-72702438D01*
X124304762Y-72702438D02*
X124447619Y-72654819D01*
X124447619Y-72654819D02*
X124542857Y-72654819D01*
X124542857Y-72654819D02*
X124685714Y-72702438D01*
X124685714Y-72702438D02*
X124733333Y-72750057D01*
X125685714Y-73654819D02*
X125114286Y-73654819D01*
X125400000Y-73654819D02*
X125400000Y-72654819D01*
X125400000Y-72654819D02*
X125304762Y-72797676D01*
X125304762Y-72797676D02*
X125209524Y-72892914D01*
X125209524Y-72892914D02*
X125114286Y-72940533D01*
X155854819Y-94333333D02*
X156569104Y-94333333D01*
X156569104Y-94333333D02*
X156711961Y-94380952D01*
X156711961Y-94380952D02*
X156807200Y-94476190D01*
X156807200Y-94476190D02*
X156854819Y-94619047D01*
X156854819Y-94619047D02*
X156854819Y-94714285D01*
X156283390Y-93714285D02*
X156235771Y-93809523D01*
X156235771Y-93809523D02*
X156188152Y-93857142D01*
X156188152Y-93857142D02*
X156092914Y-93904761D01*
X156092914Y-93904761D02*
X156045295Y-93904761D01*
X156045295Y-93904761D02*
X155950057Y-93857142D01*
X155950057Y-93857142D02*
X155902438Y-93809523D01*
X155902438Y-93809523D02*
X155854819Y-93714285D01*
X155854819Y-93714285D02*
X155854819Y-93523809D01*
X155854819Y-93523809D02*
X155902438Y-93428571D01*
X155902438Y-93428571D02*
X155950057Y-93380952D01*
X155950057Y-93380952D02*
X156045295Y-93333333D01*
X156045295Y-93333333D02*
X156092914Y-93333333D01*
X156092914Y-93333333D02*
X156188152Y-93380952D01*
X156188152Y-93380952D02*
X156235771Y-93428571D01*
X156235771Y-93428571D02*
X156283390Y-93523809D01*
X156283390Y-93523809D02*
X156283390Y-93714285D01*
X156283390Y-93714285D02*
X156331009Y-93809523D01*
X156331009Y-93809523D02*
X156378628Y-93857142D01*
X156378628Y-93857142D02*
X156473866Y-93904761D01*
X156473866Y-93904761D02*
X156664342Y-93904761D01*
X156664342Y-93904761D02*
X156759580Y-93857142D01*
X156759580Y-93857142D02*
X156807200Y-93809523D01*
X156807200Y-93809523D02*
X156854819Y-93714285D01*
X156854819Y-93714285D02*
X156854819Y-93523809D01*
X156854819Y-93523809D02*
X156807200Y-93428571D01*
X156807200Y-93428571D02*
X156759580Y-93380952D01*
X156759580Y-93380952D02*
X156664342Y-93333333D01*
X156664342Y-93333333D02*
X156473866Y-93333333D01*
X156473866Y-93333333D02*
X156378628Y-93380952D01*
X156378628Y-93380952D02*
X156331009Y-93428571D01*
X156331009Y-93428571D02*
X156283390Y-93523809D01*
X111264819Y-49633333D02*
X111979104Y-49633333D01*
X111979104Y-49633333D02*
X112121961Y-49680952D01*
X112121961Y-49680952D02*
X112217200Y-49776190D01*
X112217200Y-49776190D02*
X112264819Y-49919047D01*
X112264819Y-49919047D02*
X112264819Y-50014285D01*
X111264819Y-49252380D02*
X111264819Y-48633333D01*
X111264819Y-48633333D02*
X111645771Y-48966666D01*
X111645771Y-48966666D02*
X111645771Y-48823809D01*
X111645771Y-48823809D02*
X111693390Y-48728571D01*
X111693390Y-48728571D02*
X111741009Y-48680952D01*
X111741009Y-48680952D02*
X111836247Y-48633333D01*
X111836247Y-48633333D02*
X112074342Y-48633333D01*
X112074342Y-48633333D02*
X112169580Y-48680952D01*
X112169580Y-48680952D02*
X112217200Y-48728571D01*
X112217200Y-48728571D02*
X112264819Y-48823809D01*
X112264819Y-48823809D02*
X112264819Y-49109523D01*
X112264819Y-49109523D02*
X112217200Y-49204761D01*
X112217200Y-49204761D02*
X112169580Y-49252380D01*
X120679405Y-66474819D02*
X120679405Y-65474819D01*
X120679405Y-65474819D02*
X120917500Y-65474819D01*
X120917500Y-65474819D02*
X121060357Y-65522438D01*
X121060357Y-65522438D02*
X121155595Y-65617676D01*
X121155595Y-65617676D02*
X121203214Y-65712914D01*
X121203214Y-65712914D02*
X121250833Y-65903390D01*
X121250833Y-65903390D02*
X121250833Y-66046247D01*
X121250833Y-66046247D02*
X121203214Y-66236723D01*
X121203214Y-66236723D02*
X121155595Y-66331961D01*
X121155595Y-66331961D02*
X121060357Y-66427200D01*
X121060357Y-66427200D02*
X120917500Y-66474819D01*
X120917500Y-66474819D02*
X120679405Y-66474819D01*
X122155595Y-65474819D02*
X121679405Y-65474819D01*
X121679405Y-65474819D02*
X121631786Y-65951009D01*
X121631786Y-65951009D02*
X121679405Y-65903390D01*
X121679405Y-65903390D02*
X121774643Y-65855771D01*
X121774643Y-65855771D02*
X122012738Y-65855771D01*
X122012738Y-65855771D02*
X122107976Y-65903390D01*
X122107976Y-65903390D02*
X122155595Y-65951009D01*
X122155595Y-65951009D02*
X122203214Y-66046247D01*
X122203214Y-66046247D02*
X122203214Y-66284342D01*
X122203214Y-66284342D02*
X122155595Y-66379580D01*
X122155595Y-66379580D02*
X122107976Y-66427200D01*
X122107976Y-66427200D02*
X122012738Y-66474819D01*
X122012738Y-66474819D02*
X121774643Y-66474819D01*
X121774643Y-66474819D02*
X121679405Y-66427200D01*
X121679405Y-66427200D02*
X121631786Y-66379580D01*
X116824819Y-98318094D02*
X115824819Y-98318094D01*
X115824819Y-98318094D02*
X115824819Y-98079999D01*
X115824819Y-98079999D02*
X115872438Y-97937142D01*
X115872438Y-97937142D02*
X115967676Y-97841904D01*
X115967676Y-97841904D02*
X116062914Y-97794285D01*
X116062914Y-97794285D02*
X116253390Y-97746666D01*
X116253390Y-97746666D02*
X116396247Y-97746666D01*
X116396247Y-97746666D02*
X116586723Y-97794285D01*
X116586723Y-97794285D02*
X116681961Y-97841904D01*
X116681961Y-97841904D02*
X116777200Y-97937142D01*
X116777200Y-97937142D02*
X116824819Y-98079999D01*
X116824819Y-98079999D02*
X116824819Y-98318094D01*
X116824819Y-96794285D02*
X116824819Y-97365713D01*
X116824819Y-97079999D02*
X115824819Y-97079999D01*
X115824819Y-97079999D02*
X115967676Y-97175237D01*
X115967676Y-97175237D02*
X116062914Y-97270475D01*
X116062914Y-97270475D02*
X116110533Y-97365713D01*
X116914819Y-87741904D02*
X115914819Y-87741904D01*
X116914819Y-87170476D02*
X116343390Y-87599047D01*
X115914819Y-87170476D02*
X116486247Y-87741904D01*
X138313333Y-67084819D02*
X137980000Y-66608628D01*
X137741905Y-67084819D02*
X137741905Y-66084819D01*
X137741905Y-66084819D02*
X138122857Y-66084819D01*
X138122857Y-66084819D02*
X138218095Y-66132438D01*
X138218095Y-66132438D02*
X138265714Y-66180057D01*
X138265714Y-66180057D02*
X138313333Y-66275295D01*
X138313333Y-66275295D02*
X138313333Y-66418152D01*
X138313333Y-66418152D02*
X138265714Y-66513390D01*
X138265714Y-66513390D02*
X138218095Y-66561009D01*
X138218095Y-66561009D02*
X138122857Y-66608628D01*
X138122857Y-66608628D02*
X137741905Y-66608628D01*
X138646667Y-66084819D02*
X139265714Y-66084819D01*
X139265714Y-66084819D02*
X138932381Y-66465771D01*
X138932381Y-66465771D02*
X139075238Y-66465771D01*
X139075238Y-66465771D02*
X139170476Y-66513390D01*
X139170476Y-66513390D02*
X139218095Y-66561009D01*
X139218095Y-66561009D02*
X139265714Y-66656247D01*
X139265714Y-66656247D02*
X139265714Y-66894342D01*
X139265714Y-66894342D02*
X139218095Y-66989580D01*
X139218095Y-66989580D02*
X139170476Y-67037200D01*
X139170476Y-67037200D02*
X139075238Y-67084819D01*
X139075238Y-67084819D02*
X138789524Y-67084819D01*
X138789524Y-67084819D02*
X138694286Y-67037200D01*
X138694286Y-67037200D02*
X138646667Y-66989580D01*
X147566905Y-66514819D02*
X147566905Y-65514819D01*
X147566905Y-65514819D02*
X147805000Y-65514819D01*
X147805000Y-65514819D02*
X147947857Y-65562438D01*
X147947857Y-65562438D02*
X148043095Y-65657676D01*
X148043095Y-65657676D02*
X148090714Y-65752914D01*
X148090714Y-65752914D02*
X148138333Y-65943390D01*
X148138333Y-65943390D02*
X148138333Y-66086247D01*
X148138333Y-66086247D02*
X148090714Y-66276723D01*
X148090714Y-66276723D02*
X148043095Y-66371961D01*
X148043095Y-66371961D02*
X147947857Y-66467200D01*
X147947857Y-66467200D02*
X147805000Y-66514819D01*
X147805000Y-66514819D02*
X147566905Y-66514819D01*
X148471667Y-65514819D02*
X149090714Y-65514819D01*
X149090714Y-65514819D02*
X148757381Y-65895771D01*
X148757381Y-65895771D02*
X148900238Y-65895771D01*
X148900238Y-65895771D02*
X148995476Y-65943390D01*
X148995476Y-65943390D02*
X149043095Y-65991009D01*
X149043095Y-65991009D02*
X149090714Y-66086247D01*
X149090714Y-66086247D02*
X149090714Y-66324342D01*
X149090714Y-66324342D02*
X149043095Y-66419580D01*
X149043095Y-66419580D02*
X148995476Y-66467200D01*
X148995476Y-66467200D02*
X148900238Y-66514819D01*
X148900238Y-66514819D02*
X148614524Y-66514819D01*
X148614524Y-66514819D02*
X148519286Y-66467200D01*
X148519286Y-66467200D02*
X148471667Y-66419580D01*
X150623333Y-93344819D02*
X150290000Y-92868628D01*
X150051905Y-93344819D02*
X150051905Y-92344819D01*
X150051905Y-92344819D02*
X150432857Y-92344819D01*
X150432857Y-92344819D02*
X150528095Y-92392438D01*
X150528095Y-92392438D02*
X150575714Y-92440057D01*
X150575714Y-92440057D02*
X150623333Y-92535295D01*
X150623333Y-92535295D02*
X150623333Y-92678152D01*
X150623333Y-92678152D02*
X150575714Y-92773390D01*
X150575714Y-92773390D02*
X150528095Y-92821009D01*
X150528095Y-92821009D02*
X150432857Y-92868628D01*
X150432857Y-92868628D02*
X150051905Y-92868628D01*
X151099524Y-93344819D02*
X151290000Y-93344819D01*
X151290000Y-93344819D02*
X151385238Y-93297200D01*
X151385238Y-93297200D02*
X151432857Y-93249580D01*
X151432857Y-93249580D02*
X151528095Y-93106723D01*
X151528095Y-93106723D02*
X151575714Y-92916247D01*
X151575714Y-92916247D02*
X151575714Y-92535295D01*
X151575714Y-92535295D02*
X151528095Y-92440057D01*
X151528095Y-92440057D02*
X151480476Y-92392438D01*
X151480476Y-92392438D02*
X151385238Y-92344819D01*
X151385238Y-92344819D02*
X151194762Y-92344819D01*
X151194762Y-92344819D02*
X151099524Y-92392438D01*
X151099524Y-92392438D02*
X151051905Y-92440057D01*
X151051905Y-92440057D02*
X151004286Y-92535295D01*
X151004286Y-92535295D02*
X151004286Y-92773390D01*
X151004286Y-92773390D02*
X151051905Y-92868628D01*
X151051905Y-92868628D02*
X151099524Y-92916247D01*
X151099524Y-92916247D02*
X151194762Y-92963866D01*
X151194762Y-92963866D02*
X151385238Y-92963866D01*
X151385238Y-92963866D02*
X151480476Y-92916247D01*
X151480476Y-92916247D02*
X151528095Y-92868628D01*
X151528095Y-92868628D02*
X151575714Y-92773390D01*
X137233333Y-65259580D02*
X137185714Y-65307200D01*
X137185714Y-65307200D02*
X137042857Y-65354819D01*
X137042857Y-65354819D02*
X136947619Y-65354819D01*
X136947619Y-65354819D02*
X136804762Y-65307200D01*
X136804762Y-65307200D02*
X136709524Y-65211961D01*
X136709524Y-65211961D02*
X136661905Y-65116723D01*
X136661905Y-65116723D02*
X136614286Y-64926247D01*
X136614286Y-64926247D02*
X136614286Y-64783390D01*
X136614286Y-64783390D02*
X136661905Y-64592914D01*
X136661905Y-64592914D02*
X136709524Y-64497676D01*
X136709524Y-64497676D02*
X136804762Y-64402438D01*
X136804762Y-64402438D02*
X136947619Y-64354819D01*
X136947619Y-64354819D02*
X137042857Y-64354819D01*
X137042857Y-64354819D02*
X137185714Y-64402438D01*
X137185714Y-64402438D02*
X137233333Y-64450057D01*
X138138095Y-64354819D02*
X137661905Y-64354819D01*
X137661905Y-64354819D02*
X137614286Y-64831009D01*
X137614286Y-64831009D02*
X137661905Y-64783390D01*
X137661905Y-64783390D02*
X137757143Y-64735771D01*
X137757143Y-64735771D02*
X137995238Y-64735771D01*
X137995238Y-64735771D02*
X138090476Y-64783390D01*
X138090476Y-64783390D02*
X138138095Y-64831009D01*
X138138095Y-64831009D02*
X138185714Y-64926247D01*
X138185714Y-64926247D02*
X138185714Y-65164342D01*
X138185714Y-65164342D02*
X138138095Y-65259580D01*
X138138095Y-65259580D02*
X138090476Y-65307200D01*
X138090476Y-65307200D02*
X137995238Y-65354819D01*
X137995238Y-65354819D02*
X137757143Y-65354819D01*
X137757143Y-65354819D02*
X137661905Y-65307200D01*
X137661905Y-65307200D02*
X137614286Y-65259580D01*
X148168433Y-58659580D02*
X148120814Y-58707200D01*
X148120814Y-58707200D02*
X147977957Y-58754819D01*
X147977957Y-58754819D02*
X147882719Y-58754819D01*
X147882719Y-58754819D02*
X147739862Y-58707200D01*
X147739862Y-58707200D02*
X147644624Y-58611961D01*
X147644624Y-58611961D02*
X147597005Y-58516723D01*
X147597005Y-58516723D02*
X147549386Y-58326247D01*
X147549386Y-58326247D02*
X147549386Y-58183390D01*
X147549386Y-58183390D02*
X147597005Y-57992914D01*
X147597005Y-57992914D02*
X147644624Y-57897676D01*
X147644624Y-57897676D02*
X147739862Y-57802438D01*
X147739862Y-57802438D02*
X147882719Y-57754819D01*
X147882719Y-57754819D02*
X147977957Y-57754819D01*
X147977957Y-57754819D02*
X148120814Y-57802438D01*
X148120814Y-57802438D02*
X148168433Y-57850057D01*
X149025576Y-58088152D02*
X149025576Y-58754819D01*
X148787481Y-57707200D02*
X148549386Y-58421485D01*
X148549386Y-58421485D02*
X149168433Y-58421485D01*
X104280057Y-65255238D02*
X104232438Y-65350476D01*
X104232438Y-65350476D02*
X104137200Y-65445714D01*
X104137200Y-65445714D02*
X103994342Y-65588571D01*
X103994342Y-65588571D02*
X103946723Y-65683809D01*
X103946723Y-65683809D02*
X103946723Y-65779047D01*
X104184819Y-65731428D02*
X104137200Y-65826666D01*
X104137200Y-65826666D02*
X104041961Y-65921904D01*
X104041961Y-65921904D02*
X103851485Y-65969523D01*
X103851485Y-65969523D02*
X103518152Y-65969523D01*
X103518152Y-65969523D02*
X103327676Y-65921904D01*
X103327676Y-65921904D02*
X103232438Y-65826666D01*
X103232438Y-65826666D02*
X103184819Y-65731428D01*
X103184819Y-65731428D02*
X103184819Y-65540952D01*
X103184819Y-65540952D02*
X103232438Y-65445714D01*
X103232438Y-65445714D02*
X103327676Y-65350476D01*
X103327676Y-65350476D02*
X103518152Y-65302857D01*
X103518152Y-65302857D02*
X103851485Y-65302857D01*
X103851485Y-65302857D02*
X104041961Y-65350476D01*
X104041961Y-65350476D02*
X104137200Y-65445714D01*
X104137200Y-65445714D02*
X104184819Y-65540952D01*
X104184819Y-65540952D02*
X104184819Y-65731428D01*
X104184819Y-64350476D02*
X104184819Y-64921904D01*
X104184819Y-64636190D02*
X103184819Y-64636190D01*
X103184819Y-64636190D02*
X103327676Y-64731428D01*
X103327676Y-64731428D02*
X103422914Y-64826666D01*
X103422914Y-64826666D02*
X103470533Y-64921904D01*
X151574819Y-57711904D02*
X152384342Y-57711904D01*
X152384342Y-57711904D02*
X152479580Y-57664285D01*
X152479580Y-57664285D02*
X152527200Y-57616666D01*
X152527200Y-57616666D02*
X152574819Y-57521428D01*
X152574819Y-57521428D02*
X152574819Y-57330952D01*
X152574819Y-57330952D02*
X152527200Y-57235714D01*
X152527200Y-57235714D02*
X152479580Y-57188095D01*
X152479580Y-57188095D02*
X152384342Y-57140476D01*
X152384342Y-57140476D02*
X151574819Y-57140476D01*
X151670057Y-56711904D02*
X151622438Y-56664285D01*
X151622438Y-56664285D02*
X151574819Y-56569047D01*
X151574819Y-56569047D02*
X151574819Y-56330952D01*
X151574819Y-56330952D02*
X151622438Y-56235714D01*
X151622438Y-56235714D02*
X151670057Y-56188095D01*
X151670057Y-56188095D02*
X151765295Y-56140476D01*
X151765295Y-56140476D02*
X151860533Y-56140476D01*
X151860533Y-56140476D02*
X152003390Y-56188095D01*
X152003390Y-56188095D02*
X152574819Y-56759523D01*
X152574819Y-56759523D02*
X152574819Y-56140476D01*
X146161905Y-70454819D02*
X146161905Y-69454819D01*
X146161905Y-69454819D02*
X146400000Y-69454819D01*
X146400000Y-69454819D02*
X146542857Y-69502438D01*
X146542857Y-69502438D02*
X146638095Y-69597676D01*
X146638095Y-69597676D02*
X146685714Y-69692914D01*
X146685714Y-69692914D02*
X146733333Y-69883390D01*
X146733333Y-69883390D02*
X146733333Y-70026247D01*
X146733333Y-70026247D02*
X146685714Y-70216723D01*
X146685714Y-70216723D02*
X146638095Y-70311961D01*
X146638095Y-70311961D02*
X146542857Y-70407200D01*
X146542857Y-70407200D02*
X146400000Y-70454819D01*
X146400000Y-70454819D02*
X146161905Y-70454819D01*
X147590476Y-69454819D02*
X147400000Y-69454819D01*
X147400000Y-69454819D02*
X147304762Y-69502438D01*
X147304762Y-69502438D02*
X147257143Y-69550057D01*
X147257143Y-69550057D02*
X147161905Y-69692914D01*
X147161905Y-69692914D02*
X147114286Y-69883390D01*
X147114286Y-69883390D02*
X147114286Y-70264342D01*
X147114286Y-70264342D02*
X147161905Y-70359580D01*
X147161905Y-70359580D02*
X147209524Y-70407200D01*
X147209524Y-70407200D02*
X147304762Y-70454819D01*
X147304762Y-70454819D02*
X147495238Y-70454819D01*
X147495238Y-70454819D02*
X147590476Y-70407200D01*
X147590476Y-70407200D02*
X147638095Y-70359580D01*
X147638095Y-70359580D02*
X147685714Y-70264342D01*
X147685714Y-70264342D02*
X147685714Y-70026247D01*
X147685714Y-70026247D02*
X147638095Y-69931009D01*
X147638095Y-69931009D02*
X147590476Y-69883390D01*
X147590476Y-69883390D02*
X147495238Y-69835771D01*
X147495238Y-69835771D02*
X147304762Y-69835771D01*
X147304762Y-69835771D02*
X147209524Y-69883390D01*
X147209524Y-69883390D02*
X147161905Y-69931009D01*
X147161905Y-69931009D02*
X147114286Y-70026247D01*
X125654819Y-62386666D02*
X125178628Y-62719999D01*
X125654819Y-62958094D02*
X124654819Y-62958094D01*
X124654819Y-62958094D02*
X124654819Y-62577142D01*
X124654819Y-62577142D02*
X124702438Y-62481904D01*
X124702438Y-62481904D02*
X124750057Y-62434285D01*
X124750057Y-62434285D02*
X124845295Y-62386666D01*
X124845295Y-62386666D02*
X124988152Y-62386666D01*
X124988152Y-62386666D02*
X125083390Y-62434285D01*
X125083390Y-62434285D02*
X125131009Y-62481904D01*
X125131009Y-62481904D02*
X125178628Y-62577142D01*
X125178628Y-62577142D02*
X125178628Y-62958094D01*
X124654819Y-61529523D02*
X124654819Y-61719999D01*
X124654819Y-61719999D02*
X124702438Y-61815237D01*
X124702438Y-61815237D02*
X124750057Y-61862856D01*
X124750057Y-61862856D02*
X124892914Y-61958094D01*
X124892914Y-61958094D02*
X125083390Y-62005713D01*
X125083390Y-62005713D02*
X125464342Y-62005713D01*
X125464342Y-62005713D02*
X125559580Y-61958094D01*
X125559580Y-61958094D02*
X125607200Y-61910475D01*
X125607200Y-61910475D02*
X125654819Y-61815237D01*
X125654819Y-61815237D02*
X125654819Y-61624761D01*
X125654819Y-61624761D02*
X125607200Y-61529523D01*
X125607200Y-61529523D02*
X125559580Y-61481904D01*
X125559580Y-61481904D02*
X125464342Y-61434285D01*
X125464342Y-61434285D02*
X125226247Y-61434285D01*
X125226247Y-61434285D02*
X125131009Y-61481904D01*
X125131009Y-61481904D02*
X125083390Y-61529523D01*
X125083390Y-61529523D02*
X125035771Y-61624761D01*
X125035771Y-61624761D02*
X125035771Y-61815237D01*
X125035771Y-61815237D02*
X125083390Y-61910475D01*
X125083390Y-61910475D02*
X125131009Y-61958094D01*
X125131009Y-61958094D02*
X125226247Y-62005713D01*
X154683333Y-79254819D02*
X154350000Y-78778628D01*
X154111905Y-79254819D02*
X154111905Y-78254819D01*
X154111905Y-78254819D02*
X154492857Y-78254819D01*
X154492857Y-78254819D02*
X154588095Y-78302438D01*
X154588095Y-78302438D02*
X154635714Y-78350057D01*
X154635714Y-78350057D02*
X154683333Y-78445295D01*
X154683333Y-78445295D02*
X154683333Y-78588152D01*
X154683333Y-78588152D02*
X154635714Y-78683390D01*
X154635714Y-78683390D02*
X154588095Y-78731009D01*
X154588095Y-78731009D02*
X154492857Y-78778628D01*
X154492857Y-78778628D02*
X154111905Y-78778628D01*
X155588095Y-78254819D02*
X155111905Y-78254819D01*
X155111905Y-78254819D02*
X155064286Y-78731009D01*
X155064286Y-78731009D02*
X155111905Y-78683390D01*
X155111905Y-78683390D02*
X155207143Y-78635771D01*
X155207143Y-78635771D02*
X155445238Y-78635771D01*
X155445238Y-78635771D02*
X155540476Y-78683390D01*
X155540476Y-78683390D02*
X155588095Y-78731009D01*
X155588095Y-78731009D02*
X155635714Y-78826247D01*
X155635714Y-78826247D02*
X155635714Y-79064342D01*
X155635714Y-79064342D02*
X155588095Y-79159580D01*
X155588095Y-79159580D02*
X155540476Y-79207200D01*
X155540476Y-79207200D02*
X155445238Y-79254819D01*
X155445238Y-79254819D02*
X155207143Y-79254819D01*
X155207143Y-79254819D02*
X155111905Y-79207200D01*
X155111905Y-79207200D02*
X155064286Y-79159580D01*
D11*
X126610000Y-98790000D02*
X126610000Y-97460000D01*
X127940000Y-98790000D02*
X126610000Y-98790000D01*
X129210000Y-98790000D02*
X147050000Y-98790000D01*
X129210000Y-98790000D02*
X129210000Y-96130000D01*
X147050000Y-98790000D02*
X147050000Y-96130000D01*
X129210000Y-96130000D02*
X147050000Y-96130000D01*
X149470000Y-98790000D02*
X149470000Y-97460000D01*
X150800000Y-98790000D02*
X149470000Y-98790000D01*
X152070000Y-98790000D02*
X164830000Y-98790000D01*
X152070000Y-98790000D02*
X152070000Y-96130000D01*
X164830000Y-98790000D02*
X164830000Y-96130000D01*
X152070000Y-96130000D02*
X164830000Y-96130000D01*
X144390000Y-50530000D02*
X144390000Y-49200000D01*
X145720000Y-50530000D02*
X144390000Y-50530000D01*
X146990000Y-50530000D02*
X164830000Y-50530000D01*
X146990000Y-50530000D02*
X146990000Y-47870000D01*
X164830000Y-50530000D02*
X164830000Y-47870000D01*
X146990000Y-47870000D02*
X164830000Y-47870000D01*
X124500000Y-74700000D02*
X137100000Y-74700000D01*
X124500000Y-77700000D02*
X124500000Y-74700000D01*
X124500000Y-87300000D02*
X124500000Y-84300000D01*
X137100000Y-74700000D02*
X137100000Y-77700000D01*
X137100000Y-84300000D02*
X137100000Y-87300000D01*
X137100000Y-87300000D02*
X124500000Y-87300000D01*
X102990000Y-98210000D02*
X110610000Y-98210000D01*
X110610000Y-98210000D02*
X110610000Y-88050000D01*
X102990000Y-88050000D02*
X102990000Y-98210000D01*
X109340000Y-88050000D02*
X109340000Y-98210000D01*
X110610000Y-88050000D02*
X102990000Y-88050000D01*
X120340000Y-85730000D02*
X123640000Y-85730000D01*
X120340000Y-85730000D02*
X120340000Y-78720000D01*
X123640000Y-85730000D02*
X123640000Y-78720000D01*
X121660000Y-55100000D02*
X120640000Y-55100000D01*
X120640000Y-56570000D02*
X120640000Y-53630000D01*
X120640000Y-53630000D02*
X115200000Y-53630000D01*
X119860000Y-56570000D02*
X119860000Y-53630000D01*
X119740000Y-56570000D02*
X119740000Y-53630000D01*
X119620000Y-56570000D02*
X119620000Y-53630000D01*
X115200000Y-56570000D02*
X120640000Y-56570000D01*
X115200000Y-53630000D02*
X115200000Y-56570000D01*
X114180000Y-55100000D02*
X115200000Y-55100000D01*
X121240000Y-69800000D02*
X122010000Y-69800000D01*
X122010000Y-68430000D02*
X122010000Y-71170000D01*
X122010000Y-71170000D02*
X128550000Y-71170000D01*
X128550000Y-68430000D02*
X122010000Y-68430000D01*
X128550000Y-71170000D02*
X128550000Y-68430000D01*
X129320000Y-69800000D02*
X128550000Y-69800000D01*
X115240000Y-73200000D02*
X114470000Y-73200000D01*
X114470000Y-74570000D02*
X114470000Y-71830000D01*
X114470000Y-71830000D02*
X107930000Y-71830000D01*
X107930000Y-74570000D02*
X114470000Y-74570000D01*
X107930000Y-71830000D02*
X107930000Y-74570000D01*
X107160000Y-73200000D02*
X107930000Y-73200000D01*
X114140000Y-58590000D02*
X114910000Y-58590000D01*
X114910000Y-57220000D02*
X114910000Y-59960000D01*
X114910000Y-59960000D02*
X121450000Y-59960000D01*
X121450000Y-57220000D02*
X114910000Y-57220000D01*
X121450000Y-59960000D02*
X121450000Y-57220000D01*
X122220000Y-58590000D02*
X121450000Y-58590000D01*
X118625000Y-98079646D02*
X118625000Y-97079646D01*
X118125000Y-97579646D02*
X119125000Y-97579646D01*
X116420000Y-92600000D02*
X126580000Y-92600000D01*
X116420000Y-92560000D02*
X126580000Y-92560000D01*
X116420000Y-92520000D02*
X126580000Y-92520000D01*
X116421000Y-92480000D02*
X126579000Y-92480000D01*
X116422000Y-92440000D02*
X126578000Y-92440000D01*
X116423000Y-92400000D02*
X126577000Y-92400000D01*
X116425000Y-92360000D02*
X126575000Y-92360000D01*
X116427000Y-92320000D02*
X126573000Y-92320000D01*
X116430000Y-92280000D02*
X126570000Y-92280000D01*
X116432000Y-92240000D02*
X126568000Y-92240000D01*
X116435000Y-92200000D02*
X126565000Y-92200000D01*
X116438000Y-92160000D02*
X126562000Y-92160000D01*
X116442000Y-92120000D02*
X126558000Y-92120000D01*
X116446000Y-92080000D02*
X126554000Y-92080000D01*
X116450000Y-92040000D02*
X126550000Y-92040000D01*
X116455000Y-92000000D02*
X126545000Y-92000000D01*
X116460000Y-91960000D02*
X126540000Y-91960000D01*
X116465000Y-91920000D02*
X126535000Y-91920000D01*
X116470000Y-91879000D02*
X126530000Y-91879000D01*
X116476000Y-91839000D02*
X126524000Y-91839000D01*
X116482000Y-91799000D02*
X126518000Y-91799000D01*
X116489000Y-91759000D02*
X126511000Y-91759000D01*
X116496000Y-91719000D02*
X126504000Y-91719000D01*
X116503000Y-91679000D02*
X126497000Y-91679000D01*
X116510000Y-91639000D02*
X126490000Y-91639000D01*
X116518000Y-91599000D02*
X126482000Y-91599000D01*
X116526000Y-91559000D02*
X126474000Y-91559000D01*
X116535000Y-91519000D02*
X126465000Y-91519000D01*
X116544000Y-91479000D02*
X126456000Y-91479000D01*
X116553000Y-91439000D02*
X126447000Y-91439000D01*
X116562000Y-91399000D02*
X126438000Y-91399000D01*
X116572000Y-91359000D02*
X126428000Y-91359000D01*
X116582000Y-91319000D02*
X120259000Y-91319000D01*
X122741000Y-91319000D02*
X126418000Y-91319000D01*
X116593000Y-91279000D02*
X120259000Y-91279000D01*
X122741000Y-91279000D02*
X126407000Y-91279000D01*
X116603000Y-91239000D02*
X120259000Y-91239000D01*
X122741000Y-91239000D02*
X126397000Y-91239000D01*
X116615000Y-91199000D02*
X120259000Y-91199000D01*
X122741000Y-91199000D02*
X126385000Y-91199000D01*
X116626000Y-91159000D02*
X120259000Y-91159000D01*
X122741000Y-91159000D02*
X126374000Y-91159000D01*
X116638000Y-91119000D02*
X120259000Y-91119000D01*
X122741000Y-91119000D02*
X126362000Y-91119000D01*
X116650000Y-91079000D02*
X120259000Y-91079000D01*
X122741000Y-91079000D02*
X126350000Y-91079000D01*
X116663000Y-91039000D02*
X120259000Y-91039000D01*
X122741000Y-91039000D02*
X126337000Y-91039000D01*
X116676000Y-90999000D02*
X120259000Y-90999000D01*
X122741000Y-90999000D02*
X126324000Y-90999000D01*
X116689000Y-90959000D02*
X120259000Y-90959000D01*
X122741000Y-90959000D02*
X126311000Y-90959000D01*
X116703000Y-90919000D02*
X120259000Y-90919000D01*
X122741000Y-90919000D02*
X126297000Y-90919000D01*
X116717000Y-90879000D02*
X120259000Y-90879000D01*
X122741000Y-90879000D02*
X126283000Y-90879000D01*
X116732000Y-90839000D02*
X120259000Y-90839000D01*
X122741000Y-90839000D02*
X126268000Y-90839000D01*
X116746000Y-90799000D02*
X120259000Y-90799000D01*
X122741000Y-90799000D02*
X126254000Y-90799000D01*
X116762000Y-90759000D02*
X120259000Y-90759000D01*
X122741000Y-90759000D02*
X126238000Y-90759000D01*
X116777000Y-90719000D02*
X120259000Y-90719000D01*
X122741000Y-90719000D02*
X126223000Y-90719000D01*
X116793000Y-90679000D02*
X120259000Y-90679000D01*
X122741000Y-90679000D02*
X126207000Y-90679000D01*
X116810000Y-90639000D02*
X120259000Y-90639000D01*
X122741000Y-90639000D02*
X126190000Y-90639000D01*
X116826000Y-90599000D02*
X120259000Y-90599000D01*
X122741000Y-90599000D02*
X126174000Y-90599000D01*
X116843000Y-90559000D02*
X120259000Y-90559000D01*
X122741000Y-90559000D02*
X126157000Y-90559000D01*
X116861000Y-90519000D02*
X120259000Y-90519000D01*
X122741000Y-90519000D02*
X126139000Y-90519000D01*
X116879000Y-90479000D02*
X120259000Y-90479000D01*
X122741000Y-90479000D02*
X126121000Y-90479000D01*
X116897000Y-90439000D02*
X120259000Y-90439000D01*
X122741000Y-90439000D02*
X126103000Y-90439000D01*
X116916000Y-90399000D02*
X120259000Y-90399000D01*
X122741000Y-90399000D02*
X126084000Y-90399000D01*
X116936000Y-90359000D02*
X120259000Y-90359000D01*
X122741000Y-90359000D02*
X126064000Y-90359000D01*
X116955000Y-90319000D02*
X120259000Y-90319000D01*
X122741000Y-90319000D02*
X126045000Y-90319000D01*
X116975000Y-90279000D02*
X120259000Y-90279000D01*
X122741000Y-90279000D02*
X126025000Y-90279000D01*
X116996000Y-90239000D02*
X120259000Y-90239000D01*
X122741000Y-90239000D02*
X126004000Y-90239000D01*
X117017000Y-90199000D02*
X120259000Y-90199000D01*
X122741000Y-90199000D02*
X125983000Y-90199000D01*
X117038000Y-90159000D02*
X120259000Y-90159000D01*
X122741000Y-90159000D02*
X125962000Y-90159000D01*
X117060000Y-90119000D02*
X120259000Y-90119000D01*
X122741000Y-90119000D02*
X125940000Y-90119000D01*
X117083000Y-90079000D02*
X120259000Y-90079000D01*
X122741000Y-90079000D02*
X125917000Y-90079000D01*
X117105000Y-90039000D02*
X120259000Y-90039000D01*
X122741000Y-90039000D02*
X125895000Y-90039000D01*
X117129000Y-89999000D02*
X120259000Y-89999000D01*
X122741000Y-89999000D02*
X125871000Y-89999000D01*
X117153000Y-89959000D02*
X120259000Y-89959000D01*
X122741000Y-89959000D02*
X125847000Y-89959000D01*
X117177000Y-89919000D02*
X120259000Y-89919000D01*
X122741000Y-89919000D02*
X125823000Y-89919000D01*
X117202000Y-89879000D02*
X120259000Y-89879000D01*
X122741000Y-89879000D02*
X125798000Y-89879000D01*
X117227000Y-89839000D02*
X120259000Y-89839000D01*
X122741000Y-89839000D02*
X125773000Y-89839000D01*
X117253000Y-89799000D02*
X120259000Y-89799000D01*
X122741000Y-89799000D02*
X125747000Y-89799000D01*
X117279000Y-89759000D02*
X120259000Y-89759000D01*
X122741000Y-89759000D02*
X125721000Y-89759000D01*
X117306000Y-89719000D02*
X120259000Y-89719000D01*
X122741000Y-89719000D02*
X125694000Y-89719000D01*
X117334000Y-89679000D02*
X120259000Y-89679000D01*
X122741000Y-89679000D02*
X125666000Y-89679000D01*
X117362000Y-89639000D02*
X120259000Y-89639000D01*
X122741000Y-89639000D02*
X125638000Y-89639000D01*
X117390000Y-89599000D02*
X120259000Y-89599000D01*
X122741000Y-89599000D02*
X125610000Y-89599000D01*
X117420000Y-89559000D02*
X120259000Y-89559000D01*
X122741000Y-89559000D02*
X125580000Y-89559000D01*
X117450000Y-89519000D02*
X120259000Y-89519000D01*
X122741000Y-89519000D02*
X125550000Y-89519000D01*
X117480000Y-89479000D02*
X120259000Y-89479000D01*
X122741000Y-89479000D02*
X125520000Y-89479000D01*
X117511000Y-89439000D02*
X120259000Y-89439000D01*
X122741000Y-89439000D02*
X125489000Y-89439000D01*
X117543000Y-89399000D02*
X120259000Y-89399000D01*
X122741000Y-89399000D02*
X125457000Y-89399000D01*
X117575000Y-89359000D02*
X120259000Y-89359000D01*
X122741000Y-89359000D02*
X125425000Y-89359000D01*
X117608000Y-89319000D02*
X120259000Y-89319000D01*
X122741000Y-89319000D02*
X125392000Y-89319000D01*
X117642000Y-89279000D02*
X120259000Y-89279000D01*
X122741000Y-89279000D02*
X125358000Y-89279000D01*
X117676000Y-89239000D02*
X120259000Y-89239000D01*
X122741000Y-89239000D02*
X125324000Y-89239000D01*
X117711000Y-89199000D02*
X120259000Y-89199000D01*
X122741000Y-89199000D02*
X125289000Y-89199000D01*
X117747000Y-89159000D02*
X120259000Y-89159000D01*
X122741000Y-89159000D02*
X125253000Y-89159000D01*
X117784000Y-89119000D02*
X120259000Y-89119000D01*
X122741000Y-89119000D02*
X125216000Y-89119000D01*
X117821000Y-89079000D02*
X120259000Y-89079000D01*
X122741000Y-89079000D02*
X125179000Y-89079000D01*
X117860000Y-89039000D02*
X120259000Y-89039000D01*
X122741000Y-89039000D02*
X125140000Y-89039000D01*
X117899000Y-88999000D02*
X120259000Y-88999000D01*
X122741000Y-88999000D02*
X125101000Y-88999000D01*
X117939000Y-88959000D02*
X120259000Y-88959000D01*
X122741000Y-88959000D02*
X125061000Y-88959000D01*
X117980000Y-88919000D02*
X120259000Y-88919000D01*
X122741000Y-88919000D02*
X125020000Y-88919000D01*
X118022000Y-88879000D02*
X120259000Y-88879000D01*
X122741000Y-88879000D02*
X124978000Y-88879000D01*
X118064000Y-88839000D02*
X124936000Y-88839000D01*
X118108000Y-88799000D02*
X124892000Y-88799000D01*
X118153000Y-88759000D02*
X124847000Y-88759000D01*
X118199000Y-88719000D02*
X124801000Y-88719000D01*
X118246000Y-88679000D02*
X124754000Y-88679000D01*
X118294000Y-88639000D02*
X124706000Y-88639000D01*
X118344000Y-88599000D02*
X124656000Y-88599000D01*
X118394000Y-88559000D02*
X124606000Y-88559000D01*
X118446000Y-88519000D02*
X124554000Y-88519000D01*
X118500000Y-88479000D02*
X124500000Y-88479000D01*
X118555000Y-88439000D02*
X124445000Y-88439000D01*
X118611000Y-88399000D02*
X124389000Y-88399000D01*
X118670000Y-88359000D02*
X124330000Y-88359000D01*
X118730000Y-88319000D02*
X124270000Y-88319000D01*
X118791000Y-88279000D02*
X124209000Y-88279000D01*
X118855000Y-88239000D02*
X124145000Y-88239000D01*
X118921000Y-88199000D02*
X124079000Y-88199000D01*
X118990000Y-88159000D02*
X124010000Y-88159000D01*
X119061000Y-88119000D02*
X123939000Y-88119000D01*
X119135000Y-88079000D02*
X123865000Y-88079000D01*
X119211000Y-88039000D02*
X123789000Y-88039000D01*
X119291000Y-87999000D02*
X123709000Y-87999000D01*
X119375000Y-87959000D02*
X123625000Y-87959000D01*
X119463000Y-87919000D02*
X123537000Y-87919000D01*
X119556000Y-87879000D02*
X123444000Y-87879000D01*
X119654000Y-87839000D02*
X123346000Y-87839000D01*
X119758000Y-87799000D02*
X123242000Y-87799000D01*
X119870000Y-87759000D02*
X123130000Y-87759000D01*
X119990000Y-87719000D02*
X123010000Y-87719000D01*
X120122000Y-87679000D02*
X122878000Y-87679000D01*
X120270000Y-87639000D02*
X122730000Y-87639000D01*
X120438000Y-87599000D02*
X122562000Y-87599000D01*
X120638000Y-87559000D02*
X122362000Y-87559000D01*
X120901000Y-87519000D02*
X122099000Y-87519000D01*
X126620000Y-92600000D02*
G75*
G03*
X126620000Y-92600000I-5120000J0D01*
G01*
X137740302Y-88785000D02*
X138540302Y-88785000D01*
X138140302Y-88385000D02*
X138140302Y-89185000D01*
X142150000Y-87020000D02*
X142150000Y-95180000D01*
X142190000Y-87020000D02*
X142190000Y-95180000D01*
X142230000Y-87020000D02*
X142230000Y-95180000D01*
X142270000Y-87021000D02*
X142270000Y-95179000D01*
X142310000Y-87023000D02*
X142310000Y-95177000D01*
X142350000Y-87024000D02*
X142350000Y-95176000D01*
X142390000Y-87026000D02*
X142390000Y-95174000D01*
X142430000Y-87029000D02*
X142430000Y-95171000D01*
X142470000Y-87032000D02*
X142470000Y-95168000D01*
X142510000Y-87035000D02*
X142510000Y-95165000D01*
X142550000Y-87039000D02*
X142550000Y-95161000D01*
X142590000Y-87043000D02*
X142590000Y-95157000D01*
X142630000Y-87048000D02*
X142630000Y-95152000D01*
X142670000Y-87052000D02*
X142670000Y-95148000D01*
X142710000Y-87058000D02*
X142710000Y-95142000D01*
X142750000Y-87063000D02*
X142750000Y-95137000D01*
X142790000Y-87070000D02*
X142790000Y-95130000D01*
X142830000Y-87076000D02*
X142830000Y-95124000D01*
X142871000Y-87083000D02*
X142871000Y-90060000D01*
X142871000Y-92140000D02*
X142871000Y-95117000D01*
X142911000Y-87090000D02*
X142911000Y-90060000D01*
X142911000Y-92140000D02*
X142911000Y-95110000D01*
X142951000Y-87098000D02*
X142951000Y-90060000D01*
X142951000Y-92140000D02*
X142951000Y-95102000D01*
X142991000Y-87106000D02*
X142991000Y-90060000D01*
X142991000Y-92140000D02*
X142991000Y-95094000D01*
X143031000Y-87115000D02*
X143031000Y-90060000D01*
X143031000Y-92140000D02*
X143031000Y-95085000D01*
X143071000Y-87124000D02*
X143071000Y-90060000D01*
X143071000Y-92140000D02*
X143071000Y-95076000D01*
X143111000Y-87133000D02*
X143111000Y-90060000D01*
X143111000Y-92140000D02*
X143111000Y-95067000D01*
X143151000Y-87143000D02*
X143151000Y-90060000D01*
X143151000Y-92140000D02*
X143151000Y-95057000D01*
X143191000Y-87153000D02*
X143191000Y-90060000D01*
X143191000Y-92140000D02*
X143191000Y-95047000D01*
X143231000Y-87164000D02*
X143231000Y-90060000D01*
X143231000Y-92140000D02*
X143231000Y-95036000D01*
X143271000Y-87175000D02*
X143271000Y-90060000D01*
X143271000Y-92140000D02*
X143271000Y-95025000D01*
X143311000Y-87186000D02*
X143311000Y-90060000D01*
X143311000Y-92140000D02*
X143311000Y-95014000D01*
X143351000Y-87198000D02*
X143351000Y-90060000D01*
X143351000Y-92140000D02*
X143351000Y-95002000D01*
X143391000Y-87211000D02*
X143391000Y-90060000D01*
X143391000Y-92140000D02*
X143391000Y-94989000D01*
X143431000Y-87223000D02*
X143431000Y-90060000D01*
X143431000Y-92140000D02*
X143431000Y-94977000D01*
X143471000Y-87237000D02*
X143471000Y-90060000D01*
X143471000Y-92140000D02*
X143471000Y-94963000D01*
X143511000Y-87250000D02*
X143511000Y-90060000D01*
X143511000Y-92140000D02*
X143511000Y-94950000D01*
X143551000Y-87265000D02*
X143551000Y-90060000D01*
X143551000Y-92140000D02*
X143551000Y-94935000D01*
X143591000Y-87279000D02*
X143591000Y-90060000D01*
X143591000Y-92140000D02*
X143591000Y-94921000D01*
X143631000Y-87295000D02*
X143631000Y-90060000D01*
X143631000Y-92140000D02*
X143631000Y-94905000D01*
X143671000Y-87310000D02*
X143671000Y-90060000D01*
X143671000Y-92140000D02*
X143671000Y-94890000D01*
X143711000Y-87326000D02*
X143711000Y-90060000D01*
X143711000Y-92140000D02*
X143711000Y-94874000D01*
X143751000Y-87343000D02*
X143751000Y-90060000D01*
X143751000Y-92140000D02*
X143751000Y-94857000D01*
X143791000Y-87360000D02*
X143791000Y-90060000D01*
X143791000Y-92140000D02*
X143791000Y-94840000D01*
X143831000Y-87378000D02*
X143831000Y-90060000D01*
X143831000Y-92140000D02*
X143831000Y-94822000D01*
X143871000Y-87396000D02*
X143871000Y-90060000D01*
X143871000Y-92140000D02*
X143871000Y-94804000D01*
X143911000Y-87414000D02*
X143911000Y-90060000D01*
X143911000Y-92140000D02*
X143911000Y-94786000D01*
X143951000Y-87434000D02*
X143951000Y-90060000D01*
X143951000Y-92140000D02*
X143951000Y-94766000D01*
X143991000Y-87453000D02*
X143991000Y-90060000D01*
X143991000Y-92140000D02*
X143991000Y-94747000D01*
X144031000Y-87473000D02*
X144031000Y-90060000D01*
X144031000Y-92140000D02*
X144031000Y-94727000D01*
X144071000Y-87494000D02*
X144071000Y-90060000D01*
X144071000Y-92140000D02*
X144071000Y-94706000D01*
X144111000Y-87516000D02*
X144111000Y-90060000D01*
X144111000Y-92140000D02*
X144111000Y-94684000D01*
X144151000Y-87538000D02*
X144151000Y-90060000D01*
X144151000Y-92140000D02*
X144151000Y-94662000D01*
X144191000Y-87560000D02*
X144191000Y-90060000D01*
X144191000Y-92140000D02*
X144191000Y-94640000D01*
X144231000Y-87583000D02*
X144231000Y-90060000D01*
X144231000Y-92140000D02*
X144231000Y-94617000D01*
X144271000Y-87607000D02*
X144271000Y-90060000D01*
X144271000Y-92140000D02*
X144271000Y-94593000D01*
X144311000Y-87631000D02*
X144311000Y-90060000D01*
X144311000Y-92140000D02*
X144311000Y-94569000D01*
X144351000Y-87656000D02*
X144351000Y-90060000D01*
X144351000Y-92140000D02*
X144351000Y-94544000D01*
X144391000Y-87682000D02*
X144391000Y-90060000D01*
X144391000Y-92140000D02*
X144391000Y-94518000D01*
X144431000Y-87708000D02*
X144431000Y-90060000D01*
X144431000Y-92140000D02*
X144431000Y-94492000D01*
X144471000Y-87735000D02*
X144471000Y-90060000D01*
X144471000Y-92140000D02*
X144471000Y-94465000D01*
X144511000Y-87762000D02*
X144511000Y-90060000D01*
X144511000Y-92140000D02*
X144511000Y-94438000D01*
X144551000Y-87791000D02*
X144551000Y-90060000D01*
X144551000Y-92140000D02*
X144551000Y-94409000D01*
X144591000Y-87820000D02*
X144591000Y-90060000D01*
X144591000Y-92140000D02*
X144591000Y-94380000D01*
X144631000Y-87850000D02*
X144631000Y-90060000D01*
X144631000Y-92140000D02*
X144631000Y-94350000D01*
X144671000Y-87880000D02*
X144671000Y-90060000D01*
X144671000Y-92140000D02*
X144671000Y-94320000D01*
X144711000Y-87911000D02*
X144711000Y-90060000D01*
X144711000Y-92140000D02*
X144711000Y-94289000D01*
X144751000Y-87944000D02*
X144751000Y-90060000D01*
X144751000Y-92140000D02*
X144751000Y-94256000D01*
X144791000Y-87976000D02*
X144791000Y-90060000D01*
X144791000Y-92140000D02*
X144791000Y-94224000D01*
X144831000Y-88010000D02*
X144831000Y-90060000D01*
X144831000Y-92140000D02*
X144831000Y-94190000D01*
X144871000Y-88045000D02*
X144871000Y-90060000D01*
X144871000Y-92140000D02*
X144871000Y-94155000D01*
X144911000Y-88081000D02*
X144911000Y-90060000D01*
X144911000Y-92140000D02*
X144911000Y-94119000D01*
X144951000Y-88117000D02*
X144951000Y-94083000D01*
X144991000Y-88155000D02*
X144991000Y-94045000D01*
X145031000Y-88193000D02*
X145031000Y-94007000D01*
X145071000Y-88233000D02*
X145071000Y-93967000D01*
X145111000Y-88274000D02*
X145111000Y-93926000D01*
X145151000Y-88316000D02*
X145151000Y-93884000D01*
X145191000Y-88359000D02*
X145191000Y-93841000D01*
X145231000Y-88403000D02*
X145231000Y-93797000D01*
X145271000Y-88449000D02*
X145271000Y-93751000D01*
X145311000Y-88496000D02*
X145311000Y-93704000D01*
X145351000Y-88544000D02*
X145351000Y-93656000D01*
X145391000Y-88595000D02*
X145391000Y-93605000D01*
X145431000Y-88646000D02*
X145431000Y-93554000D01*
X145471000Y-88700000D02*
X145471000Y-93500000D01*
X145511000Y-88755000D02*
X145511000Y-93445000D01*
X145551000Y-88813000D02*
X145551000Y-93387000D01*
X145591000Y-88872000D02*
X145591000Y-93328000D01*
X145631000Y-88934000D02*
X145631000Y-93266000D01*
X145671000Y-88998000D02*
X145671000Y-93202000D01*
X145711000Y-89066000D02*
X145711000Y-93134000D01*
X145751000Y-89136000D02*
X145751000Y-93064000D01*
X145791000Y-89210000D02*
X145791000Y-92990000D01*
X145831000Y-89287000D02*
X145831000Y-92913000D01*
X145871000Y-89369000D02*
X145871000Y-92831000D01*
X145911000Y-89455000D02*
X145911000Y-92745000D01*
X145951000Y-89548000D02*
X145951000Y-92652000D01*
X145991000Y-89647000D02*
X145991000Y-92553000D01*
X146031000Y-89754000D02*
X146031000Y-92446000D01*
X146071000Y-89871000D02*
X146071000Y-92329000D01*
X146111000Y-90002000D02*
X146111000Y-92198000D01*
X146151000Y-90152000D02*
X146151000Y-92048000D01*
X146191000Y-90332000D02*
X146191000Y-91868000D01*
X146231000Y-90567000D02*
X146231000Y-91633000D01*
X146270000Y-91100000D02*
G75*
G03*
X146270000Y-91100000I-4120000J0D01*
G01*
X114285000Y-85980000D02*
X114285000Y-85030000D01*
X114285000Y-85030000D02*
X119410000Y-85030000D01*
X114285000Y-76530000D02*
X115385000Y-76530000D01*
X114285000Y-75580000D02*
X114285000Y-76530000D01*
X112785000Y-85980000D02*
X114285000Y-85980000D01*
X112785000Y-75580000D02*
X114285000Y-75580000D01*
X133840000Y-72700000D02*
X134610000Y-72700000D01*
X134610000Y-71330000D02*
X134610000Y-74070000D01*
X134610000Y-74070000D02*
X141150000Y-74070000D01*
X141150000Y-71330000D02*
X134610000Y-71330000D01*
X141150000Y-74070000D02*
X141150000Y-71330000D01*
X141920000Y-72700000D02*
X141150000Y-72700000D01*
X154300000Y-81540000D02*
X154300000Y-82310000D01*
X155670000Y-82310000D02*
X152930000Y-82310000D01*
X152930000Y-82310000D02*
X152930000Y-88850000D01*
X155670000Y-88850000D02*
X155670000Y-82310000D01*
X152930000Y-88850000D02*
X155670000Y-88850000D01*
X154300000Y-89620000D02*
X154300000Y-88850000D01*
X151300000Y-75860000D02*
X151300000Y-75090000D01*
X149930000Y-75090000D02*
X152670000Y-75090000D01*
X152670000Y-75090000D02*
X152670000Y-68550000D01*
X149930000Y-68550000D02*
X149930000Y-75090000D01*
X152670000Y-68550000D02*
X149930000Y-68550000D01*
X151300000Y-67780000D02*
X151300000Y-68550000D01*
X145640000Y-86230000D02*
X145640000Y-75950000D01*
X145640000Y-75950000D02*
X141140000Y-75950000D01*
X144390000Y-86230000D02*
X145640000Y-86230000D01*
X141140000Y-86230000D02*
X142390000Y-86230000D01*
X141140000Y-75950000D02*
X141140000Y-86230000D01*
X144390000Y-86230000D02*
G75*
G03*
X142390000Y-86230000I-1000000J0D01*
G01*
X165110000Y-63460000D02*
X165110000Y-78700000D01*
X158760000Y-63460000D02*
X158760000Y-78700000D01*
X157490000Y-63460000D02*
X165110000Y-63460000D01*
X157490000Y-63460000D02*
X157490000Y-78700000D01*
X157490000Y-78700000D02*
X165110000Y-78700000D01*
X126115000Y-60415000D02*
X144015000Y-60415000D01*
X144015000Y-60415000D02*
X144015000Y-55915000D01*
X126115000Y-59165000D02*
X126115000Y-60415000D01*
X126115000Y-55915000D02*
X126115000Y-57165000D01*
X144015000Y-55915000D02*
X126115000Y-55915000D01*
X126115000Y-59165000D02*
G75*
G03*
X126115000Y-57165000I0J1000000D01*
G01*
X117466000Y-50530000D02*
X117466000Y-49200000D01*
X118796000Y-50530000D02*
X117466000Y-50530000D01*
X120066000Y-50530000D02*
X142986000Y-50530000D01*
X120066000Y-50530000D02*
X120066000Y-47870000D01*
X142986000Y-50530000D02*
X142986000Y-47870000D01*
X120066000Y-47870000D02*
X142986000Y-47870000D01*
X119880000Y-72080000D02*
X119880000Y-72145000D01*
X119880000Y-72080000D02*
X123120000Y-72080000D01*
X119880000Y-74255000D02*
X119880000Y-74320000D01*
X119880000Y-74320000D02*
X123120000Y-74320000D01*
X123120000Y-72080000D02*
X123120000Y-72145000D01*
X123120000Y-74255000D02*
X123120000Y-74320000D01*
X165110000Y-79540000D02*
X165110000Y-94780000D01*
X158760000Y-79540000D02*
X158760000Y-94780000D01*
X157490000Y-79540000D02*
X165110000Y-79540000D01*
X157490000Y-79540000D02*
X157490000Y-94780000D01*
X157490000Y-94780000D02*
X165110000Y-94780000D01*
X102990000Y-58230000D02*
X110610000Y-58230000D01*
X110610000Y-58230000D02*
X110610000Y-48070000D01*
X102990000Y-48070000D02*
X102990000Y-58230000D01*
X109340000Y-48070000D02*
X109340000Y-58230000D01*
X110610000Y-48070000D02*
X102990000Y-48070000D01*
X119857500Y-67740000D02*
X119857500Y-64440000D01*
X119857500Y-67740000D02*
X112847500Y-67740000D01*
X119857500Y-64440000D02*
X112847500Y-64440000D01*
X113900000Y-89140000D02*
X113900000Y-90160000D01*
X115370000Y-90160000D02*
X112430000Y-90160000D01*
X112430000Y-90160000D02*
X112430000Y-95600000D01*
X115370000Y-90940000D02*
X112430000Y-90940000D01*
X115370000Y-91060000D02*
X112430000Y-91060000D01*
X115370000Y-91180000D02*
X112430000Y-91180000D01*
X115370000Y-95600000D02*
X115370000Y-90160000D01*
X112430000Y-95600000D02*
X115370000Y-95600000D01*
X113900000Y-96620000D02*
X113900000Y-95600000D01*
X134440000Y-69000000D02*
X135210000Y-69000000D01*
X135210000Y-67630000D02*
X135210000Y-70370000D01*
X135210000Y-70370000D02*
X141750000Y-70370000D01*
X141750000Y-67630000D02*
X135210000Y-67630000D01*
X141750000Y-70370000D02*
X141750000Y-67630000D01*
X142520000Y-69000000D02*
X141750000Y-69000000D01*
X149865000Y-64336000D02*
X149865000Y-64180000D01*
X149865000Y-62020000D02*
X149865000Y-61864000D01*
X146632666Y-64178608D02*
G75*
G03*
X149864999Y-64335515I1672334J1078608D01*
G01*
X147263871Y-64179836D02*
G75*
G03*
X149345960Y-64179999I1041129J1079836D01*
G01*
X149345960Y-62020001D02*
G75*
G03*
X147263871Y-62020164I-1040960J-1079999D01*
G01*
X149864999Y-61864485D02*
G75*
G03*
X146632666Y-62021392I-1559999J-1235515D01*
G01*
X150800000Y-89660000D02*
X150800000Y-88890000D01*
X149430000Y-88890000D02*
X152170000Y-88890000D01*
X152170000Y-88890000D02*
X152170000Y-82350000D01*
X149430000Y-82350000D02*
X149430000Y-88890000D01*
X152170000Y-82350000D02*
X149430000Y-82350000D01*
X150800000Y-81580000D02*
X150800000Y-82350000D01*
X135520000Y-66220000D02*
X135520000Y-66155000D01*
X135520000Y-66220000D02*
X132280000Y-66220000D01*
X135520000Y-64045000D02*
X135520000Y-63980000D01*
X135520000Y-63980000D02*
X132280000Y-63980000D01*
X132280000Y-66220000D02*
X132280000Y-66155000D01*
X132280000Y-64045000D02*
X132280000Y-63980000D01*
X151139875Y-56025000D02*
X150639875Y-56025000D01*
X150889875Y-56275000D02*
X150889875Y-55775000D01*
X148335100Y-57130000D02*
X148335100Y-55590000D01*
X148335100Y-53510000D02*
X148335100Y-51970000D01*
X148295100Y-57130000D02*
X148295100Y-55590000D01*
X148295100Y-53510000D02*
X148295100Y-51970000D01*
X148255100Y-57129000D02*
X148255100Y-55590000D01*
X148255100Y-53510000D02*
X148255100Y-51971000D01*
X148215100Y-57128000D02*
X148215100Y-55590000D01*
X148215100Y-53510000D02*
X148215100Y-51972000D01*
X148175100Y-57126000D02*
X148175100Y-55590000D01*
X148175100Y-53510000D02*
X148175100Y-51974000D01*
X148135100Y-57123000D02*
X148135100Y-55590000D01*
X148135100Y-53510000D02*
X148135100Y-51977000D01*
X148095100Y-57119000D02*
X148095100Y-55590000D01*
X148095100Y-53510000D02*
X148095100Y-51981000D01*
X148055100Y-57115000D02*
X148055100Y-55590000D01*
X148055100Y-53510000D02*
X148055100Y-51985000D01*
X148015100Y-57111000D02*
X148015100Y-55590000D01*
X148015100Y-53510000D02*
X148015100Y-51989000D01*
X147975100Y-57106000D02*
X147975100Y-55590000D01*
X147975100Y-53510000D02*
X147975100Y-51994000D01*
X147935100Y-57100000D02*
X147935100Y-55590000D01*
X147935100Y-53510000D02*
X147935100Y-52000000D01*
X147895100Y-57093000D02*
X147895100Y-55590000D01*
X147895100Y-53510000D02*
X147895100Y-52007000D01*
X147855100Y-57086000D02*
X147855100Y-55590000D01*
X147855100Y-53510000D02*
X147855100Y-52014000D01*
X147815100Y-57078000D02*
X147815100Y-55590000D01*
X147815100Y-53510000D02*
X147815100Y-52022000D01*
X147775100Y-57070000D02*
X147775100Y-55590000D01*
X147775100Y-53510000D02*
X147775100Y-52030000D01*
X147735100Y-57061000D02*
X147735100Y-55590000D01*
X147735100Y-53510000D02*
X147735100Y-52039000D01*
X147695100Y-57051000D02*
X147695100Y-55590000D01*
X147695100Y-53510000D02*
X147695100Y-52049000D01*
X147655100Y-57041000D02*
X147655100Y-55590000D01*
X147655100Y-53510000D02*
X147655100Y-52059000D01*
X147614100Y-57030000D02*
X147614100Y-55590000D01*
X147614100Y-53510000D02*
X147614100Y-52070000D01*
X147574100Y-57018000D02*
X147574100Y-55590000D01*
X147574100Y-53510000D02*
X147574100Y-52082000D01*
X147534100Y-57005000D02*
X147534100Y-55590000D01*
X147534100Y-53510000D02*
X147534100Y-52095000D01*
X147494100Y-56992000D02*
X147494100Y-55590000D01*
X147494100Y-53510000D02*
X147494100Y-52108000D01*
X147454100Y-56978000D02*
X147454100Y-55590000D01*
X147454100Y-53510000D02*
X147454100Y-52122000D01*
X147414100Y-56964000D02*
X147414100Y-55590000D01*
X147414100Y-53510000D02*
X147414100Y-52136000D01*
X147374100Y-56948000D02*
X147374100Y-55590000D01*
X147374100Y-53510000D02*
X147374100Y-52152000D01*
X147334100Y-56932000D02*
X147334100Y-55590000D01*
X147334100Y-53510000D02*
X147334100Y-52168000D01*
X147294100Y-56915000D02*
X147294100Y-55590000D01*
X147294100Y-53510000D02*
X147294100Y-52185000D01*
X147254100Y-56898000D02*
X147254100Y-55590000D01*
X147254100Y-53510000D02*
X147254100Y-52202000D01*
X147214100Y-56879000D02*
X147214100Y-55590000D01*
X147214100Y-53510000D02*
X147214100Y-52221000D01*
X147174100Y-56860000D02*
X147174100Y-55590000D01*
X147174100Y-53510000D02*
X147174100Y-52240000D01*
X147134100Y-56840000D02*
X147134100Y-55590000D01*
X147134100Y-53510000D02*
X147134100Y-52260000D01*
X147094100Y-56818000D02*
X147094100Y-55590000D01*
X147094100Y-53510000D02*
X147094100Y-52282000D01*
X147054100Y-56797000D02*
X147054100Y-55590000D01*
X147054100Y-53510000D02*
X147054100Y-52303000D01*
X147014100Y-56774000D02*
X147014100Y-55590000D01*
X147014100Y-53510000D02*
X147014100Y-52326000D01*
X146974100Y-56750000D02*
X146974100Y-55590000D01*
X146974100Y-53510000D02*
X146974100Y-52350000D01*
X146934100Y-56725000D02*
X146934100Y-55590000D01*
X146934100Y-53510000D02*
X146934100Y-52375000D01*
X146894100Y-56699000D02*
X146894100Y-55590000D01*
X146894100Y-53510000D02*
X146894100Y-52401000D01*
X146854100Y-56672000D02*
X146854100Y-55590000D01*
X146854100Y-53510000D02*
X146854100Y-52428000D01*
X146814100Y-56645000D02*
X146814100Y-55590000D01*
X146814100Y-53510000D02*
X146814100Y-52455000D01*
X146774100Y-56615000D02*
X146774100Y-55590000D01*
X146774100Y-53510000D02*
X146774100Y-52485000D01*
X146734100Y-56585000D02*
X146734100Y-55590000D01*
X146734100Y-53510000D02*
X146734100Y-52515000D01*
X146694100Y-56554000D02*
X146694100Y-55590000D01*
X146694100Y-53510000D02*
X146694100Y-52546000D01*
X146654100Y-56521000D02*
X146654100Y-55590000D01*
X146654100Y-53510000D02*
X146654100Y-52579000D01*
X146614100Y-56487000D02*
X146614100Y-55590000D01*
X146614100Y-53510000D02*
X146614100Y-52613000D01*
X146574100Y-56451000D02*
X146574100Y-55590000D01*
X146574100Y-53510000D02*
X146574100Y-52649000D01*
X146534100Y-56414000D02*
X146534100Y-55590000D01*
X146534100Y-53510000D02*
X146534100Y-52686000D01*
X146494100Y-56376000D02*
X146494100Y-55590000D01*
X146494100Y-53510000D02*
X146494100Y-52724000D01*
X146454100Y-56335000D02*
X146454100Y-55590000D01*
X146454100Y-53510000D02*
X146454100Y-52765000D01*
X146414100Y-56293000D02*
X146414100Y-55590000D01*
X146414100Y-53510000D02*
X146414100Y-52807000D01*
X146374100Y-56249000D02*
X146374100Y-55590000D01*
X146374100Y-53510000D02*
X146374100Y-52851000D01*
X146334100Y-56203000D02*
X146334100Y-55590000D01*
X146334100Y-53510000D02*
X146334100Y-52897000D01*
X146294100Y-56155000D02*
X146294100Y-52945000D01*
X146254100Y-56104000D02*
X146254100Y-52996000D01*
X146214100Y-56050000D02*
X146214100Y-53050000D01*
X146174100Y-55993000D02*
X146174100Y-53107000D01*
X146134100Y-55933000D02*
X146134100Y-53167000D01*
X146094100Y-55869000D02*
X146094100Y-53231000D01*
X146054100Y-55801000D02*
X146054100Y-53299000D01*
X146014100Y-55728000D02*
X146014100Y-53372000D01*
X145974100Y-55648000D02*
X145974100Y-53452000D01*
X145934100Y-55561000D02*
X145934100Y-53539000D01*
X145894100Y-55465000D02*
X145894100Y-53635000D01*
X145854100Y-55355000D02*
X145854100Y-53745000D01*
X145814100Y-55227000D02*
X145814100Y-53873000D01*
X145774100Y-55068000D02*
X145774100Y-54032000D01*
X145734100Y-54834000D02*
X145734100Y-54266000D01*
X150955100Y-54550000D02*
G75*
G03*
X150955100Y-54550000I-2620000J0D01*
G01*
X104730000Y-70280000D02*
X109371000Y-70280000D01*
X104730000Y-70280000D02*
X104730000Y-60040000D01*
X106240000Y-70280000D02*
X106240000Y-60040000D01*
X109371000Y-70280000D02*
X109371000Y-60040000D01*
X104730000Y-67010000D02*
X106240000Y-67010000D01*
X104730000Y-63309000D02*
X106240000Y-63309000D01*
X104730000Y-60040000D02*
X109371000Y-60040000D01*
X153120000Y-59200000D02*
X163400000Y-59200000D01*
X163400000Y-59200000D02*
X163400000Y-54700000D01*
X153120000Y-57950000D02*
X153120000Y-59200000D01*
X153120000Y-54700000D02*
X153120000Y-55950000D01*
X163400000Y-54700000D02*
X153120000Y-54700000D01*
X153120000Y-57950000D02*
G75*
G03*
X153120000Y-55950000I0J1000000D01*
G01*
X148290000Y-74436000D02*
X148290000Y-74280000D01*
X148290000Y-72120000D02*
X148290000Y-71964000D01*
X145057666Y-74278608D02*
G75*
G03*
X148289999Y-74435515I1672334J1078608D01*
G01*
X145688871Y-74279836D02*
G75*
G03*
X147770960Y-74279999I1041129J1079836D01*
G01*
X147770960Y-72120001D02*
G75*
G03*
X145688871Y-72120164I-1040960J-1079999D01*
G01*
X148289999Y-71964485D02*
G75*
G03*
X145057666Y-72121392I-1559999J-1235515D01*
G01*
X122260000Y-62200000D02*
X121490000Y-62200000D01*
X121490000Y-63570000D02*
X121490000Y-60830000D01*
X121490000Y-60830000D02*
X114950000Y-60830000D01*
X114950000Y-63570000D02*
X121490000Y-63570000D01*
X114950000Y-60830000D02*
X114950000Y-63570000D01*
X114180000Y-62200000D02*
X114950000Y-62200000D01*
X154800000Y-67640000D02*
X154800000Y-68410000D01*
X156170000Y-68410000D02*
X153430000Y-68410000D01*
X153430000Y-68410000D02*
X153430000Y-74950000D01*
X156170000Y-74950000D02*
X156170000Y-68410000D01*
X153430000Y-74950000D02*
X156170000Y-74950000D01*
X154800000Y-75720000D02*
X154800000Y-74950000D01*
M02*
