G04 #@! TF.GenerationSoftware,KiCad,Pcbnew,7.0.9*
G04 #@! TF.CreationDate,2024-03-21T10:00:35+04:00*
G04 #@! TF.ProjectId,BSPD_Nucleo_Shield,42535044-5f4e-4756-936c-656f5f536869,rev?*
G04 #@! TF.SameCoordinates,Original*
G04 #@! TF.FileFunction,Copper,L2,Bot*
G04 #@! TF.FilePolarity,Positive*
%FSLAX46Y46*%
G04 Gerber Fmt 4.6, Leading zero omitted, Abs format (unit mm)*
G04 Created by KiCad (PCBNEW 7.0.9) date 2024-03-21 10:00:35*
%MOMM*%
%LPD*%
G01*
G04 APERTURE LIST*
G04 #@! TA.AperFunction,ComponentPad*
%ADD10R,1.700000X1.700000*%
G04 #@! TD*
G04 #@! TA.AperFunction,ComponentPad*
%ADD11O,1.700000X1.700000*%
G04 #@! TD*
G04 #@! TA.AperFunction,ComponentPad*
%ADD12R,3.000000X3.000000*%
G04 #@! TD*
G04 #@! TA.AperFunction,ComponentPad*
%ADD13C,3.000000*%
G04 #@! TD*
G04 #@! TA.AperFunction,ComponentPad*
%ADD14R,2.200000X2.200000*%
G04 #@! TD*
G04 #@! TA.AperFunction,ComponentPad*
%ADD15O,2.200000X2.200000*%
G04 #@! TD*
G04 #@! TA.AperFunction,ComponentPad*
%ADD16C,1.600000*%
G04 #@! TD*
G04 #@! TA.AperFunction,ComponentPad*
%ADD17O,1.600000X1.600000*%
G04 #@! TD*
G04 #@! TA.AperFunction,ComponentPad*
%ADD18R,2.000000X2.000000*%
G04 #@! TD*
G04 #@! TA.AperFunction,ComponentPad*
%ADD19C,2.000000*%
G04 #@! TD*
G04 #@! TA.AperFunction,ComponentPad*
%ADD20R,1.600000X1.600000*%
G04 #@! TD*
G04 #@! TA.AperFunction,ComponentPad*
%ADD21R,2.400000X1.600000*%
G04 #@! TD*
G04 #@! TA.AperFunction,ComponentPad*
%ADD22O,2.400000X1.600000*%
G04 #@! TD*
G04 #@! TA.AperFunction,ComponentPad*
%ADD23R,1.600000X2.400000*%
G04 #@! TD*
G04 #@! TA.AperFunction,ComponentPad*
%ADD24O,1.600000X2.400000*%
G04 #@! TD*
G04 #@! TA.AperFunction,ComponentPad*
%ADD25R,1.800000X1.800000*%
G04 #@! TD*
G04 #@! TA.AperFunction,ComponentPad*
%ADD26C,1.800000*%
G04 #@! TD*
G04 #@! TA.AperFunction,ComponentPad*
%ADD27R,2.000000X1.905000*%
G04 #@! TD*
G04 #@! TA.AperFunction,ComponentPad*
%ADD28O,2.000000X1.905000*%
G04 #@! TD*
G04 #@! TA.AperFunction,ViaPad*
%ADD29C,0.800000*%
G04 #@! TD*
G04 #@! TA.AperFunction,Conductor*
%ADD30C,0.800000*%
G04 #@! TD*
G04 #@! TA.AperFunction,Conductor*
%ADD31C,1.300000*%
G04 #@! TD*
G04 APERTURE END LIST*
D10*
X127940000Y-97460000D03*
D11*
X130480000Y-97460000D03*
X133020000Y-97460000D03*
X135560000Y-97460000D03*
X138100000Y-97460000D03*
X140640000Y-97460000D03*
X143180000Y-97460000D03*
X145720000Y-97460000D03*
D10*
X150800000Y-97460000D03*
D11*
X153340000Y-97460000D03*
X155880000Y-97460000D03*
X158420000Y-97460000D03*
X160960000Y-97460000D03*
X163500000Y-97460000D03*
D10*
X145720000Y-49200000D03*
D11*
X148260000Y-49200000D03*
X150800000Y-49200000D03*
X153340000Y-49200000D03*
X155880000Y-49200000D03*
X158420000Y-49200000D03*
X160960000Y-49200000D03*
X163500000Y-49200000D03*
D12*
X106800000Y-95670000D03*
D13*
X106800000Y-90590000D03*
D14*
X123000000Y-55100000D03*
D15*
X112840000Y-55100000D03*
D16*
X120200000Y-69800000D03*
D17*
X130360000Y-69800000D03*
D16*
X116280000Y-73200000D03*
D17*
X106120000Y-73200000D03*
D16*
X113100000Y-58590000D03*
D17*
X123260000Y-58590000D03*
D18*
X121500000Y-95100000D03*
D19*
X121500000Y-90100000D03*
D20*
X140400000Y-91100000D03*
D16*
X143900000Y-91100000D03*
X132800000Y-72700000D03*
D17*
X142960000Y-72700000D03*
D16*
X154300000Y-80500000D03*
D17*
X154300000Y-90660000D03*
D16*
X151300000Y-76900000D03*
D17*
X151300000Y-66740000D03*
D21*
X147200000Y-84900000D03*
D22*
X147200000Y-82360000D03*
X147200000Y-79820000D03*
X147200000Y-77280000D03*
X139580000Y-77280000D03*
X139580000Y-79820000D03*
X139580000Y-82360000D03*
X139580000Y-84900000D03*
D12*
X161300000Y-66000000D03*
D13*
X161300000Y-71080000D03*
X161300000Y-76160000D03*
D23*
X127445000Y-61975000D03*
D24*
X129985000Y-61975000D03*
X132525000Y-61975000D03*
X135065000Y-61975000D03*
X137605000Y-61975000D03*
X140145000Y-61975000D03*
X142685000Y-61975000D03*
X142685000Y-54355000D03*
X140145000Y-54355000D03*
X137605000Y-54355000D03*
X135065000Y-54355000D03*
X132525000Y-54355000D03*
X129985000Y-54355000D03*
X127445000Y-54355000D03*
D10*
X118796000Y-49200000D03*
D11*
X121336000Y-49200000D03*
X123876000Y-49200000D03*
X126416000Y-49200000D03*
X128956000Y-49200000D03*
X131496000Y-49200000D03*
X134036000Y-49200000D03*
X136576000Y-49200000D03*
X139116000Y-49200000D03*
X141656000Y-49200000D03*
D16*
X120250000Y-73200000D03*
X122750000Y-73200000D03*
D12*
X161300000Y-82080000D03*
D13*
X161300000Y-87160000D03*
X161300000Y-92240000D03*
D12*
X106800000Y-55690000D03*
D13*
X106800000Y-50610000D03*
D14*
X113900000Y-87800000D03*
D15*
X113900000Y-97960000D03*
D16*
X133400000Y-69000000D03*
D17*
X143560000Y-69000000D03*
D25*
X149575000Y-63100000D03*
D26*
X147035000Y-63100000D03*
D16*
X150800000Y-90700000D03*
D17*
X150800000Y-80540000D03*
D16*
X135150000Y-65100000D03*
X132650000Y-65100000D03*
D20*
X149335100Y-54550000D03*
D16*
X147335100Y-54550000D03*
D27*
X108000000Y-67700000D03*
D28*
X108000000Y-65160000D03*
X108000000Y-62620000D03*
D23*
X154450000Y-60760000D03*
D24*
X156990000Y-60760000D03*
X159530000Y-60760000D03*
X162070000Y-60760000D03*
X162070000Y-53140000D03*
X159530000Y-53140000D03*
X156990000Y-53140000D03*
X154450000Y-53140000D03*
D25*
X148000000Y-73200000D03*
D26*
X145460000Y-73200000D03*
D16*
X123300000Y-62200000D03*
D17*
X113140000Y-62200000D03*
D16*
X154800000Y-66600000D03*
D17*
X154800000Y-76760000D03*
D29*
X111000000Y-84000000D03*
X109000000Y-83000000D03*
X109000000Y-85000000D03*
X109000000Y-81000000D03*
X107000000Y-78000000D03*
X111000000Y-80000000D03*
X105000000Y-85000000D03*
X111000000Y-78000000D03*
X105000000Y-81000000D03*
X109000000Y-77000000D03*
X107000000Y-84000000D03*
X109000000Y-79000000D03*
X105000000Y-77000000D03*
X111000000Y-82000000D03*
X107000000Y-82000000D03*
X105000000Y-83000000D03*
X107000000Y-80000000D03*
X105000000Y-79000000D03*
D30*
X153340000Y-95360000D02*
X153340000Y-97460000D01*
X153340000Y-95360000D02*
X156990000Y-91710000D01*
X156990000Y-91710000D02*
X156990000Y-60760000D01*
X140145000Y-54355000D02*
X140145000Y-56545000D01*
X140145000Y-56545000D02*
X144900000Y-61300000D01*
X144900000Y-64500000D02*
X135560000Y-73840000D01*
X144900000Y-61300000D02*
X144900000Y-64500000D01*
X135560000Y-73840000D02*
X135560000Y-97460000D01*
D31*
X102990000Y-95670000D02*
X101730000Y-94410000D01*
X101730000Y-52070000D02*
X103190000Y-50610000D01*
X106800000Y-95670000D02*
X102990000Y-95670000D01*
X101730000Y-94410000D02*
X101730000Y-52070000D01*
X103190000Y-50610000D02*
X106800000Y-50610000D01*
G04 #@! TA.AperFunction,Conductor*
G36*
X142720507Y-97250156D02*
G01*
X142680000Y-97388111D01*
X142680000Y-97531889D01*
X142720507Y-97669844D01*
X142746314Y-97710000D01*
X141073686Y-97710000D01*
X141099493Y-97669844D01*
X141140000Y-97531889D01*
X141140000Y-97388111D01*
X141099493Y-97250156D01*
X141073686Y-97210000D01*
X142746314Y-97210000D01*
X142720507Y-97250156D01*
G37*
G04 #@! TD.AperFunction*
G04 #@! TA.AperFunction,Conductor*
G36*
X133862864Y-62937278D02*
G01*
X133907382Y-62988655D01*
X133927477Y-63031749D01*
X134058802Y-63219300D01*
X134220700Y-63381198D01*
X134408251Y-63512523D01*
X134533091Y-63570736D01*
X134615750Y-63609281D01*
X134615752Y-63609281D01*
X134615757Y-63609284D01*
X134615762Y-63609285D01*
X134615764Y-63609286D01*
X134706176Y-63633512D01*
X134765837Y-63669877D01*
X134796366Y-63732724D01*
X134788071Y-63802100D01*
X134743586Y-63855977D01*
X134706184Y-63873060D01*
X134703684Y-63873729D01*
X134703673Y-63873734D01*
X134497513Y-63969868D01*
X134424527Y-64020972D01*
X134424526Y-64020973D01*
X135105600Y-64702046D01*
X135024852Y-64714835D01*
X134911955Y-64772359D01*
X134822359Y-64861955D01*
X134764835Y-64974852D01*
X134752046Y-65055599D01*
X134070973Y-64374526D01*
X134070972Y-64374527D01*
X134019867Y-64447513D01*
X134017070Y-64453513D01*
X133970897Y-64505951D01*
X133903703Y-64525102D01*
X133836822Y-64504885D01*
X133792307Y-64453511D01*
X133791297Y-64451345D01*
X133787523Y-64443251D01*
X133656198Y-64255700D01*
X133494300Y-64093802D01*
X133306749Y-63962477D01*
X133249081Y-63935586D01*
X133099249Y-63865718D01*
X133099237Y-63865714D01*
X132999696Y-63839042D01*
X132940036Y-63802677D01*
X132909507Y-63739830D01*
X132917802Y-63670454D01*
X132962287Y-63616576D01*
X132979378Y-63606889D01*
X133181749Y-63512523D01*
X133369300Y-63381198D01*
X133531198Y-63219300D01*
X133662523Y-63031749D01*
X133682618Y-62988655D01*
X133728790Y-62936215D01*
X133795983Y-62917063D01*
X133862864Y-62937278D01*
G37*
G04 #@! TD.AperFunction*
G04 #@! TA.AperFunction,Conductor*
G36*
X137277359Y-54116955D02*
G01*
X137219835Y-54229852D01*
X137200014Y-54355000D01*
X137219835Y-54480148D01*
X137277359Y-54593045D01*
X137289314Y-54605000D01*
X135380686Y-54605000D01*
X135392641Y-54593045D01*
X135450165Y-54480148D01*
X135469986Y-54355000D01*
X135450165Y-54229852D01*
X135392641Y-54116955D01*
X135380686Y-54105000D01*
X137289314Y-54105000D01*
X137277359Y-54116955D01*
G37*
G04 #@! TD.AperFunction*
G04 #@! TA.AperFunction,Conductor*
G36*
X163484404Y-46755185D02*
G01*
X163505046Y-46771819D01*
X165928181Y-49194954D01*
X165961666Y-49256277D01*
X165964500Y-49282635D01*
X165964500Y-59315019D01*
X165961963Y-59334292D01*
X165964264Y-59360591D01*
X165964500Y-59365997D01*
X165964500Y-59373315D01*
X165965769Y-59380516D01*
X165966474Y-59385873D01*
X165967181Y-59393955D01*
X165971651Y-59403541D01*
X165978451Y-59411644D01*
X165978452Y-59411645D01*
X165979500Y-59412250D01*
X166005185Y-59431958D01*
X168468181Y-61894954D01*
X168501666Y-61956277D01*
X168504500Y-61982635D01*
X168504500Y-96107363D01*
X168484815Y-96174402D01*
X168468181Y-96195044D01*
X166018418Y-98644806D01*
X166003002Y-98656636D01*
X165986024Y-98676868D01*
X165982374Y-98680851D01*
X165977197Y-98686027D01*
X165972997Y-98692026D01*
X165969710Y-98696309D01*
X165964501Y-98702517D01*
X165960881Y-98712463D01*
X165959960Y-98722998D01*
X165960274Y-98724169D01*
X165964500Y-98756265D01*
X165964500Y-99234951D01*
X165964201Y-99241033D01*
X165952505Y-99359778D01*
X165947763Y-99383618D01*
X165917832Y-99482290D01*
X165915789Y-99489024D01*
X165906486Y-99511482D01*
X165854561Y-99608627D01*
X165841056Y-99628839D01*
X165771176Y-99713988D01*
X165753988Y-99731176D01*
X165668839Y-99801056D01*
X165648627Y-99814561D01*
X165551482Y-99866486D01*
X165529028Y-99875787D01*
X165487028Y-99888528D01*
X165423618Y-99907763D01*
X165399778Y-99912505D01*
X165281033Y-99924201D01*
X165274951Y-99924500D01*
X100765049Y-99924500D01*
X100758968Y-99924201D01*
X100640221Y-99912505D01*
X100616381Y-99907763D01*
X100599445Y-99902625D01*
X100510968Y-99875786D01*
X100488517Y-99866486D01*
X100391372Y-99814561D01*
X100371160Y-99801056D01*
X100286011Y-99731176D01*
X100268823Y-99713988D01*
X100198943Y-99628839D01*
X100185438Y-99608627D01*
X100133510Y-99511476D01*
X100124215Y-99489037D01*
X100092234Y-99383612D01*
X100087494Y-99359777D01*
X100075799Y-99241032D01*
X100075500Y-99234951D01*
X100075500Y-97960000D01*
X112286526Y-97960000D01*
X112306391Y-98212406D01*
X112365495Y-98458593D01*
X112462383Y-98692502D01*
X112594668Y-98908370D01*
X112594669Y-98908372D01*
X112594670Y-98908374D01*
X112594672Y-98908376D01*
X112759102Y-99100898D01*
X112951624Y-99265328D01*
X112951626Y-99265329D01*
X112951627Y-99265330D01*
X112951629Y-99265331D01*
X113167497Y-99397616D01*
X113401406Y-99494504D01*
X113401407Y-99494504D01*
X113401409Y-99494505D01*
X113647597Y-99553609D01*
X113900000Y-99573474D01*
X114152403Y-99553609D01*
X114398591Y-99494505D01*
X114632502Y-99397616D01*
X114848376Y-99265328D01*
X115040898Y-99100898D01*
X115205328Y-98908376D01*
X115337616Y-98692502D01*
X115434505Y-98458591D01*
X115493609Y-98212403D01*
X115513474Y-97960000D01*
X115493609Y-97707597D01*
X115434505Y-97461409D01*
X115434504Y-97461406D01*
X115337616Y-97227497D01*
X115205331Y-97011629D01*
X115205330Y-97011627D01*
X115205329Y-97011626D01*
X115205328Y-97011624D01*
X115040898Y-96819102D01*
X114848376Y-96654672D01*
X114848374Y-96654670D01*
X114848372Y-96654669D01*
X114848370Y-96654668D01*
X114632502Y-96522383D01*
X114398593Y-96425495D01*
X114152406Y-96366391D01*
X113900000Y-96346526D01*
X113647593Y-96366391D01*
X113401406Y-96425495D01*
X113167497Y-96522383D01*
X112951629Y-96654668D01*
X112951627Y-96654669D01*
X112759102Y-96819102D01*
X112594669Y-97011627D01*
X112594668Y-97011629D01*
X112462383Y-97227497D01*
X112365495Y-97461406D01*
X112306391Y-97707593D01*
X112286526Y-97960000D01*
X100075500Y-97960000D01*
X100075500Y-94463737D01*
X100567778Y-94463737D01*
X100578713Y-94542129D01*
X100579043Y-94544973D01*
X100586346Y-94623781D01*
X100586346Y-94623782D01*
X100586347Y-94623786D01*
X100590113Y-94637025D01*
X100592540Y-94645555D01*
X100594313Y-94653960D01*
X100597439Y-94676371D01*
X100597441Y-94676376D01*
X100622593Y-94751421D01*
X100623440Y-94754156D01*
X100645102Y-94830288D01*
X100645104Y-94830293D01*
X100655189Y-94850549D01*
X100658478Y-94858487D01*
X100665671Y-94879947D01*
X100704187Y-94949097D01*
X100705520Y-94951625D01*
X100740804Y-95022484D01*
X100754447Y-95040550D01*
X100759128Y-95047735D01*
X100770146Y-95067515D01*
X100770149Y-95067519D01*
X100820703Y-95128399D01*
X100822482Y-95130644D01*
X100870186Y-95193816D01*
X100870189Y-95193818D01*
X100870190Y-95193820D01*
X100928692Y-95247152D01*
X100930753Y-95249120D01*
X102150878Y-96469245D01*
X102152856Y-96471317D01*
X102206179Y-96529810D01*
X102234092Y-96550888D01*
X102269371Y-96577529D01*
X102271589Y-96579286D01*
X102332485Y-96629854D01*
X102352257Y-96640866D01*
X102359457Y-96645558D01*
X102377516Y-96659196D01*
X102419032Y-96679868D01*
X102448366Y-96694475D01*
X102450900Y-96695811D01*
X102520048Y-96734327D01*
X102520051Y-96734328D01*
X102520053Y-96734329D01*
X102535517Y-96739512D01*
X102541511Y-96741521D01*
X102549453Y-96744811D01*
X102555421Y-96747782D01*
X102569709Y-96754897D01*
X102645829Y-96776555D01*
X102648565Y-96777402D01*
X102665813Y-96783182D01*
X102723624Y-96802559D01*
X102746046Y-96805686D01*
X102754433Y-96807455D01*
X102776214Y-96813653D01*
X102855028Y-96820956D01*
X102857860Y-96821284D01*
X102936267Y-96832222D01*
X103009766Y-96828823D01*
X103015346Y-96828566D01*
X103018209Y-96828500D01*
X104667500Y-96828500D01*
X104734539Y-96848185D01*
X104780294Y-96900989D01*
X104791500Y-96952500D01*
X104791500Y-97218654D01*
X104798011Y-97279202D01*
X104798011Y-97279204D01*
X104838633Y-97388111D01*
X104849111Y-97416204D01*
X104936739Y-97533261D01*
X105053796Y-97620889D01*
X105190799Y-97671989D01*
X105218050Y-97674918D01*
X105251345Y-97678499D01*
X105251362Y-97678500D01*
X108348638Y-97678500D01*
X108348654Y-97678499D01*
X108375692Y-97675591D01*
X108409201Y-97671989D01*
X108546204Y-97620889D01*
X108663261Y-97533261D01*
X108750889Y-97416204D01*
X108801989Y-97279201D01*
X108806673Y-97235632D01*
X108808499Y-97218654D01*
X108808500Y-97218637D01*
X108808500Y-96148654D01*
X119991500Y-96148654D01*
X119998011Y-96209202D01*
X119998011Y-96209204D01*
X120038894Y-96318811D01*
X120049111Y-96346204D01*
X120136739Y-96463261D01*
X120253796Y-96550889D01*
X120390799Y-96601989D01*
X120418050Y-96604918D01*
X120451345Y-96608499D01*
X120451362Y-96608500D01*
X122548638Y-96608500D01*
X122548654Y-96608499D01*
X122575692Y-96605591D01*
X122609201Y-96601989D01*
X122746204Y-96550889D01*
X122863261Y-96463261D01*
X122950889Y-96346204D01*
X122998901Y-96217480D01*
X123001988Y-96209204D01*
X123001988Y-96209203D01*
X123001989Y-96209201D01*
X123005730Y-96174402D01*
X123008499Y-96148654D01*
X123008500Y-96148637D01*
X123008500Y-94051362D01*
X123008499Y-94051345D01*
X123005157Y-94020270D01*
X123001989Y-93990799D01*
X122950889Y-93853796D01*
X122863261Y-93736739D01*
X122746204Y-93649111D01*
X122609203Y-93598011D01*
X122548654Y-93591500D01*
X122548638Y-93591500D01*
X120451362Y-93591500D01*
X120451345Y-93591500D01*
X120390797Y-93598011D01*
X120390795Y-93598011D01*
X120253795Y-93649111D01*
X120136739Y-93736739D01*
X120049111Y-93853795D01*
X119998011Y-93990795D01*
X119998011Y-93990797D01*
X119991500Y-94051345D01*
X119991500Y-96148654D01*
X108808500Y-96148654D01*
X108808500Y-94121362D01*
X108808499Y-94121345D01*
X108802323Y-94063908D01*
X108801989Y-94060799D01*
X108798469Y-94051362D01*
X108766799Y-93966452D01*
X108750889Y-93923796D01*
X108663261Y-93806739D01*
X108546204Y-93719111D01*
X108409203Y-93668011D01*
X108348654Y-93661500D01*
X108348638Y-93661500D01*
X105251362Y-93661500D01*
X105251345Y-93661500D01*
X105190797Y-93668011D01*
X105190795Y-93668011D01*
X105053795Y-93719111D01*
X104936739Y-93806739D01*
X104849111Y-93923795D01*
X104798011Y-94060795D01*
X104798011Y-94060797D01*
X104791500Y-94121345D01*
X104791500Y-94387500D01*
X104771815Y-94454539D01*
X104719011Y-94500294D01*
X104667500Y-94511500D01*
X103521229Y-94511500D01*
X103454190Y-94491815D01*
X103433548Y-94475181D01*
X102924819Y-93966452D01*
X102891334Y-93905129D01*
X102888500Y-93878771D01*
X102888500Y-90590001D01*
X104794891Y-90590001D01*
X104815300Y-90875362D01*
X104876109Y-91154895D01*
X104976091Y-91422958D01*
X105113191Y-91674038D01*
X105113196Y-91674046D01*
X105219882Y-91816561D01*
X105219883Y-91816562D01*
X106115195Y-90921250D01*
X106137340Y-90972587D01*
X106243433Y-91115094D01*
X106379530Y-91229294D01*
X106469216Y-91274335D01*
X105573436Y-92170115D01*
X105715960Y-92276807D01*
X105715961Y-92276808D01*
X105967042Y-92413908D01*
X105967041Y-92413908D01*
X106235104Y-92513890D01*
X106514637Y-92574699D01*
X106799999Y-92595109D01*
X106800001Y-92595109D01*
X107085362Y-92574699D01*
X107364895Y-92513890D01*
X107632958Y-92413908D01*
X107884047Y-92276803D01*
X108026561Y-92170116D01*
X108026562Y-92170115D01*
X107133748Y-91277300D01*
X107143409Y-91273784D01*
X107291844Y-91176157D01*
X107413764Y-91046930D01*
X107485768Y-90922215D01*
X108380115Y-91816562D01*
X108380116Y-91816561D01*
X108486803Y-91674047D01*
X108623908Y-91422958D01*
X108723890Y-91154895D01*
X108784699Y-90875362D01*
X108805109Y-90590001D01*
X108805109Y-90589998D01*
X108784699Y-90304637D01*
X108740184Y-90100005D01*
X119994859Y-90100005D01*
X120015385Y-90347729D01*
X120015387Y-90347738D01*
X120076412Y-90588717D01*
X120176266Y-90816364D01*
X120276564Y-90969882D01*
X121016923Y-90229523D01*
X121040507Y-90309844D01*
X121118239Y-90430798D01*
X121226900Y-90524952D01*
X121357685Y-90584680D01*
X121367466Y-90586086D01*
X120629942Y-91323609D01*
X120676768Y-91360055D01*
X120676770Y-91360056D01*
X120895385Y-91478364D01*
X120895396Y-91478369D01*
X121130506Y-91559083D01*
X121375707Y-91600000D01*
X121624293Y-91600000D01*
X121869493Y-91559083D01*
X122104603Y-91478369D01*
X122104614Y-91478364D01*
X122323228Y-91360057D01*
X122323231Y-91360055D01*
X122370056Y-91323609D01*
X121632533Y-90586086D01*
X121642315Y-90584680D01*
X121773100Y-90524952D01*
X121881761Y-90430798D01*
X121959493Y-90309844D01*
X121983076Y-90229524D01*
X122723434Y-90969882D01*
X122823731Y-90816369D01*
X122923587Y-90588717D01*
X122984612Y-90347738D01*
X122984614Y-90347729D01*
X123005141Y-90100005D01*
X123005141Y-90099994D01*
X122984614Y-89852270D01*
X122984612Y-89852261D01*
X122923587Y-89611282D01*
X122823731Y-89383630D01*
X122723434Y-89230116D01*
X121983076Y-89970475D01*
X121959493Y-89890156D01*
X121881761Y-89769202D01*
X121773100Y-89675048D01*
X121642315Y-89615320D01*
X121632534Y-89613913D01*
X122370057Y-88876390D01*
X122370056Y-88876389D01*
X122323229Y-88839943D01*
X122104614Y-88721635D01*
X122104603Y-88721630D01*
X121869493Y-88640916D01*
X121624293Y-88600000D01*
X121375707Y-88600000D01*
X121130506Y-88640916D01*
X120895396Y-88721630D01*
X120895390Y-88721632D01*
X120676761Y-88839949D01*
X120629942Y-88876388D01*
X120629942Y-88876390D01*
X121367466Y-89613913D01*
X121357685Y-89615320D01*
X121226900Y-89675048D01*
X121118239Y-89769202D01*
X121040507Y-89890156D01*
X121016923Y-89970475D01*
X120276564Y-89230116D01*
X120176267Y-89383632D01*
X120076412Y-89611282D01*
X120015387Y-89852261D01*
X120015385Y-89852270D01*
X119994859Y-90099994D01*
X119994859Y-90100005D01*
X108740184Y-90100005D01*
X108723890Y-90025104D01*
X108623908Y-89757041D01*
X108486808Y-89505961D01*
X108486807Y-89505960D01*
X108380115Y-89363436D01*
X107484803Y-90258747D01*
X107462660Y-90207413D01*
X107356567Y-90064906D01*
X107220470Y-89950706D01*
X107130782Y-89905663D01*
X108026562Y-89009883D01*
X108026561Y-89009882D01*
X107944770Y-88948654D01*
X112291500Y-88948654D01*
X112298011Y-89009202D01*
X112298011Y-89009204D01*
X112343471Y-89131083D01*
X112349111Y-89146204D01*
X112436739Y-89263261D01*
X112553796Y-89350889D01*
X112690799Y-89401989D01*
X112718050Y-89404918D01*
X112751345Y-89408499D01*
X112751362Y-89408500D01*
X115048638Y-89408500D01*
X115048654Y-89408499D01*
X115075692Y-89405591D01*
X115109201Y-89401989D01*
X115246204Y-89350889D01*
X115363261Y-89263261D01*
X115450889Y-89146204D01*
X115501989Y-89009201D01*
X115505591Y-88975692D01*
X115508499Y-88948654D01*
X115508500Y-88948637D01*
X115508500Y-86651362D01*
X115508499Y-86651345D01*
X115505157Y-86620270D01*
X115501989Y-86590799D01*
X115450889Y-86453796D01*
X115363261Y-86336739D01*
X115246204Y-86249111D01*
X115109203Y-86198011D01*
X115048654Y-86191500D01*
X115048638Y-86191500D01*
X112751362Y-86191500D01*
X112751345Y-86191500D01*
X112690797Y-86198011D01*
X112690795Y-86198011D01*
X112553795Y-86249111D01*
X112436739Y-86336739D01*
X112349111Y-86453795D01*
X112298011Y-86590795D01*
X112298011Y-86590797D01*
X112291500Y-86651345D01*
X112291500Y-88948654D01*
X107944770Y-88948654D01*
X107884046Y-88903196D01*
X107884038Y-88903191D01*
X107632957Y-88766091D01*
X107632958Y-88766091D01*
X107364895Y-88666109D01*
X107085362Y-88605300D01*
X106800001Y-88584891D01*
X106799999Y-88584891D01*
X106514637Y-88605300D01*
X106235104Y-88666109D01*
X105967041Y-88766091D01*
X105715961Y-88903191D01*
X105715953Y-88903196D01*
X105573437Y-89009882D01*
X105573436Y-89009883D01*
X106466252Y-89902699D01*
X106456591Y-89906216D01*
X106308156Y-90003843D01*
X106186236Y-90133070D01*
X106114231Y-90257784D01*
X105219883Y-89363436D01*
X105219882Y-89363437D01*
X105113196Y-89505953D01*
X105113191Y-89505961D01*
X104976091Y-89757041D01*
X104876109Y-90025104D01*
X104815300Y-90304637D01*
X104794891Y-90589998D01*
X104794891Y-90590001D01*
X102888500Y-90590001D01*
X102888500Y-72949999D01*
X104841127Y-72949999D01*
X104841128Y-72950000D01*
X105804314Y-72950000D01*
X105792359Y-72961955D01*
X105734835Y-73074852D01*
X105715014Y-73200000D01*
X105734835Y-73325148D01*
X105792359Y-73438045D01*
X105804314Y-73450000D01*
X104841128Y-73450000D01*
X104893730Y-73646317D01*
X104893734Y-73646326D01*
X104989865Y-73852482D01*
X105120342Y-74038820D01*
X105281179Y-74199657D01*
X105467517Y-74330134D01*
X105673673Y-74426265D01*
X105673682Y-74426269D01*
X105869999Y-74478872D01*
X105870000Y-74478871D01*
X105870000Y-73515686D01*
X105881955Y-73527641D01*
X105994852Y-73585165D01*
X106088519Y-73600000D01*
X106151481Y-73600000D01*
X106245148Y-73585165D01*
X106358045Y-73527641D01*
X106370000Y-73515686D01*
X106370000Y-74478872D01*
X106566317Y-74426269D01*
X106566326Y-74426265D01*
X106772482Y-74330134D01*
X106958820Y-74199657D01*
X107119657Y-74038820D01*
X107250134Y-73852482D01*
X107346265Y-73646326D01*
X107346269Y-73646317D01*
X107398872Y-73450000D01*
X106435686Y-73450000D01*
X106447641Y-73438045D01*
X106505165Y-73325148D01*
X106524986Y-73200001D01*
X114966502Y-73200001D01*
X114986456Y-73428081D01*
X114986457Y-73428089D01*
X115045714Y-73649238D01*
X115045718Y-73649249D01*
X115102167Y-73770304D01*
X115142477Y-73856749D01*
X115273802Y-74044300D01*
X115435700Y-74206198D01*
X115623251Y-74337523D01*
X115721185Y-74383190D01*
X115830750Y-74434281D01*
X115830752Y-74434281D01*
X115830757Y-74434284D01*
X116051913Y-74493543D01*
X116214832Y-74507796D01*
X116279998Y-74513498D01*
X116280000Y-74513498D01*
X116280002Y-74513498D01*
X116337021Y-74508509D01*
X116508087Y-74493543D01*
X116729243Y-74434284D01*
X116936749Y-74337523D01*
X117124300Y-74206198D01*
X117286198Y-74044300D01*
X117417523Y-73856749D01*
X117514284Y-73649243D01*
X117573543Y-73428087D01*
X117592138Y-73215545D01*
X117593498Y-73200001D01*
X118936502Y-73200001D01*
X118956456Y-73428081D01*
X118956457Y-73428089D01*
X119015714Y-73649238D01*
X119015718Y-73649249D01*
X119072167Y-73770304D01*
X119112477Y-73856749D01*
X119243802Y-74044300D01*
X119405700Y-74206198D01*
X119593251Y-74337523D01*
X119691185Y-74383190D01*
X119800750Y-74434281D01*
X119800752Y-74434281D01*
X119800757Y-74434284D01*
X120021913Y-74493543D01*
X120184832Y-74507796D01*
X120249998Y-74513498D01*
X120250000Y-74513498D01*
X120250002Y-74513498D01*
X120307021Y-74508509D01*
X120478087Y-74493543D01*
X120699243Y-74434284D01*
X120906749Y-74337523D01*
X121094300Y-74206198D01*
X121256198Y-74044300D01*
X121387523Y-73856749D01*
X121387616Y-73856548D01*
X121387680Y-73856475D01*
X121390228Y-73852063D01*
X121391114Y-73852574D01*
X121433785Y-73804108D01*
X121500978Y-73784953D01*
X121567860Y-73805165D01*
X121608922Y-73852553D01*
X121609772Y-73852063D01*
X121612317Y-73856471D01*
X121612383Y-73856547D01*
X121612477Y-73856749D01*
X121743802Y-74044300D01*
X121905700Y-74206198D01*
X122093251Y-74337523D01*
X122191185Y-74383190D01*
X122300750Y-74434281D01*
X122300752Y-74434281D01*
X122300757Y-74434284D01*
X122521913Y-74493543D01*
X122684832Y-74507796D01*
X122749998Y-74513498D01*
X122750000Y-74513498D01*
X122750002Y-74513498D01*
X122807021Y-74508509D01*
X122978087Y-74493543D01*
X123199243Y-74434284D01*
X123406749Y-74337523D01*
X123594300Y-74206198D01*
X123756198Y-74044300D01*
X123887523Y-73856749D01*
X123984284Y-73649243D01*
X124043543Y-73428087D01*
X124062138Y-73215545D01*
X124063498Y-73200001D01*
X124063498Y-73199998D01*
X124052549Y-73074852D01*
X124043543Y-72971913D01*
X123984284Y-72750757D01*
X123960616Y-72700001D01*
X131486502Y-72700001D01*
X131506456Y-72928081D01*
X131506457Y-72928089D01*
X131565714Y-73149238D01*
X131565718Y-73149249D01*
X131662475Y-73356745D01*
X131662477Y-73356749D01*
X131793802Y-73544300D01*
X131955700Y-73706198D01*
X132143251Y-73837523D01*
X132251093Y-73887810D01*
X132350750Y-73934281D01*
X132350752Y-73934281D01*
X132350757Y-73934284D01*
X132571913Y-73993543D01*
X132734832Y-74007796D01*
X132799998Y-74013498D01*
X132800000Y-74013498D01*
X132800002Y-74013498D01*
X132857021Y-74008509D01*
X133028087Y-73993543D01*
X133249243Y-73934284D01*
X133456749Y-73837523D01*
X133644300Y-73706198D01*
X133806198Y-73544300D01*
X133937523Y-73356749D01*
X134034284Y-73149243D01*
X134093543Y-72928087D01*
X134113498Y-72700000D01*
X134093543Y-72471913D01*
X134034284Y-72250757D01*
X134007727Y-72193806D01*
X133946488Y-72062477D01*
X133937523Y-72043251D01*
X133806198Y-71855700D01*
X133644300Y-71693802D01*
X133456749Y-71562477D01*
X133456745Y-71562475D01*
X133249249Y-71465718D01*
X133249238Y-71465714D01*
X133028089Y-71406457D01*
X133028081Y-71406456D01*
X132800002Y-71386502D01*
X132799998Y-71386502D01*
X132571918Y-71406456D01*
X132571910Y-71406457D01*
X132350761Y-71465714D01*
X132350750Y-71465718D01*
X132143254Y-71562475D01*
X132143252Y-71562476D01*
X132143251Y-71562477D01*
X131955700Y-71693802D01*
X131955698Y-71693803D01*
X131955695Y-71693806D01*
X131793806Y-71855695D01*
X131793803Y-71855698D01*
X131793802Y-71855700D01*
X131732805Y-71942812D01*
X131662476Y-72043252D01*
X131662475Y-72043254D01*
X131565718Y-72250750D01*
X131565714Y-72250761D01*
X131506457Y-72471910D01*
X131506456Y-72471918D01*
X131486502Y-72699998D01*
X131486502Y-72700001D01*
X123960616Y-72700001D01*
X123887523Y-72543251D01*
X123756198Y-72355700D01*
X123594300Y-72193802D01*
X123406749Y-72062477D01*
X123406745Y-72062475D01*
X123199249Y-71965718D01*
X123199238Y-71965714D01*
X122978089Y-71906457D01*
X122978081Y-71906456D01*
X122750002Y-71886502D01*
X122749998Y-71886502D01*
X122521918Y-71906456D01*
X122521910Y-71906457D01*
X122300761Y-71965714D01*
X122300750Y-71965718D01*
X122093254Y-72062475D01*
X122093252Y-72062476D01*
X122093251Y-72062477D01*
X121905700Y-72193802D01*
X121905698Y-72193803D01*
X121905695Y-72193806D01*
X121743806Y-72355695D01*
X121612477Y-72543250D01*
X121612431Y-72543347D01*
X121612379Y-72543459D01*
X121612313Y-72543534D01*
X121609772Y-72547937D01*
X121608886Y-72547426D01*
X121566207Y-72595896D01*
X121499013Y-72615046D01*
X121432132Y-72594828D01*
X121391075Y-72547447D01*
X121390228Y-72547937D01*
X121387688Y-72543538D01*
X121387620Y-72543459D01*
X121387523Y-72543251D01*
X121256198Y-72355700D01*
X121094300Y-72193802D01*
X120906749Y-72062477D01*
X120906745Y-72062475D01*
X120699249Y-71965718D01*
X120699238Y-71965714D01*
X120478089Y-71906457D01*
X120478081Y-71906456D01*
X120250002Y-71886502D01*
X120249998Y-71886502D01*
X120021918Y-71906456D01*
X120021910Y-71906457D01*
X119800761Y-71965714D01*
X119800750Y-71965718D01*
X119593254Y-72062475D01*
X119593252Y-72062476D01*
X119593251Y-72062477D01*
X119405700Y-72193802D01*
X119405698Y-72193803D01*
X119405695Y-72193806D01*
X119243806Y-72355695D01*
X119112476Y-72543252D01*
X119112475Y-72543254D01*
X119015718Y-72750750D01*
X119015714Y-72750761D01*
X118956457Y-72971910D01*
X118956456Y-72971918D01*
X118936502Y-73199998D01*
X118936502Y-73200001D01*
X117593498Y-73200001D01*
X117593498Y-73199998D01*
X117582549Y-73074852D01*
X117573543Y-72971913D01*
X117514284Y-72750757D01*
X117417523Y-72543251D01*
X117286198Y-72355700D01*
X117124300Y-72193802D01*
X116936749Y-72062477D01*
X116936745Y-72062475D01*
X116729249Y-71965718D01*
X116729238Y-71965714D01*
X116508089Y-71906457D01*
X116508081Y-71906456D01*
X116280002Y-71886502D01*
X116279998Y-71886502D01*
X116051918Y-71906456D01*
X116051910Y-71906457D01*
X115830761Y-71965714D01*
X115830750Y-71965718D01*
X115623254Y-72062475D01*
X115623252Y-72062476D01*
X115623251Y-72062477D01*
X115435700Y-72193802D01*
X115435698Y-72193803D01*
X115435695Y-72193806D01*
X115273806Y-72355695D01*
X115142476Y-72543252D01*
X115142475Y-72543254D01*
X115045718Y-72750750D01*
X115045714Y-72750761D01*
X114986457Y-72971910D01*
X114986456Y-72971918D01*
X114966502Y-73199998D01*
X114966502Y-73200001D01*
X106524986Y-73200001D01*
X106524986Y-73200000D01*
X106505165Y-73074852D01*
X106447641Y-72961955D01*
X106435686Y-72950000D01*
X107398872Y-72950000D01*
X107398872Y-72949999D01*
X107346269Y-72753682D01*
X107346265Y-72753673D01*
X107250134Y-72547517D01*
X107119657Y-72361179D01*
X106958820Y-72200342D01*
X106772482Y-72069865D01*
X106566328Y-71973734D01*
X106370000Y-71921127D01*
X106370000Y-72884314D01*
X106358045Y-72872359D01*
X106245148Y-72814835D01*
X106151481Y-72800000D01*
X106088519Y-72800000D01*
X105994852Y-72814835D01*
X105881955Y-72872359D01*
X105870000Y-72884314D01*
X105870000Y-71921127D01*
X105673671Y-71973734D01*
X105467517Y-72069865D01*
X105281179Y-72200342D01*
X105120342Y-72361179D01*
X104989865Y-72547517D01*
X104893734Y-72753673D01*
X104893730Y-72753682D01*
X104841127Y-72949999D01*
X102888500Y-72949999D01*
X102888500Y-69800001D01*
X118886502Y-69800001D01*
X118906456Y-70028081D01*
X118906457Y-70028089D01*
X118965714Y-70249238D01*
X118965718Y-70249249D01*
X118986373Y-70293543D01*
X119062477Y-70456749D01*
X119193802Y-70644300D01*
X119355700Y-70806198D01*
X119543251Y-70937523D01*
X119668091Y-70995736D01*
X119750750Y-71034281D01*
X119750752Y-71034281D01*
X119750757Y-71034284D01*
X119971913Y-71093543D01*
X120134832Y-71107796D01*
X120199998Y-71113498D01*
X120200000Y-71113498D01*
X120200002Y-71113498D01*
X120257021Y-71108509D01*
X120428087Y-71093543D01*
X120649243Y-71034284D01*
X120856749Y-70937523D01*
X121044300Y-70806198D01*
X121206198Y-70644300D01*
X121337523Y-70456749D01*
X121434284Y-70249243D01*
X121493543Y-70028087D01*
X121513498Y-69800001D01*
X129046502Y-69800001D01*
X129066456Y-70028081D01*
X129066457Y-70028089D01*
X129125714Y-70249238D01*
X129125718Y-70249249D01*
X129146373Y-70293543D01*
X129222477Y-70456749D01*
X129353802Y-70644300D01*
X129515700Y-70806198D01*
X129703251Y-70937523D01*
X129828091Y-70995736D01*
X129910750Y-71034281D01*
X129910752Y-71034281D01*
X129910757Y-71034284D01*
X130131913Y-71093543D01*
X130294832Y-71107796D01*
X130359998Y-71113498D01*
X130360000Y-71113498D01*
X130360002Y-71113498D01*
X130417021Y-71108509D01*
X130588087Y-71093543D01*
X130809243Y-71034284D01*
X131016749Y-70937523D01*
X131204300Y-70806198D01*
X131366198Y-70644300D01*
X131497523Y-70456749D01*
X131594284Y-70249243D01*
X131653543Y-70028087D01*
X131673498Y-69800000D01*
X131653543Y-69571913D01*
X131594284Y-69350757D01*
X131497523Y-69143251D01*
X131397218Y-69000001D01*
X132086502Y-69000001D01*
X132106456Y-69228081D01*
X132106457Y-69228089D01*
X132165714Y-69449238D01*
X132165718Y-69449249D01*
X132240065Y-69608686D01*
X132262477Y-69656749D01*
X132393802Y-69844300D01*
X132555700Y-70006198D01*
X132743251Y-70137523D01*
X132868091Y-70195736D01*
X132950750Y-70234281D01*
X132950752Y-70234281D01*
X132950757Y-70234284D01*
X133171913Y-70293543D01*
X133334832Y-70307796D01*
X133399998Y-70313498D01*
X133400000Y-70313498D01*
X133400002Y-70313498D01*
X133457021Y-70308509D01*
X133628087Y-70293543D01*
X133849243Y-70234284D01*
X134056749Y-70137523D01*
X134244300Y-70006198D01*
X134406198Y-69844300D01*
X134537523Y-69656749D01*
X134634284Y-69449243D01*
X134693543Y-69228087D01*
X134713498Y-69000000D01*
X134693543Y-68771913D01*
X134634284Y-68550757D01*
X134537523Y-68343251D01*
X134406198Y-68155700D01*
X134244300Y-67993802D01*
X134056749Y-67862477D01*
X133996289Y-67834284D01*
X133849249Y-67765718D01*
X133849238Y-67765714D01*
X133628089Y-67706457D01*
X133628081Y-67706456D01*
X133400002Y-67686502D01*
X133399998Y-67686502D01*
X133171918Y-67706456D01*
X133171910Y-67706457D01*
X132950761Y-67765714D01*
X132950750Y-67765718D01*
X132743254Y-67862475D01*
X132743252Y-67862476D01*
X132698886Y-67893542D01*
X132555700Y-67993802D01*
X132555698Y-67993803D01*
X132555695Y-67993806D01*
X132393806Y-68155695D01*
X132262476Y-68343252D01*
X132262475Y-68343254D01*
X132165718Y-68550750D01*
X132165714Y-68550761D01*
X132106457Y-68771910D01*
X132106456Y-68771918D01*
X132086502Y-68999998D01*
X132086502Y-69000001D01*
X131397218Y-69000001D01*
X131366198Y-68955700D01*
X131204300Y-68793802D01*
X131016749Y-68662477D01*
X130946126Y-68629545D01*
X130809249Y-68565718D01*
X130809238Y-68565714D01*
X130588089Y-68506457D01*
X130588081Y-68506456D01*
X130360002Y-68486502D01*
X130359998Y-68486502D01*
X130131918Y-68506456D01*
X130131910Y-68506457D01*
X129910761Y-68565714D01*
X129910750Y-68565718D01*
X129703254Y-68662475D01*
X129703252Y-68662476D01*
X129648015Y-68701154D01*
X129515700Y-68793802D01*
X129515698Y-68793803D01*
X129515695Y-68793806D01*
X129353806Y-68955695D01*
X129353803Y-68955698D01*
X129353802Y-68955700D01*
X129311747Y-69015761D01*
X129222476Y-69143252D01*
X129222475Y-69143254D01*
X129125718Y-69350750D01*
X129125714Y-69350761D01*
X129066457Y-69571910D01*
X129066456Y-69571918D01*
X129046502Y-69799998D01*
X129046502Y-69800001D01*
X121513498Y-69800001D01*
X121513498Y-69800000D01*
X121493543Y-69571913D01*
X121434284Y-69350757D01*
X121337523Y-69143251D01*
X121206198Y-68955700D01*
X121044300Y-68793802D01*
X120856749Y-68662477D01*
X120786126Y-68629545D01*
X120649249Y-68565718D01*
X120649238Y-68565714D01*
X120428089Y-68506457D01*
X120428081Y-68506456D01*
X120200002Y-68486502D01*
X120199998Y-68486502D01*
X119971918Y-68506456D01*
X119971910Y-68506457D01*
X119750761Y-68565714D01*
X119750750Y-68565718D01*
X119543254Y-68662475D01*
X119543252Y-68662476D01*
X119488015Y-68701154D01*
X119355700Y-68793802D01*
X119355698Y-68793803D01*
X119355695Y-68793806D01*
X119193806Y-68955695D01*
X119193803Y-68955698D01*
X119193802Y-68955700D01*
X119151747Y-69015761D01*
X119062476Y-69143252D01*
X119062475Y-69143254D01*
X118965718Y-69350750D01*
X118965714Y-69350761D01*
X118906457Y-69571910D01*
X118906456Y-69571918D01*
X118886502Y-69799998D01*
X118886502Y-69800001D01*
X102888500Y-69800001D01*
X102888500Y-68701154D01*
X106491500Y-68701154D01*
X106498011Y-68761702D01*
X106498011Y-68761704D01*
X106549111Y-68898704D01*
X106636739Y-69015761D01*
X106753796Y-69103389D01*
X106890799Y-69154489D01*
X106918050Y-69157418D01*
X106951345Y-69160999D01*
X106951362Y-69161000D01*
X109048638Y-69161000D01*
X109048654Y-69160999D01*
X109075692Y-69158091D01*
X109109201Y-69154489D01*
X109246204Y-69103389D01*
X109363261Y-69015761D01*
X109450889Y-68898704D01*
X109501989Y-68761701D01*
X109505591Y-68728192D01*
X109508499Y-68701154D01*
X109508500Y-68701137D01*
X109508500Y-66698862D01*
X109508499Y-66698845D01*
X109505157Y-66667770D01*
X109501989Y-66638299D01*
X109487704Y-66600001D01*
X109479522Y-66578064D01*
X109450889Y-66501296D01*
X109363261Y-66384239D01*
X109246204Y-66296611D01*
X109224690Y-66288586D01*
X109168758Y-66246715D01*
X109144342Y-66181251D01*
X109159194Y-66112978D01*
X109170167Y-66096251D01*
X109274792Y-65961830D01*
X109390030Y-65748888D01*
X109468648Y-65519883D01*
X109508500Y-65281062D01*
X109508500Y-65038938D01*
X109468648Y-64800117D01*
X109439370Y-64714835D01*
X109414676Y-64642902D01*
X109390030Y-64571112D01*
X109274792Y-64358170D01*
X109274029Y-64357190D01*
X109193554Y-64253796D01*
X109126076Y-64167100D01*
X108947940Y-64003114D01*
X108947937Y-64003111D01*
X108925927Y-63988732D01*
X108880570Y-63935586D01*
X108871146Y-63866355D01*
X108900648Y-63803019D01*
X108925930Y-63781112D01*
X108942703Y-63770153D01*
X109119797Y-63607126D01*
X109119806Y-63607116D01*
X109267649Y-63417168D01*
X109267655Y-63417159D01*
X109382215Y-63205468D01*
X109382221Y-63205454D01*
X109460380Y-62977791D01*
X109478367Y-62870000D01*
X108494852Y-62870000D01*
X108543559Y-62732953D01*
X108553877Y-62582114D01*
X108523116Y-62434085D01*
X108489910Y-62370000D01*
X109478366Y-62370000D01*
X109478366Y-62369999D01*
X109460380Y-62262208D01*
X109439024Y-62200001D01*
X111826502Y-62200001D01*
X111846456Y-62428081D01*
X111846457Y-62428089D01*
X111905714Y-62649238D01*
X111905718Y-62649249D01*
X111925164Y-62690950D01*
X112002477Y-62856749D01*
X112133802Y-63044300D01*
X112295700Y-63206198D01*
X112483251Y-63337523D01*
X112608091Y-63395736D01*
X112690750Y-63434281D01*
X112690752Y-63434281D01*
X112690757Y-63434284D01*
X112911913Y-63493543D01*
X113074832Y-63507796D01*
X113139998Y-63513498D01*
X113140000Y-63513498D01*
X113140002Y-63513498D01*
X113197021Y-63508509D01*
X113368087Y-63493543D01*
X113589243Y-63434284D01*
X113796749Y-63337523D01*
X113984300Y-63206198D01*
X114146198Y-63044300D01*
X114277523Y-62856749D01*
X114374284Y-62649243D01*
X114433543Y-62428087D01*
X114453498Y-62200001D01*
X121986502Y-62200001D01*
X122006456Y-62428081D01*
X122006457Y-62428089D01*
X122065714Y-62649238D01*
X122065718Y-62649249D01*
X122085164Y-62690950D01*
X122162477Y-62856749D01*
X122293802Y-63044300D01*
X122455700Y-63206198D01*
X122643251Y-63337523D01*
X122768091Y-63395736D01*
X122850750Y-63434281D01*
X122850752Y-63434281D01*
X122850757Y-63434284D01*
X123071913Y-63493543D01*
X123234832Y-63507796D01*
X123299998Y-63513498D01*
X123300000Y-63513498D01*
X123300002Y-63513498D01*
X123357021Y-63508509D01*
X123528087Y-63493543D01*
X123749243Y-63434284D01*
X123956749Y-63337523D01*
X124119370Y-63223654D01*
X126136500Y-63223654D01*
X126143011Y-63284202D01*
X126143011Y-63284204D01*
X126192602Y-63417159D01*
X126194111Y-63421204D01*
X126281739Y-63538261D01*
X126398796Y-63625889D01*
X126535799Y-63676989D01*
X126563050Y-63679918D01*
X126596345Y-63683499D01*
X126596362Y-63683500D01*
X128293638Y-63683500D01*
X128293654Y-63683499D01*
X128320692Y-63680591D01*
X128354201Y-63676989D01*
X128491204Y-63625889D01*
X128608261Y-63538261D01*
X128695889Y-63421204D01*
X128746989Y-63284201D01*
X128749950Y-63256653D01*
X128776686Y-63192105D01*
X128834077Y-63152255D01*
X128903903Y-63149760D01*
X128963992Y-63185411D01*
X128974813Y-63198784D01*
X128985340Y-63213818D01*
X129146179Y-63374657D01*
X129332517Y-63505134D01*
X129538673Y-63601265D01*
X129538682Y-63601269D01*
X129734999Y-63653872D01*
X129735000Y-63653871D01*
X129735000Y-62290686D01*
X129746955Y-62302641D01*
X129859852Y-62360165D01*
X129953519Y-62375000D01*
X130016481Y-62375000D01*
X130110148Y-62360165D01*
X130223045Y-62302641D01*
X130235000Y-62290686D01*
X130235000Y-63653872D01*
X130431317Y-63601269D01*
X130431326Y-63601265D01*
X130637482Y-63505134D01*
X130823820Y-63374657D01*
X130984657Y-63213820D01*
X131115133Y-63027483D01*
X131137927Y-62978600D01*
X131184098Y-62926160D01*
X131251292Y-62907007D01*
X131318173Y-62927221D01*
X131362691Y-62978596D01*
X131387477Y-63031749D01*
X131518802Y-63219300D01*
X131680700Y-63381198D01*
X131868251Y-63512523D01*
X131993091Y-63570736D01*
X132075750Y-63609281D01*
X132075752Y-63609281D01*
X132075757Y-63609284D01*
X132175302Y-63635957D01*
X132234963Y-63672322D01*
X132265492Y-63735169D01*
X132257197Y-63804544D01*
X132212712Y-63858422D01*
X132195614Y-63868114D01*
X131993251Y-63962476D01*
X131879184Y-64042348D01*
X131805700Y-64093802D01*
X131805698Y-64093803D01*
X131805695Y-64093806D01*
X131643806Y-64255695D01*
X131643803Y-64255698D01*
X131643802Y-64255700D01*
X131572740Y-64357187D01*
X131512476Y-64443252D01*
X131512475Y-64443254D01*
X131415718Y-64650750D01*
X131415714Y-64650761D01*
X131356457Y-64871910D01*
X131356456Y-64871918D01*
X131336502Y-65099998D01*
X131336502Y-65100001D01*
X131356456Y-65328081D01*
X131356457Y-65328089D01*
X131415714Y-65549238D01*
X131415718Y-65549249D01*
X131511987Y-65755699D01*
X131512477Y-65756749D01*
X131643802Y-65944300D01*
X131805700Y-66106198D01*
X131993251Y-66237523D01*
X132107421Y-66290761D01*
X132200750Y-66334281D01*
X132200752Y-66334281D01*
X132200757Y-66334284D01*
X132421913Y-66393543D01*
X132584832Y-66407796D01*
X132649998Y-66413498D01*
X132650000Y-66413498D01*
X132650002Y-66413498D01*
X132707021Y-66408509D01*
X132878087Y-66393543D01*
X133099243Y-66334284D01*
X133306749Y-66237523D01*
X133494300Y-66106198D01*
X133656198Y-65944300D01*
X133787523Y-65756749D01*
X133792307Y-65746487D01*
X133838476Y-65694051D01*
X133905669Y-65674897D01*
X133972551Y-65695111D01*
X134017072Y-65746490D01*
X134019866Y-65752483D01*
X134070973Y-65825471D01*
X134070974Y-65825472D01*
X134752046Y-65144399D01*
X134764835Y-65225148D01*
X134822359Y-65338045D01*
X134911955Y-65427641D01*
X135024852Y-65485165D01*
X135105599Y-65497953D01*
X134424526Y-66179025D01*
X134424526Y-66179026D01*
X134497512Y-66230131D01*
X134497516Y-66230133D01*
X134703673Y-66326265D01*
X134703682Y-66326269D01*
X134923389Y-66385139D01*
X134923400Y-66385141D01*
X135149998Y-66404966D01*
X135150002Y-66404966D01*
X135376599Y-66385141D01*
X135376610Y-66385139D01*
X135596317Y-66326269D01*
X135596331Y-66326264D01*
X135802478Y-66230136D01*
X135875472Y-66179025D01*
X135194401Y-65497953D01*
X135275148Y-65485165D01*
X135388045Y-65427641D01*
X135477641Y-65338045D01*
X135535165Y-65225148D01*
X135547953Y-65144400D01*
X136229025Y-65825472D01*
X136280136Y-65752478D01*
X136376264Y-65546331D01*
X136376269Y-65546317D01*
X136435139Y-65326610D01*
X136435141Y-65326599D01*
X136454966Y-65100002D01*
X136454966Y-65099997D01*
X136435141Y-64873400D01*
X136435139Y-64873389D01*
X136376269Y-64653682D01*
X136376265Y-64653673D01*
X136280133Y-64447516D01*
X136280131Y-64447512D01*
X136229026Y-64374526D01*
X136229025Y-64374526D01*
X135547953Y-65055598D01*
X135535165Y-64974852D01*
X135477641Y-64861955D01*
X135388045Y-64772359D01*
X135275148Y-64714835D01*
X135194400Y-64702046D01*
X135875472Y-64020974D01*
X135875471Y-64020973D01*
X135802483Y-63969866D01*
X135802481Y-63969865D01*
X135596326Y-63873734D01*
X135596319Y-63873731D01*
X135508822Y-63850286D01*
X135449162Y-63813920D01*
X135418633Y-63751073D01*
X135426928Y-63681698D01*
X135471414Y-63627820D01*
X135508825Y-63610735D01*
X135514243Y-63609284D01*
X135721749Y-63512523D01*
X135909300Y-63381198D01*
X136071198Y-63219300D01*
X136202523Y-63031749D01*
X136227307Y-62978598D01*
X136273479Y-62926159D01*
X136340672Y-62907007D01*
X136407553Y-62927222D01*
X136452071Y-62978599D01*
X136474864Y-63027479D01*
X136474865Y-63027481D01*
X136605342Y-63213820D01*
X136766179Y-63374657D01*
X136952517Y-63505134D01*
X137158673Y-63601265D01*
X137158682Y-63601269D01*
X137354999Y-63653872D01*
X137355000Y-63653871D01*
X137355000Y-62290686D01*
X137366955Y-62302641D01*
X137479852Y-62360165D01*
X137573519Y-62375000D01*
X137636481Y-62375000D01*
X137730148Y-62360165D01*
X137843045Y-62302641D01*
X137855000Y-62290686D01*
X137855000Y-63653872D01*
X138051317Y-63601269D01*
X138051326Y-63601265D01*
X138257482Y-63505134D01*
X138443820Y-63374657D01*
X138604657Y-63213820D01*
X138735133Y-63027483D01*
X138757927Y-62978600D01*
X138804098Y-62926160D01*
X138871292Y-62907007D01*
X138938173Y-62927221D01*
X138982691Y-62978596D01*
X139007477Y-63031749D01*
X139138802Y-63219300D01*
X139300700Y-63381198D01*
X139488251Y-63512523D01*
X139613091Y-63570736D01*
X139695750Y-63609281D01*
X139695752Y-63609281D01*
X139695757Y-63609284D01*
X139916913Y-63668543D01*
X140067276Y-63681698D01*
X140144998Y-63688498D01*
X140145000Y-63688498D01*
X140145002Y-63688498D01*
X140222724Y-63681698D01*
X140373087Y-63668543D01*
X140594243Y-63609284D01*
X140801749Y-63512523D01*
X140989300Y-63381198D01*
X141151198Y-63219300D01*
X141282523Y-63031749D01*
X141302618Y-62988655D01*
X141348790Y-62936215D01*
X141415983Y-62917063D01*
X141482864Y-62937278D01*
X141527382Y-62988655D01*
X141547477Y-63031749D01*
X141678802Y-63219300D01*
X141840700Y-63381198D01*
X142028251Y-63512523D01*
X142153091Y-63570736D01*
X142235750Y-63609281D01*
X142235752Y-63609281D01*
X142235757Y-63609284D01*
X142456913Y-63668543D01*
X142607276Y-63681698D01*
X142684998Y-63688498D01*
X142685000Y-63688498D01*
X142685002Y-63688498D01*
X142762724Y-63681698D01*
X142913087Y-63668543D01*
X143134243Y-63609284D01*
X143341749Y-63512523D01*
X143529300Y-63381198D01*
X143691198Y-63219300D01*
X143765926Y-63112576D01*
X143820502Y-63068953D01*
X143890000Y-63061760D01*
X143952355Y-63093282D01*
X143987769Y-63153512D01*
X143991500Y-63183701D01*
X143991500Y-64072324D01*
X143971815Y-64139363D01*
X143955181Y-64160005D01*
X134975050Y-73140135D01*
X134960259Y-73152769D01*
X134948746Y-73161133D01*
X134901869Y-73213195D01*
X134899639Y-73215545D01*
X134883939Y-73231247D01*
X134883928Y-73231258D01*
X134869948Y-73248521D01*
X134867843Y-73250985D01*
X134820962Y-73303052D01*
X134820957Y-73303059D01*
X134813838Y-73315388D01*
X134802833Y-73331400D01*
X134793873Y-73342466D01*
X134793871Y-73342468D01*
X134762053Y-73404913D01*
X134760505Y-73407765D01*
X134725471Y-73468445D01*
X134721071Y-73481988D01*
X134713630Y-73499951D01*
X134707171Y-73512628D01*
X134707169Y-73512634D01*
X134698683Y-73544304D01*
X134689031Y-73580324D01*
X134688115Y-73583416D01*
X134666457Y-73650074D01*
X134666457Y-73650077D01*
X134664970Y-73664223D01*
X134661427Y-73683344D01*
X134657742Y-73697097D01*
X134654074Y-73767073D01*
X134653820Y-73770304D01*
X134651500Y-73792392D01*
X134651500Y-73814594D01*
X134651415Y-73817839D01*
X134647748Y-73887809D01*
X134649973Y-73901856D01*
X134651500Y-73921256D01*
X134651500Y-96392697D01*
X134631815Y-96459736D01*
X134618729Y-96476680D01*
X134484284Y-96622723D01*
X134484276Y-96622734D01*
X134393808Y-96761206D01*
X134340662Y-96806562D01*
X134271431Y-96815986D01*
X134208095Y-96786484D01*
X134186192Y-96761206D01*
X134116587Y-96654668D01*
X134095722Y-96622732D01*
X134095719Y-96622729D01*
X134095715Y-96622723D01*
X133943243Y-96457097D01*
X133943238Y-96457092D01*
X133765577Y-96318812D01*
X133765572Y-96318808D01*
X133567580Y-96211661D01*
X133567577Y-96211659D01*
X133567574Y-96211658D01*
X133567571Y-96211657D01*
X133567569Y-96211656D01*
X133354637Y-96138556D01*
X133132569Y-96101500D01*
X132907431Y-96101500D01*
X132685362Y-96138556D01*
X132472430Y-96211656D01*
X132472419Y-96211661D01*
X132274427Y-96318808D01*
X132274422Y-96318812D01*
X132096761Y-96457092D01*
X132096756Y-96457097D01*
X131944284Y-96622723D01*
X131944276Y-96622734D01*
X131853808Y-96761206D01*
X131800662Y-96806562D01*
X131731431Y-96815986D01*
X131668095Y-96786484D01*
X131646192Y-96761206D01*
X131576587Y-96654668D01*
X131555722Y-96622732D01*
X131555719Y-96622729D01*
X131555715Y-96622723D01*
X131403243Y-96457097D01*
X131403238Y-96457092D01*
X131225577Y-96318812D01*
X131225572Y-96318808D01*
X131027580Y-96211661D01*
X131027577Y-96211659D01*
X131027574Y-96211658D01*
X131027571Y-96211657D01*
X131027569Y-96211656D01*
X130814637Y-96138556D01*
X130592569Y-96101500D01*
X130367431Y-96101500D01*
X130145362Y-96138556D01*
X129932430Y-96211656D01*
X129932419Y-96211661D01*
X129734427Y-96318808D01*
X129734422Y-96318812D01*
X129556761Y-96457092D01*
X129493548Y-96525760D01*
X129433661Y-96561750D01*
X129363823Y-96559649D01*
X129306207Y-96520124D01*
X129286138Y-96485110D01*
X129240889Y-96363796D01*
X129207214Y-96318812D01*
X129153261Y-96246739D01*
X129036204Y-96159111D01*
X129008125Y-96148638D01*
X128899203Y-96108011D01*
X128838654Y-96101500D01*
X128838638Y-96101500D01*
X127041362Y-96101500D01*
X127041345Y-96101500D01*
X126980797Y-96108011D01*
X126980795Y-96108011D01*
X126843795Y-96159111D01*
X126726739Y-96246739D01*
X126639111Y-96363795D01*
X126588011Y-96500795D01*
X126588011Y-96500797D01*
X126581500Y-96561345D01*
X126581500Y-98358654D01*
X126588011Y-98419202D01*
X126588011Y-98419204D01*
X126639111Y-98556204D01*
X126726739Y-98673261D01*
X126843796Y-98760889D01*
X126980799Y-98811989D01*
X127008050Y-98814918D01*
X127041345Y-98818499D01*
X127041362Y-98818500D01*
X128838638Y-98818500D01*
X128838654Y-98818499D01*
X128865692Y-98815591D01*
X128899201Y-98811989D01*
X129036204Y-98760889D01*
X129153261Y-98673261D01*
X129240889Y-98556204D01*
X129286138Y-98434887D01*
X129328009Y-98378956D01*
X129393474Y-98354539D01*
X129461746Y-98369391D01*
X129493545Y-98394236D01*
X129556760Y-98462906D01*
X129734424Y-98601189D01*
X129734425Y-98601189D01*
X129734427Y-98601191D01*
X129794314Y-98633600D01*
X129932426Y-98708342D01*
X130145365Y-98781444D01*
X130367431Y-98818500D01*
X130592569Y-98818500D01*
X130814635Y-98781444D01*
X131027574Y-98708342D01*
X131225576Y-98601189D01*
X131403240Y-98462906D01*
X131524594Y-98331082D01*
X131555715Y-98297276D01*
X131555715Y-98297275D01*
X131555722Y-98297268D01*
X131646193Y-98158790D01*
X131699338Y-98113437D01*
X131768569Y-98104013D01*
X131831905Y-98133515D01*
X131853804Y-98158787D01*
X131944278Y-98297268D01*
X131944283Y-98297273D01*
X131944284Y-98297276D01*
X132096756Y-98462902D01*
X132096760Y-98462906D01*
X132274424Y-98601189D01*
X132274425Y-98601189D01*
X132274427Y-98601191D01*
X132334314Y-98633600D01*
X132472426Y-98708342D01*
X132685365Y-98781444D01*
X132907431Y-98818500D01*
X133132569Y-98818500D01*
X133354635Y-98781444D01*
X133567574Y-98708342D01*
X133765576Y-98601189D01*
X133943240Y-98462906D01*
X134064594Y-98331082D01*
X134095715Y-98297276D01*
X134095715Y-98297275D01*
X134095722Y-98297268D01*
X134186193Y-98158790D01*
X134239338Y-98113437D01*
X134308569Y-98104013D01*
X134371905Y-98133515D01*
X134393804Y-98158787D01*
X134484278Y-98297268D01*
X134484283Y-98297273D01*
X134484284Y-98297276D01*
X134636756Y-98462902D01*
X134636760Y-98462906D01*
X134814424Y-98601189D01*
X134814425Y-98601189D01*
X134814427Y-98601191D01*
X134874314Y-98633600D01*
X135012426Y-98708342D01*
X135225365Y-98781444D01*
X135447431Y-98818500D01*
X135672569Y-98818500D01*
X135894635Y-98781444D01*
X136107574Y-98708342D01*
X136305576Y-98601189D01*
X136483240Y-98462906D01*
X136604594Y-98331082D01*
X136635715Y-98297276D01*
X136635715Y-98297275D01*
X136635722Y-98297268D01*
X136726193Y-98158790D01*
X136779338Y-98113437D01*
X136848569Y-98104013D01*
X136911905Y-98133515D01*
X136933804Y-98158787D01*
X137024278Y-98297268D01*
X137024283Y-98297273D01*
X137024284Y-98297276D01*
X137176756Y-98462902D01*
X137176760Y-98462906D01*
X137354424Y-98601189D01*
X137354425Y-98601189D01*
X137354427Y-98601191D01*
X137414314Y-98633600D01*
X137552426Y-98708342D01*
X137765365Y-98781444D01*
X137987431Y-98818500D01*
X138212569Y-98818500D01*
X138434635Y-98781444D01*
X138647574Y-98708342D01*
X138845576Y-98601189D01*
X139023240Y-98462906D01*
X139144594Y-98331082D01*
X139175715Y-98297276D01*
X139175715Y-98297275D01*
X139175722Y-98297268D01*
X139269749Y-98153347D01*
X139322894Y-98107994D01*
X139392125Y-98098570D01*
X139455461Y-98128072D01*
X139475130Y-98150048D01*
X139601890Y-98331078D01*
X139768917Y-98498105D01*
X139962421Y-98633600D01*
X140176507Y-98733429D01*
X140176516Y-98733433D01*
X140390000Y-98790634D01*
X140390000Y-97895501D01*
X140497685Y-97944680D01*
X140604237Y-97960000D01*
X140675763Y-97960000D01*
X140782315Y-97944680D01*
X140890000Y-97895501D01*
X140890000Y-98790633D01*
X141103483Y-98733433D01*
X141103492Y-98733429D01*
X141317578Y-98633600D01*
X141511082Y-98498105D01*
X141678105Y-98331082D01*
X141808425Y-98144968D01*
X141863002Y-98101344D01*
X141932501Y-98094151D01*
X141994855Y-98125673D01*
X142011575Y-98144968D01*
X142141894Y-98331082D01*
X142308917Y-98498105D01*
X142502421Y-98633600D01*
X142716507Y-98733429D01*
X142716516Y-98733433D01*
X142930000Y-98790634D01*
X142930000Y-97895501D01*
X143037685Y-97944680D01*
X143144237Y-97960000D01*
X143215763Y-97960000D01*
X143322315Y-97944680D01*
X143430000Y-97895501D01*
X143430000Y-98790633D01*
X143643483Y-98733433D01*
X143643492Y-98733429D01*
X143857578Y-98633600D01*
X144051082Y-98498105D01*
X144218105Y-98331082D01*
X144344868Y-98150048D01*
X144399445Y-98106423D01*
X144468944Y-98099231D01*
X144531298Y-98130753D01*
X144550251Y-98153350D01*
X144644276Y-98297265D01*
X144644284Y-98297276D01*
X144796756Y-98462902D01*
X144796760Y-98462906D01*
X144974424Y-98601189D01*
X144974425Y-98601189D01*
X144974427Y-98601191D01*
X145034314Y-98633600D01*
X145172426Y-98708342D01*
X145385365Y-98781444D01*
X145607431Y-98818500D01*
X145832569Y-98818500D01*
X146054635Y-98781444D01*
X146267574Y-98708342D01*
X146465576Y-98601189D01*
X146643240Y-98462906D01*
X146739212Y-98358654D01*
X149441500Y-98358654D01*
X149448011Y-98419202D01*
X149448011Y-98419204D01*
X149499111Y-98556204D01*
X149586739Y-98673261D01*
X149703796Y-98760889D01*
X149840799Y-98811989D01*
X149868050Y-98814918D01*
X149901345Y-98818499D01*
X149901362Y-98818500D01*
X151698638Y-98818500D01*
X151698654Y-98818499D01*
X151725692Y-98815591D01*
X151759201Y-98811989D01*
X151896204Y-98760889D01*
X152013261Y-98673261D01*
X152100889Y-98556204D01*
X152146138Y-98434887D01*
X152188009Y-98378956D01*
X152253474Y-98354539D01*
X152321746Y-98369391D01*
X152353545Y-98394236D01*
X152416760Y-98462906D01*
X152594424Y-98601189D01*
X152594425Y-98601189D01*
X152594427Y-98601191D01*
X152654314Y-98633600D01*
X152792426Y-98708342D01*
X153005365Y-98781444D01*
X153227431Y-98818500D01*
X153452569Y-98818500D01*
X153674635Y-98781444D01*
X153887574Y-98708342D01*
X154085576Y-98601189D01*
X154263240Y-98462906D01*
X154384594Y-98331082D01*
X154415715Y-98297276D01*
X154415715Y-98297275D01*
X154415722Y-98297268D01*
X154506193Y-98158790D01*
X154559338Y-98113437D01*
X154628569Y-98104013D01*
X154691905Y-98133515D01*
X154713804Y-98158787D01*
X154804278Y-98297268D01*
X154804283Y-98297273D01*
X154804284Y-98297276D01*
X154956756Y-98462902D01*
X154956760Y-98462906D01*
X155134424Y-98601189D01*
X155134425Y-98601189D01*
X155134427Y-98601191D01*
X155194314Y-98633600D01*
X155332426Y-98708342D01*
X155545365Y-98781444D01*
X155767431Y-98818500D01*
X155992569Y-98818500D01*
X156214635Y-98781444D01*
X156427574Y-98708342D01*
X156625576Y-98601189D01*
X156803240Y-98462906D01*
X156924594Y-98331082D01*
X156955715Y-98297276D01*
X156955715Y-98297275D01*
X156955722Y-98297268D01*
X157046193Y-98158790D01*
X157099338Y-98113437D01*
X157168569Y-98104013D01*
X157231905Y-98133515D01*
X157253804Y-98158787D01*
X157344278Y-98297268D01*
X157344283Y-98297273D01*
X157344284Y-98297276D01*
X157496756Y-98462902D01*
X157496760Y-98462906D01*
X157674424Y-98601189D01*
X157674425Y-98601189D01*
X157674427Y-98601191D01*
X157734314Y-98633600D01*
X157872426Y-98708342D01*
X158085365Y-98781444D01*
X158307431Y-98818500D01*
X158532569Y-98818500D01*
X158754635Y-98781444D01*
X158967574Y-98708342D01*
X159165576Y-98601189D01*
X159343240Y-98462906D01*
X159464594Y-98331082D01*
X159495715Y-98297276D01*
X159495715Y-98297275D01*
X159495722Y-98297268D01*
X159586193Y-98158790D01*
X159639338Y-98113437D01*
X159708569Y-98104013D01*
X159771905Y-98133515D01*
X159793804Y-98158787D01*
X159884278Y-98297268D01*
X159884283Y-98297273D01*
X159884284Y-98297276D01*
X160036756Y-98462902D01*
X160036760Y-98462906D01*
X160214424Y-98601189D01*
X160214425Y-98601189D01*
X160214427Y-98601191D01*
X160274314Y-98633600D01*
X160412426Y-98708342D01*
X160625365Y-98781444D01*
X160847431Y-98818500D01*
X161072569Y-98818500D01*
X161294635Y-98781444D01*
X161507574Y-98708342D01*
X161705576Y-98601189D01*
X161883240Y-98462906D01*
X162004594Y-98331082D01*
X162035715Y-98297276D01*
X162035715Y-98297275D01*
X162035722Y-98297268D01*
X162126193Y-98158790D01*
X162179338Y-98113437D01*
X162248569Y-98104013D01*
X162311905Y-98133515D01*
X162333804Y-98158787D01*
X162424278Y-98297268D01*
X162424283Y-98297273D01*
X162424284Y-98297276D01*
X162576756Y-98462902D01*
X162576760Y-98462906D01*
X162754424Y-98601189D01*
X162754425Y-98601189D01*
X162754427Y-98601191D01*
X162814314Y-98633600D01*
X162952426Y-98708342D01*
X163165365Y-98781444D01*
X163387431Y-98818500D01*
X163612569Y-98818500D01*
X163834635Y-98781444D01*
X164047574Y-98708342D01*
X164245576Y-98601189D01*
X164423240Y-98462906D01*
X164544594Y-98331082D01*
X164575715Y-98297276D01*
X164575717Y-98297273D01*
X164575722Y-98297268D01*
X164698860Y-98108791D01*
X164789296Y-97902616D01*
X164844564Y-97684368D01*
X164844565Y-97684359D01*
X164863156Y-97460005D01*
X164863156Y-97459994D01*
X164844565Y-97235640D01*
X164844563Y-97235628D01*
X164789296Y-97017385D01*
X164786771Y-97011629D01*
X164698860Y-96811209D01*
X164696409Y-96807458D01*
X164596587Y-96654668D01*
X164575722Y-96622732D01*
X164575719Y-96622729D01*
X164575715Y-96622723D01*
X164423243Y-96457097D01*
X164423238Y-96457092D01*
X164245577Y-96318812D01*
X164245572Y-96318808D01*
X164047580Y-96211661D01*
X164047577Y-96211659D01*
X164047574Y-96211658D01*
X164047571Y-96211657D01*
X164047569Y-96211656D01*
X163834637Y-96138556D01*
X163612569Y-96101500D01*
X163387431Y-96101500D01*
X163165362Y-96138556D01*
X162952430Y-96211656D01*
X162952419Y-96211661D01*
X162754427Y-96318808D01*
X162754422Y-96318812D01*
X162576761Y-96457092D01*
X162576756Y-96457097D01*
X162424284Y-96622723D01*
X162424276Y-96622734D01*
X162333808Y-96761206D01*
X162280662Y-96806562D01*
X162211431Y-96815986D01*
X162148095Y-96786484D01*
X162126192Y-96761206D01*
X162056587Y-96654668D01*
X162035722Y-96622732D01*
X162035719Y-96622729D01*
X162035715Y-96622723D01*
X161883243Y-96457097D01*
X161883238Y-96457092D01*
X161705577Y-96318812D01*
X161705572Y-96318808D01*
X161507580Y-96211661D01*
X161507577Y-96211659D01*
X161507574Y-96211658D01*
X161507571Y-96211657D01*
X161507569Y-96211656D01*
X161294637Y-96138556D01*
X161072569Y-96101500D01*
X160847431Y-96101500D01*
X160625362Y-96138556D01*
X160412430Y-96211656D01*
X160412419Y-96211661D01*
X160214427Y-96318808D01*
X160214422Y-96318812D01*
X160036761Y-96457092D01*
X160036756Y-96457097D01*
X159884284Y-96622723D01*
X159884276Y-96622734D01*
X159793808Y-96761206D01*
X159740662Y-96806562D01*
X159671431Y-96815986D01*
X159608095Y-96786484D01*
X159586192Y-96761206D01*
X159516587Y-96654668D01*
X159495722Y-96622732D01*
X159495719Y-96622729D01*
X159495715Y-96622723D01*
X159343243Y-96457097D01*
X159343238Y-96457092D01*
X159165577Y-96318812D01*
X159165572Y-96318808D01*
X158967580Y-96211661D01*
X158967577Y-96211659D01*
X158967574Y-96211658D01*
X158967571Y-96211657D01*
X158967569Y-96211656D01*
X158754637Y-96138556D01*
X158532569Y-96101500D01*
X158307431Y-96101500D01*
X158085362Y-96138556D01*
X157872430Y-96211656D01*
X157872419Y-96211661D01*
X157674427Y-96318808D01*
X157674422Y-96318812D01*
X157496761Y-96457092D01*
X157496756Y-96457097D01*
X157344284Y-96622723D01*
X157344276Y-96622734D01*
X157253808Y-96761206D01*
X157200662Y-96806562D01*
X157131431Y-96815986D01*
X157068095Y-96786484D01*
X157046192Y-96761206D01*
X156976587Y-96654668D01*
X156955722Y-96622732D01*
X156955719Y-96622729D01*
X156955715Y-96622723D01*
X156803243Y-96457097D01*
X156803238Y-96457092D01*
X156625577Y-96318812D01*
X156625572Y-96318808D01*
X156427580Y-96211661D01*
X156427577Y-96211659D01*
X156427574Y-96211658D01*
X156427571Y-96211657D01*
X156427569Y-96211656D01*
X156214637Y-96138556D01*
X155992569Y-96101500D01*
X155767431Y-96101500D01*
X155545362Y-96138556D01*
X155332430Y-96211656D01*
X155332419Y-96211661D01*
X155134427Y-96318808D01*
X155134422Y-96318812D01*
X154956761Y-96457092D01*
X154956756Y-96457097D01*
X154804284Y-96622723D01*
X154804276Y-96622734D01*
X154713808Y-96761206D01*
X154660662Y-96806562D01*
X154591431Y-96815986D01*
X154528095Y-96786484D01*
X154506192Y-96761206D01*
X154436587Y-96654668D01*
X154415722Y-96622732D01*
X154415719Y-96622729D01*
X154415715Y-96622723D01*
X154281271Y-96476680D01*
X154250348Y-96414026D01*
X154248500Y-96392697D01*
X154248500Y-95787674D01*
X154268185Y-95720635D01*
X154284814Y-95699998D01*
X157574951Y-92409860D01*
X157589738Y-92397231D01*
X157601253Y-92388866D01*
X157648144Y-92336786D01*
X157650346Y-92334465D01*
X157666072Y-92318741D01*
X157680074Y-92301449D01*
X157682115Y-92299058D01*
X157729040Y-92246944D01*
X157733048Y-92240001D01*
X159294891Y-92240001D01*
X159315300Y-92525362D01*
X159376109Y-92804895D01*
X159476091Y-93072958D01*
X159613191Y-93324038D01*
X159613196Y-93324046D01*
X159719882Y-93466561D01*
X159719883Y-93466562D01*
X160615195Y-92571250D01*
X160637340Y-92622587D01*
X160743433Y-92765094D01*
X160879530Y-92879294D01*
X160969216Y-92924335D01*
X160073436Y-93820115D01*
X160215960Y-93926807D01*
X160215961Y-93926808D01*
X160467042Y-94063908D01*
X160467041Y-94063908D01*
X160735104Y-94163890D01*
X161014637Y-94224699D01*
X161299999Y-94245109D01*
X161300001Y-94245109D01*
X161585362Y-94224699D01*
X161864895Y-94163890D01*
X162132958Y-94063908D01*
X162384047Y-93926803D01*
X162526561Y-93820116D01*
X162526562Y-93820115D01*
X161633748Y-92927300D01*
X161643409Y-92923784D01*
X161791844Y-92826157D01*
X161913764Y-92696930D01*
X161985768Y-92572215D01*
X162880115Y-93466562D01*
X162880116Y-93466561D01*
X162986803Y-93324047D01*
X163123908Y-93072958D01*
X163223890Y-92804895D01*
X163284699Y-92525362D01*
X163305109Y-92240001D01*
X163305109Y-92239998D01*
X163284699Y-91954637D01*
X163223890Y-91675104D01*
X163123908Y-91407041D01*
X162986808Y-91155961D01*
X162986807Y-91155960D01*
X162880115Y-91013436D01*
X161984803Y-91908747D01*
X161962660Y-91857413D01*
X161856567Y-91714906D01*
X161720470Y-91600706D01*
X161630782Y-91555663D01*
X162526562Y-90659883D01*
X162526561Y-90659882D01*
X162384046Y-90553196D01*
X162384038Y-90553191D01*
X162132957Y-90416091D01*
X162132958Y-90416091D01*
X161864895Y-90316109D01*
X161585362Y-90255300D01*
X161300001Y-90234891D01*
X161299999Y-90234891D01*
X161014637Y-90255300D01*
X160735104Y-90316109D01*
X160467041Y-90416091D01*
X160215961Y-90553191D01*
X160215953Y-90553196D01*
X160073437Y-90659882D01*
X160073436Y-90659883D01*
X160966252Y-91552699D01*
X160956591Y-91556216D01*
X160808156Y-91653843D01*
X160686236Y-91783070D01*
X160614231Y-91907784D01*
X159719883Y-91013436D01*
X159719882Y-91013437D01*
X159613196Y-91155953D01*
X159613191Y-91155961D01*
X159476091Y-91407041D01*
X159376109Y-91675104D01*
X159315300Y-91954637D01*
X159294891Y-92239998D01*
X159294891Y-92240001D01*
X157733048Y-92240001D01*
X157736153Y-92234623D01*
X157747173Y-92218589D01*
X157756129Y-92207530D01*
X157787959Y-92145058D01*
X157789484Y-92142251D01*
X157824527Y-92081556D01*
X157828922Y-92068026D01*
X157836365Y-92050056D01*
X157842830Y-92037370D01*
X157860970Y-91969665D01*
X157861889Y-91966566D01*
X157883541Y-91899931D01*
X157883540Y-91899931D01*
X157883542Y-91899928D01*
X157885029Y-91885769D01*
X157888573Y-91866648D01*
X157892257Y-91852903D01*
X157895925Y-91782911D01*
X157896178Y-91779698D01*
X157898500Y-91757610D01*
X157898500Y-91735404D01*
X157898585Y-91732158D01*
X157899489Y-91714906D01*
X157902252Y-91662190D01*
X157900026Y-91648140D01*
X157898500Y-91628743D01*
X157898500Y-87160000D01*
X159286807Y-87160000D01*
X159305557Y-87434130D01*
X159305558Y-87434132D01*
X159361458Y-87703141D01*
X159361463Y-87703158D01*
X159453476Y-87962056D01*
X159579889Y-88206024D01*
X159579893Y-88206030D01*
X159738340Y-88430499D01*
X159738343Y-88430502D01*
X159925889Y-88631314D01*
X160139031Y-88804718D01*
X160139033Y-88804719D01*
X160139034Y-88804720D01*
X160373801Y-88947485D01*
X160517457Y-89009883D01*
X160625823Y-89056953D01*
X160890404Y-89131085D01*
X161129720Y-89163978D01*
X161162614Y-89168500D01*
X161162615Y-89168500D01*
X161437386Y-89168500D01*
X161466733Y-89164466D01*
X161709596Y-89131085D01*
X161974177Y-89056953D01*
X162178725Y-88968105D01*
X162226198Y-88947485D01*
X162226200Y-88947484D01*
X162460969Y-88804718D01*
X162674111Y-88631314D01*
X162861657Y-88430502D01*
X163020111Y-88206023D01*
X163146523Y-87962058D01*
X163238538Y-87703153D01*
X163238539Y-87703146D01*
X163238541Y-87703141D01*
X163264491Y-87578259D01*
X163294442Y-87434130D01*
X163313193Y-87160000D01*
X163294442Y-86885870D01*
X163275141Y-86792989D01*
X163238541Y-86616858D01*
X163238536Y-86616841D01*
X163213561Y-86546568D01*
X163146523Y-86357942D01*
X163020111Y-86113977D01*
X163020110Y-86113975D01*
X163020106Y-86113969D01*
X162861659Y-85889500D01*
X162786665Y-85809202D01*
X162674111Y-85688686D01*
X162460969Y-85515282D01*
X162460967Y-85515281D01*
X162460965Y-85515279D01*
X162226198Y-85372514D01*
X161974178Y-85263047D01*
X161709602Y-85188916D01*
X161709597Y-85188915D01*
X161709596Y-85188915D01*
X161573490Y-85170207D01*
X161437386Y-85151500D01*
X161437385Y-85151500D01*
X161162615Y-85151500D01*
X161162614Y-85151500D01*
X160890404Y-85188915D01*
X160890397Y-85188916D01*
X160625821Y-85263047D01*
X160373801Y-85372514D01*
X160139034Y-85515279D01*
X159925892Y-85688683D01*
X159738340Y-85889500D01*
X159579893Y-86113969D01*
X159579889Y-86113975D01*
X159453476Y-86357943D01*
X159361463Y-86616841D01*
X159361458Y-86616858D01*
X159305558Y-86885867D01*
X159305557Y-86885869D01*
X159286807Y-87160000D01*
X157898500Y-87160000D01*
X157898500Y-83628654D01*
X159291500Y-83628654D01*
X159298011Y-83689202D01*
X159298011Y-83689204D01*
X159349111Y-83826204D01*
X159436739Y-83943261D01*
X159553796Y-84030889D01*
X159690799Y-84081989D01*
X159718050Y-84084918D01*
X159751345Y-84088499D01*
X159751362Y-84088500D01*
X162848638Y-84088500D01*
X162848654Y-84088499D01*
X162875692Y-84085591D01*
X162909201Y-84081989D01*
X163046204Y-84030889D01*
X163163261Y-83943261D01*
X163250889Y-83826204D01*
X163296555Y-83703768D01*
X163301988Y-83689204D01*
X163301988Y-83689203D01*
X163301989Y-83689201D01*
X163308354Y-83630000D01*
X163308499Y-83628654D01*
X163308500Y-83628637D01*
X163308500Y-80531362D01*
X163308499Y-80531345D01*
X163305128Y-80499998D01*
X163301989Y-80470799D01*
X163250889Y-80333796D01*
X163163261Y-80216739D01*
X163046204Y-80129111D01*
X162909203Y-80078011D01*
X162848654Y-80071500D01*
X162848638Y-80071500D01*
X159751362Y-80071500D01*
X159751345Y-80071500D01*
X159690797Y-80078011D01*
X159690795Y-80078011D01*
X159553795Y-80129111D01*
X159436739Y-80216739D01*
X159349111Y-80333795D01*
X159298011Y-80470795D01*
X159298011Y-80470797D01*
X159291500Y-80531345D01*
X159291500Y-83628654D01*
X157898500Y-83628654D01*
X157898500Y-76160001D01*
X159294891Y-76160001D01*
X159315300Y-76445362D01*
X159376109Y-76724895D01*
X159476091Y-76992958D01*
X159613191Y-77244038D01*
X159613196Y-77244046D01*
X159719882Y-77386561D01*
X159719883Y-77386562D01*
X160615195Y-76491250D01*
X160637340Y-76542587D01*
X160743433Y-76685094D01*
X160879530Y-76799294D01*
X160969216Y-76844335D01*
X160073436Y-77740115D01*
X160215960Y-77846807D01*
X160215961Y-77846808D01*
X160467042Y-77983908D01*
X160467041Y-77983908D01*
X160735104Y-78083890D01*
X161014637Y-78144699D01*
X161299999Y-78165109D01*
X161300001Y-78165109D01*
X161585362Y-78144699D01*
X161864895Y-78083890D01*
X162132958Y-77983908D01*
X162384047Y-77846803D01*
X162526561Y-77740116D01*
X162526562Y-77740115D01*
X161633748Y-76847300D01*
X161643409Y-76843784D01*
X161791844Y-76746157D01*
X161913764Y-76616930D01*
X161985768Y-76492215D01*
X162880115Y-77386562D01*
X162880116Y-77386561D01*
X162986803Y-77244047D01*
X163123908Y-76992958D01*
X163223890Y-76724895D01*
X163284699Y-76445362D01*
X163305109Y-76160001D01*
X163305109Y-76159998D01*
X163284699Y-75874637D01*
X163223890Y-75595104D01*
X163123908Y-75327041D01*
X162986808Y-75075961D01*
X162986807Y-75075960D01*
X162880115Y-74933436D01*
X161984803Y-75828747D01*
X161962660Y-75777413D01*
X161856567Y-75634906D01*
X161720470Y-75520706D01*
X161630782Y-75475663D01*
X162526562Y-74579883D01*
X162526561Y-74579882D01*
X162384046Y-74473196D01*
X162384038Y-74473191D01*
X162132957Y-74336091D01*
X162132958Y-74336091D01*
X161864895Y-74236109D01*
X161585362Y-74175300D01*
X161300001Y-74154891D01*
X161299999Y-74154891D01*
X161014637Y-74175300D01*
X160735104Y-74236109D01*
X160467041Y-74336091D01*
X160215961Y-74473191D01*
X160215953Y-74473196D01*
X160073437Y-74579882D01*
X160073436Y-74579883D01*
X160966252Y-75472699D01*
X160956591Y-75476216D01*
X160808156Y-75573843D01*
X160686236Y-75703070D01*
X160614231Y-75827784D01*
X159719883Y-74933436D01*
X159719882Y-74933437D01*
X159613196Y-75075953D01*
X159613191Y-75075961D01*
X159476091Y-75327041D01*
X159376109Y-75595104D01*
X159315300Y-75874637D01*
X159294891Y-76159998D01*
X159294891Y-76160001D01*
X157898500Y-76160001D01*
X157898500Y-71080000D01*
X159286807Y-71080000D01*
X159305557Y-71354130D01*
X159305558Y-71354132D01*
X159361458Y-71623141D01*
X159361463Y-71623158D01*
X159453476Y-71882056D01*
X159579889Y-72126024D01*
X159579893Y-72126030D01*
X159738340Y-72350499D01*
X159748315Y-72361179D01*
X159925889Y-72551314D01*
X160139031Y-72724718D01*
X160139033Y-72724719D01*
X160139034Y-72724720D01*
X160373801Y-72867485D01*
X160563769Y-72949999D01*
X160625823Y-72976953D01*
X160890404Y-73051085D01*
X161129720Y-73083978D01*
X161162614Y-73088500D01*
X161162615Y-73088500D01*
X161437386Y-73088500D01*
X161466733Y-73084466D01*
X161709596Y-73051085D01*
X161974177Y-72976953D01*
X162226200Y-72867484D01*
X162460969Y-72724718D01*
X162674111Y-72551314D01*
X162861657Y-72350502D01*
X163020111Y-72126023D01*
X163146523Y-71882058D01*
X163238538Y-71623153D01*
X163238539Y-71623146D01*
X163238541Y-71623141D01*
X163264491Y-71498259D01*
X163294442Y-71354130D01*
X163313193Y-71080000D01*
X163295642Y-70823419D01*
X163294442Y-70805869D01*
X163294441Y-70805867D01*
X163238541Y-70536858D01*
X163238536Y-70536841D01*
X163210070Y-70456745D01*
X163146523Y-70277942D01*
X163020111Y-70033977D01*
X163020110Y-70033975D01*
X163020106Y-70033969D01*
X162861659Y-69809500D01*
X162843031Y-69789555D01*
X162674111Y-69608686D01*
X162460969Y-69435282D01*
X162460967Y-69435281D01*
X162460965Y-69435279D01*
X162226198Y-69292514D01*
X161974178Y-69183047D01*
X161709602Y-69108916D01*
X161709597Y-69108915D01*
X161709596Y-69108915D01*
X161573490Y-69090207D01*
X161437386Y-69071500D01*
X161437385Y-69071500D01*
X161162615Y-69071500D01*
X161162614Y-69071500D01*
X160890404Y-69108915D01*
X160890397Y-69108916D01*
X160625821Y-69183047D01*
X160373801Y-69292514D01*
X160139034Y-69435279D01*
X159925892Y-69608683D01*
X159738340Y-69809500D01*
X159579893Y-70033969D01*
X159579889Y-70033975D01*
X159453476Y-70277943D01*
X159361463Y-70536841D01*
X159361458Y-70536858D01*
X159305558Y-70805867D01*
X159305557Y-70805869D01*
X159286807Y-71080000D01*
X157898500Y-71080000D01*
X157898500Y-67548654D01*
X159291500Y-67548654D01*
X159298011Y-67609202D01*
X159298011Y-67609204D01*
X159337259Y-67714429D01*
X159349111Y-67746204D01*
X159436739Y-67863261D01*
X159553796Y-67950889D01*
X159690799Y-68001989D01*
X159718050Y-68004918D01*
X159751345Y-68008499D01*
X159751362Y-68008500D01*
X162848638Y-68008500D01*
X162848654Y-68008499D01*
X162875692Y-68005591D01*
X162909201Y-68001989D01*
X163046204Y-67950889D01*
X163163261Y-67863261D01*
X163250889Y-67746204D01*
X163301989Y-67609201D01*
X163305591Y-67575692D01*
X163308499Y-67548654D01*
X163308500Y-67548637D01*
X163308500Y-64451362D01*
X163308499Y-64451345D01*
X163302364Y-64394289D01*
X163301989Y-64390799D01*
X163295919Y-64374526D01*
X163279522Y-64330564D01*
X163250889Y-64253796D01*
X163163261Y-64136739D01*
X163046204Y-64049111D01*
X163042807Y-64047844D01*
X162909203Y-63998011D01*
X162848654Y-63991500D01*
X162848638Y-63991500D01*
X159751362Y-63991500D01*
X159751345Y-63991500D01*
X159690797Y-63998011D01*
X159690795Y-63998011D01*
X159553795Y-64049111D01*
X159436739Y-64136739D01*
X159349111Y-64253795D01*
X159298011Y-64390795D01*
X159298011Y-64390797D01*
X159291500Y-64451345D01*
X159291500Y-67548654D01*
X157898500Y-67548654D01*
X157898500Y-62153360D01*
X157918185Y-62086321D01*
X157934819Y-62065679D01*
X157951636Y-62048862D01*
X157996198Y-62004300D01*
X158127523Y-61816749D01*
X158147618Y-61773655D01*
X158193790Y-61721215D01*
X158260983Y-61702063D01*
X158327864Y-61722278D01*
X158372382Y-61773655D01*
X158392477Y-61816749D01*
X158523802Y-62004300D01*
X158685700Y-62166198D01*
X158873251Y-62297523D01*
X158884227Y-62302641D01*
X159080750Y-62394281D01*
X159080752Y-62394281D01*
X159080757Y-62394284D01*
X159301913Y-62453543D01*
X159464832Y-62467796D01*
X159529998Y-62473498D01*
X159530000Y-62473498D01*
X159530002Y-62473498D01*
X159587139Y-62468499D01*
X159758087Y-62453543D01*
X159979243Y-62394284D01*
X160186749Y-62297523D01*
X160374300Y-62166198D01*
X160536198Y-62004300D01*
X160667523Y-61816749D01*
X160692307Y-61763598D01*
X160738479Y-61711159D01*
X160805672Y-61692007D01*
X160872553Y-61712222D01*
X160917071Y-61763599D01*
X160939864Y-61812479D01*
X160939865Y-61812481D01*
X161070342Y-61998820D01*
X161231179Y-62159657D01*
X161417517Y-62290134D01*
X161623673Y-62386265D01*
X161623682Y-62386269D01*
X161819999Y-62438872D01*
X161820000Y-62438871D01*
X161820000Y-61075686D01*
X161831955Y-61087641D01*
X161944852Y-61145165D01*
X162038519Y-61160000D01*
X162101481Y-61160000D01*
X162195148Y-61145165D01*
X162308045Y-61087641D01*
X162320000Y-61075686D01*
X162320000Y-62438872D01*
X162516317Y-62386269D01*
X162516326Y-62386265D01*
X162722482Y-62290134D01*
X162908820Y-62159657D01*
X163069657Y-61998820D01*
X163200134Y-61812482D01*
X163296265Y-61606326D01*
X163296269Y-61606317D01*
X163355139Y-61386610D01*
X163355141Y-61386599D01*
X163370000Y-61216763D01*
X163370000Y-61010000D01*
X162385686Y-61010000D01*
X162397641Y-60998045D01*
X162455165Y-60885148D01*
X162474986Y-60760000D01*
X162455165Y-60634852D01*
X162397641Y-60521955D01*
X162385686Y-60510000D01*
X163370000Y-60510000D01*
X163370000Y-60303237D01*
X163355141Y-60133400D01*
X163355139Y-60133389D01*
X163296269Y-59913682D01*
X163296265Y-59913673D01*
X163200134Y-59707517D01*
X163069657Y-59521179D01*
X162908820Y-59360342D01*
X162722482Y-59229865D01*
X162516328Y-59133734D01*
X162320000Y-59081127D01*
X162320000Y-60444314D01*
X162308045Y-60432359D01*
X162195148Y-60374835D01*
X162101481Y-60360000D01*
X162038519Y-60360000D01*
X161944852Y-60374835D01*
X161831955Y-60432359D01*
X161820000Y-60444314D01*
X161820000Y-59081127D01*
X161623671Y-59133734D01*
X161417517Y-59229865D01*
X161231179Y-59360342D01*
X161070342Y-59521179D01*
X160939865Y-59707517D01*
X160917071Y-59756401D01*
X160870898Y-59808840D01*
X160803705Y-59827992D01*
X160736824Y-59807776D01*
X160692307Y-59756401D01*
X160667523Y-59703251D01*
X160592563Y-59596198D01*
X160536198Y-59515700D01*
X160374300Y-59353802D01*
X160186749Y-59222477D01*
X160186745Y-59222475D01*
X159979249Y-59125718D01*
X159979238Y-59125714D01*
X159758089Y-59066457D01*
X159758081Y-59066456D01*
X159530002Y-59046502D01*
X159529998Y-59046502D01*
X159301918Y-59066456D01*
X159301910Y-59066457D01*
X159080761Y-59125714D01*
X159080750Y-59125718D01*
X158873254Y-59222475D01*
X158873252Y-59222476D01*
X158873251Y-59222477D01*
X158685700Y-59353802D01*
X158685698Y-59353803D01*
X158685695Y-59353806D01*
X158523806Y-59515695D01*
X158392476Y-59703251D01*
X158372382Y-59746345D01*
X158326209Y-59798784D01*
X158259016Y-59817936D01*
X158192135Y-59797720D01*
X158147618Y-59746345D01*
X158127523Y-59703251D01*
X158052563Y-59596198D01*
X157996198Y-59515700D01*
X157834300Y-59353802D01*
X157646749Y-59222477D01*
X157646745Y-59222475D01*
X157439249Y-59125718D01*
X157439238Y-59125714D01*
X157218089Y-59066457D01*
X157218081Y-59066456D01*
X156990002Y-59046502D01*
X156989998Y-59046502D01*
X156761918Y-59066456D01*
X156761910Y-59066457D01*
X156540761Y-59125714D01*
X156540750Y-59125718D01*
X156333254Y-59222475D01*
X156333252Y-59222476D01*
X156333251Y-59222477D01*
X156145700Y-59353802D01*
X156145698Y-59353803D01*
X156145695Y-59353806D01*
X155983805Y-59515696D01*
X155978429Y-59523374D01*
X155923849Y-59566995D01*
X155854350Y-59574184D01*
X155791997Y-59542658D01*
X155756587Y-59482426D01*
X155753570Y-59465510D01*
X155751989Y-59450799D01*
X155700889Y-59313796D01*
X155613261Y-59196739D01*
X155496204Y-59109111D01*
X155359203Y-59058011D01*
X155298654Y-59051500D01*
X155298638Y-59051500D01*
X153601362Y-59051500D01*
X153601345Y-59051500D01*
X153540797Y-59058011D01*
X153540795Y-59058011D01*
X153403795Y-59109111D01*
X153286739Y-59196739D01*
X153199111Y-59313795D01*
X153148011Y-59450795D01*
X153148011Y-59450797D01*
X153141500Y-59511345D01*
X153141500Y-62008654D01*
X153148011Y-62069202D01*
X153148011Y-62069204D01*
X153184189Y-62166198D01*
X153199111Y-62206204D01*
X153286739Y-62323261D01*
X153403796Y-62410889D01*
X153540799Y-62461989D01*
X153568050Y-62464918D01*
X153601345Y-62468499D01*
X153601362Y-62468500D01*
X155298638Y-62468500D01*
X155298654Y-62468499D01*
X155325692Y-62465591D01*
X155359201Y-62461989D01*
X155496204Y-62410889D01*
X155613261Y-62323261D01*
X155700889Y-62206204D01*
X155751989Y-62069201D01*
X155753569Y-62054500D01*
X155780304Y-61989952D01*
X155837695Y-61950102D01*
X155907521Y-61947606D01*
X155967611Y-61983257D01*
X155978431Y-61996629D01*
X155983803Y-62004301D01*
X156045181Y-62065679D01*
X156078666Y-62127002D01*
X156081500Y-62153360D01*
X156081500Y-65755594D01*
X156061815Y-65822633D01*
X156009011Y-65868388D01*
X155939853Y-65878332D01*
X155876297Y-65849307D01*
X155855926Y-65826718D01*
X155806934Y-65756751D01*
X155806198Y-65755700D01*
X155644300Y-65593802D01*
X155456749Y-65462477D01*
X155456745Y-65462475D01*
X155249249Y-65365718D01*
X155249238Y-65365714D01*
X155028089Y-65306457D01*
X155028081Y-65306456D01*
X154800002Y-65286502D01*
X154799998Y-65286502D01*
X154571918Y-65306456D01*
X154571910Y-65306457D01*
X154350761Y-65365714D01*
X154350750Y-65365718D01*
X154143254Y-65462475D01*
X154143252Y-65462476D01*
X154143251Y-65462477D01*
X153955700Y-65593802D01*
X153955698Y-65593803D01*
X153955695Y-65593806D01*
X153793806Y-65755695D01*
X153793803Y-65755698D01*
X153793802Y-65755700D01*
X153714897Y-65868388D01*
X153662476Y-65943252D01*
X153662475Y-65943254D01*
X153565718Y-66150750D01*
X153565714Y-66150761D01*
X153506457Y-66371910D01*
X153506456Y-66371918D01*
X153486502Y-66599998D01*
X153486502Y-66600001D01*
X153506456Y-66828081D01*
X153506457Y-66828089D01*
X153565714Y-67049238D01*
X153565718Y-67049249D01*
X153631001Y-67189249D01*
X153662477Y-67256749D01*
X153793802Y-67444300D01*
X153955700Y-67606198D01*
X154143251Y-67737523D01*
X154203716Y-67765718D01*
X154350750Y-67834281D01*
X154350752Y-67834281D01*
X154350757Y-67834284D01*
X154571913Y-67893543D01*
X154734832Y-67907796D01*
X154799998Y-67913498D01*
X154800000Y-67913498D01*
X154800002Y-67913498D01*
X154857021Y-67908509D01*
X155028087Y-67893543D01*
X155249243Y-67834284D01*
X155456749Y-67737523D01*
X155644300Y-67606198D01*
X155806198Y-67444300D01*
X155855927Y-67373278D01*
X155910502Y-67329657D01*
X155980001Y-67322464D01*
X156042355Y-67353986D01*
X156077769Y-67414216D01*
X156081500Y-67444405D01*
X156081500Y-75930413D01*
X156061815Y-75997452D01*
X156009011Y-76043207D01*
X155939853Y-76053151D01*
X155876297Y-76024126D01*
X155855925Y-76001537D01*
X155799657Y-75921179D01*
X155638820Y-75760342D01*
X155452482Y-75629865D01*
X155246328Y-75533734D01*
X155050000Y-75481127D01*
X155050000Y-76444314D01*
X155038045Y-76432359D01*
X154925148Y-76374835D01*
X154831481Y-76360000D01*
X154768519Y-76360000D01*
X154674852Y-76374835D01*
X154561955Y-76432359D01*
X154550000Y-76444314D01*
X154550000Y-75481127D01*
X154353671Y-75533734D01*
X154147517Y-75629865D01*
X153961179Y-75760342D01*
X153800342Y-75921179D01*
X153669865Y-76107517D01*
X153573734Y-76313673D01*
X153573730Y-76313682D01*
X153521127Y-76509999D01*
X153521128Y-76510000D01*
X154484314Y-76510000D01*
X154472359Y-76521955D01*
X154414835Y-76634852D01*
X154395014Y-76760000D01*
X154414835Y-76885148D01*
X154472359Y-76998045D01*
X154484314Y-77010000D01*
X153521128Y-77010000D01*
X153573730Y-77206317D01*
X153573734Y-77206326D01*
X153669865Y-77412482D01*
X153800342Y-77598820D01*
X153961179Y-77759657D01*
X154147517Y-77890134D01*
X154353673Y-77986265D01*
X154353682Y-77986269D01*
X154549999Y-78038872D01*
X154550000Y-78038871D01*
X154550000Y-77075686D01*
X154561955Y-77087641D01*
X154674852Y-77145165D01*
X154768519Y-77160000D01*
X154831481Y-77160000D01*
X154925148Y-77145165D01*
X155038045Y-77087641D01*
X155050000Y-77075686D01*
X155050000Y-78038872D01*
X155246317Y-77986269D01*
X155246326Y-77986265D01*
X155452482Y-77890134D01*
X155638820Y-77759657D01*
X155799660Y-77598817D01*
X155855925Y-77518463D01*
X155910502Y-77474838D01*
X155980000Y-77467644D01*
X156042355Y-77499167D01*
X156077769Y-77559397D01*
X156081500Y-77589586D01*
X156081500Y-91282324D01*
X156061815Y-91349363D01*
X156045181Y-91370005D01*
X152755050Y-94660135D01*
X152740259Y-94672769D01*
X152728746Y-94681133D01*
X152681869Y-94733195D01*
X152679639Y-94735545D01*
X152663939Y-94751247D01*
X152663928Y-94751258D01*
X152649948Y-94768521D01*
X152647843Y-94770985D01*
X152600962Y-94823052D01*
X152600957Y-94823059D01*
X152593838Y-94835388D01*
X152582833Y-94851400D01*
X152573873Y-94862466D01*
X152573871Y-94862468D01*
X152542053Y-94924913D01*
X152540505Y-94927765D01*
X152505471Y-94988445D01*
X152501071Y-95001988D01*
X152493630Y-95019951D01*
X152487171Y-95032628D01*
X152487169Y-95032634D01*
X152477823Y-95067515D01*
X152469031Y-95100324D01*
X152468115Y-95103416D01*
X152446457Y-95170074D01*
X152446457Y-95170077D01*
X152444970Y-95184223D01*
X152441427Y-95203344D01*
X152437742Y-95217097D01*
X152434074Y-95287073D01*
X152433820Y-95290304D01*
X152431500Y-95312392D01*
X152431500Y-95334594D01*
X152431415Y-95337839D01*
X152427748Y-95407809D01*
X152429973Y-95421856D01*
X152431500Y-95441256D01*
X152431500Y-96392697D01*
X152411815Y-96459736D01*
X152398730Y-96476679D01*
X152358736Y-96520124D01*
X152353548Y-96525760D01*
X152293661Y-96561750D01*
X152223823Y-96559649D01*
X152166207Y-96520125D01*
X152146138Y-96485110D01*
X152100889Y-96363796D01*
X152067214Y-96318812D01*
X152013261Y-96246739D01*
X151896204Y-96159111D01*
X151868125Y-96148638D01*
X151759203Y-96108011D01*
X151698654Y-96101500D01*
X151698638Y-96101500D01*
X149901362Y-96101500D01*
X149901345Y-96101500D01*
X149840797Y-96108011D01*
X149840795Y-96108011D01*
X149703795Y-96159111D01*
X149586739Y-96246739D01*
X149499111Y-96363795D01*
X149448011Y-96500795D01*
X149448011Y-96500797D01*
X149441500Y-96561345D01*
X149441500Y-98358654D01*
X146739212Y-98358654D01*
X146764594Y-98331082D01*
X146795715Y-98297276D01*
X146795717Y-98297273D01*
X146795722Y-98297268D01*
X146918860Y-98108791D01*
X147009296Y-97902616D01*
X147064564Y-97684368D01*
X147064565Y-97684359D01*
X147083156Y-97460005D01*
X147083156Y-97459994D01*
X147064565Y-97235640D01*
X147064563Y-97235628D01*
X147009296Y-97017385D01*
X147006771Y-97011629D01*
X146918860Y-96811209D01*
X146916409Y-96807458D01*
X146816587Y-96654668D01*
X146795722Y-96622732D01*
X146795719Y-96622729D01*
X146795715Y-96622723D01*
X146643243Y-96457097D01*
X146643238Y-96457092D01*
X146465577Y-96318812D01*
X146465572Y-96318808D01*
X146267580Y-96211661D01*
X146267577Y-96211659D01*
X146267574Y-96211658D01*
X146267571Y-96211657D01*
X146267569Y-96211656D01*
X146054637Y-96138556D01*
X145832569Y-96101500D01*
X145607431Y-96101500D01*
X145385362Y-96138556D01*
X145172430Y-96211656D01*
X145172419Y-96211661D01*
X144974427Y-96318808D01*
X144974422Y-96318812D01*
X144796761Y-96457092D01*
X144796756Y-96457097D01*
X144644284Y-96622723D01*
X144644276Y-96622734D01*
X144550251Y-96766650D01*
X144497105Y-96812007D01*
X144427873Y-96821430D01*
X144364538Y-96791928D01*
X144344868Y-96769951D01*
X144218113Y-96588926D01*
X144218108Y-96588920D01*
X144051082Y-96421894D01*
X143857578Y-96286399D01*
X143643492Y-96186570D01*
X143643486Y-96186567D01*
X143430000Y-96129364D01*
X143430000Y-97024498D01*
X143322315Y-96975320D01*
X143215763Y-96960000D01*
X143144237Y-96960000D01*
X143037685Y-96975320D01*
X142930000Y-97024498D01*
X142930000Y-96129364D01*
X142929999Y-96129364D01*
X142716513Y-96186567D01*
X142716507Y-96186570D01*
X142502422Y-96286399D01*
X142502420Y-96286400D01*
X142308926Y-96421886D01*
X142308920Y-96421891D01*
X142141891Y-96588920D01*
X142141890Y-96588922D01*
X142011575Y-96775031D01*
X141956998Y-96818655D01*
X141887499Y-96825848D01*
X141825145Y-96794326D01*
X141808425Y-96775031D01*
X141678109Y-96588922D01*
X141678108Y-96588920D01*
X141511082Y-96421894D01*
X141317578Y-96286399D01*
X141103492Y-96186570D01*
X141103486Y-96186567D01*
X140890000Y-96129364D01*
X140890000Y-97024498D01*
X140782315Y-96975320D01*
X140675763Y-96960000D01*
X140604237Y-96960000D01*
X140497685Y-96975320D01*
X140390000Y-97024498D01*
X140390000Y-96129364D01*
X140389999Y-96129364D01*
X140176513Y-96186567D01*
X140176507Y-96186570D01*
X139962422Y-96286399D01*
X139962420Y-96286400D01*
X139768926Y-96421886D01*
X139768920Y-96421891D01*
X139601891Y-96588920D01*
X139601890Y-96588922D01*
X139475131Y-96769952D01*
X139420554Y-96813577D01*
X139351055Y-96820769D01*
X139288701Y-96789247D01*
X139269752Y-96766656D01*
X139175722Y-96622732D01*
X139175715Y-96622725D01*
X139175715Y-96622723D01*
X139023243Y-96457097D01*
X139023238Y-96457092D01*
X138845577Y-96318812D01*
X138845572Y-96318808D01*
X138647580Y-96211661D01*
X138647577Y-96211659D01*
X138647574Y-96211658D01*
X138647571Y-96211657D01*
X138647569Y-96211656D01*
X138434637Y-96138556D01*
X138212569Y-96101500D01*
X137987431Y-96101500D01*
X137765362Y-96138556D01*
X137552430Y-96211656D01*
X137552419Y-96211661D01*
X137354427Y-96318808D01*
X137354422Y-96318812D01*
X137176761Y-96457092D01*
X137176756Y-96457097D01*
X137024284Y-96622723D01*
X137024276Y-96622734D01*
X136933808Y-96761206D01*
X136880662Y-96806562D01*
X136811431Y-96815986D01*
X136748095Y-96786484D01*
X136726192Y-96761206D01*
X136656587Y-96654668D01*
X136635722Y-96622732D01*
X136635719Y-96622729D01*
X136635715Y-96622723D01*
X136501271Y-96476680D01*
X136470348Y-96414026D01*
X136468500Y-96392697D01*
X136468500Y-91948654D01*
X139091500Y-91948654D01*
X139098011Y-92009202D01*
X139098011Y-92009204D01*
X139147628Y-92142228D01*
X139149111Y-92146204D01*
X139236739Y-92263261D01*
X139353796Y-92350889D01*
X139490799Y-92401989D01*
X139518050Y-92404918D01*
X139551345Y-92408499D01*
X139551362Y-92408500D01*
X141248638Y-92408500D01*
X141248654Y-92408499D01*
X141275692Y-92405591D01*
X141309201Y-92401989D01*
X141446204Y-92350889D01*
X141563261Y-92263261D01*
X141650889Y-92146204D01*
X141696555Y-92023768D01*
X141701988Y-92009204D01*
X141701988Y-92009203D01*
X141701989Y-92009201D01*
X141706573Y-91966566D01*
X141708499Y-91948654D01*
X141708500Y-91948637D01*
X141708500Y-91100002D01*
X142595034Y-91100002D01*
X142614858Y-91326599D01*
X142614860Y-91326610D01*
X142673730Y-91546317D01*
X142673734Y-91546326D01*
X142769865Y-91752481D01*
X142769866Y-91752483D01*
X142820973Y-91825471D01*
X142820974Y-91825472D01*
X143502046Y-91144399D01*
X143514835Y-91225148D01*
X143572359Y-91338045D01*
X143661955Y-91427641D01*
X143774852Y-91485165D01*
X143855599Y-91497953D01*
X143174526Y-92179025D01*
X143174526Y-92179026D01*
X143247512Y-92230131D01*
X143247516Y-92230133D01*
X143453673Y-92326265D01*
X143453682Y-92326269D01*
X143673389Y-92385139D01*
X143673400Y-92385141D01*
X143899998Y-92404966D01*
X143900002Y-92404966D01*
X144126599Y-92385141D01*
X144126610Y-92385139D01*
X144346317Y-92326269D01*
X144346331Y-92326264D01*
X144552478Y-92230136D01*
X144625472Y-92179025D01*
X143944401Y-91497953D01*
X144025148Y-91485165D01*
X144138045Y-91427641D01*
X144227641Y-91338045D01*
X144285165Y-91225148D01*
X144297953Y-91144400D01*
X144979025Y-91825472D01*
X145030136Y-91752478D01*
X145126264Y-91546331D01*
X145126269Y-91546317D01*
X145185139Y-91326610D01*
X145185141Y-91326599D01*
X145204966Y-91100002D01*
X145204966Y-91099997D01*
X145185141Y-90873400D01*
X145185139Y-90873389D01*
X145138680Y-90700001D01*
X149486502Y-90700001D01*
X149506456Y-90928081D01*
X149506457Y-90928089D01*
X149565714Y-91149238D01*
X149565718Y-91149249D01*
X149648418Y-91326599D01*
X149662477Y-91356749D01*
X149793802Y-91544300D01*
X149955700Y-91706198D01*
X150143251Y-91837523D01*
X150268091Y-91895736D01*
X150350750Y-91934281D01*
X150350752Y-91934281D01*
X150350757Y-91934284D01*
X150571913Y-91993543D01*
X150734832Y-92007796D01*
X150799998Y-92013498D01*
X150800000Y-92013498D01*
X150800002Y-92013498D01*
X150857021Y-92008509D01*
X151028087Y-91993543D01*
X151249243Y-91934284D01*
X151456749Y-91837523D01*
X151644300Y-91706198D01*
X151806198Y-91544300D01*
X151937523Y-91356749D01*
X152034284Y-91149243D01*
X152093543Y-90928087D01*
X152113498Y-90700000D01*
X152109998Y-90660000D01*
X152093543Y-90471918D01*
X152093543Y-90471913D01*
X152076953Y-90409999D01*
X153021127Y-90409999D01*
X153021128Y-90410000D01*
X153984314Y-90410000D01*
X153972359Y-90421955D01*
X153914835Y-90534852D01*
X153895014Y-90660000D01*
X153914835Y-90785148D01*
X153972359Y-90898045D01*
X153984314Y-90910000D01*
X153021128Y-90910000D01*
X153073730Y-91106317D01*
X153073734Y-91106326D01*
X153169865Y-91312482D01*
X153300342Y-91498820D01*
X153461179Y-91659657D01*
X153647517Y-91790134D01*
X153853673Y-91886265D01*
X153853682Y-91886269D01*
X154049999Y-91938872D01*
X154050000Y-91938871D01*
X154050000Y-90975686D01*
X154061955Y-90987641D01*
X154174852Y-91045165D01*
X154268519Y-91060000D01*
X154331481Y-91060000D01*
X154425148Y-91045165D01*
X154538045Y-90987641D01*
X154550000Y-90975686D01*
X154550000Y-91938872D01*
X154746317Y-91886269D01*
X154746326Y-91886265D01*
X154952482Y-91790134D01*
X155138820Y-91659657D01*
X155299657Y-91498820D01*
X155430134Y-91312482D01*
X155526265Y-91106326D01*
X155526269Y-91106317D01*
X155578872Y-90910000D01*
X154615686Y-90910000D01*
X154627641Y-90898045D01*
X154685165Y-90785148D01*
X154704986Y-90660000D01*
X154685165Y-90534852D01*
X154627641Y-90421955D01*
X154615686Y-90410000D01*
X155578872Y-90410000D01*
X155578872Y-90409999D01*
X155526269Y-90213682D01*
X155526265Y-90213673D01*
X155430134Y-90007517D01*
X155299657Y-89821179D01*
X155138820Y-89660342D01*
X154952482Y-89529865D01*
X154746328Y-89433734D01*
X154550000Y-89381127D01*
X154550000Y-90344314D01*
X154538045Y-90332359D01*
X154425148Y-90274835D01*
X154331481Y-90260000D01*
X154268519Y-90260000D01*
X154174852Y-90274835D01*
X154061955Y-90332359D01*
X154050000Y-90344314D01*
X154050000Y-89381127D01*
X153853671Y-89433734D01*
X153647517Y-89529865D01*
X153461179Y-89660342D01*
X153300342Y-89821179D01*
X153169865Y-90007517D01*
X153073734Y-90213673D01*
X153073730Y-90213682D01*
X153021127Y-90409999D01*
X152076953Y-90409999D01*
X152034284Y-90250757D01*
X152014072Y-90207413D01*
X151979406Y-90133070D01*
X151937523Y-90043251D01*
X151806198Y-89855700D01*
X151644300Y-89693802D01*
X151456749Y-89562477D01*
X151456745Y-89562475D01*
X151249249Y-89465718D01*
X151249238Y-89465714D01*
X151028089Y-89406457D01*
X151028081Y-89406456D01*
X150800002Y-89386502D01*
X150799998Y-89386502D01*
X150571918Y-89406456D01*
X150571910Y-89406457D01*
X150350761Y-89465714D01*
X150350750Y-89465718D01*
X150143254Y-89562475D01*
X150143252Y-89562476D01*
X150143251Y-89562477D01*
X149955700Y-89693802D01*
X149955698Y-89693803D01*
X149955695Y-89693806D01*
X149793806Y-89855695D01*
X149793803Y-89855698D01*
X149793802Y-89855700D01*
X149769676Y-89890156D01*
X149662476Y-90043252D01*
X149662475Y-90043254D01*
X149565718Y-90250750D01*
X149565714Y-90250761D01*
X149506457Y-90471910D01*
X149506456Y-90471918D01*
X149486502Y-90699998D01*
X149486502Y-90700001D01*
X145138680Y-90700001D01*
X145126269Y-90653682D01*
X145126265Y-90653673D01*
X145030133Y-90447516D01*
X145030131Y-90447512D01*
X144979026Y-90374526D01*
X144979025Y-90374526D01*
X144297953Y-91055598D01*
X144285165Y-90974852D01*
X144227641Y-90861955D01*
X144138045Y-90772359D01*
X144025148Y-90714835D01*
X143944400Y-90702046D01*
X144625472Y-90020974D01*
X144625471Y-90020973D01*
X144552483Y-89969866D01*
X144552481Y-89969865D01*
X144346326Y-89873734D01*
X144346317Y-89873730D01*
X144126610Y-89814860D01*
X144126599Y-89814858D01*
X143900002Y-89795034D01*
X143899998Y-89795034D01*
X143673400Y-89814858D01*
X143673389Y-89814860D01*
X143453682Y-89873730D01*
X143453673Y-89873734D01*
X143247513Y-89969868D01*
X143174527Y-90020972D01*
X143174526Y-90020973D01*
X143855600Y-90702046D01*
X143774852Y-90714835D01*
X143661955Y-90772359D01*
X143572359Y-90861955D01*
X143514835Y-90974852D01*
X143502046Y-91055599D01*
X142820973Y-90374526D01*
X142820972Y-90374527D01*
X142769868Y-90447513D01*
X142673734Y-90653673D01*
X142673730Y-90653682D01*
X142614860Y-90873389D01*
X142614858Y-90873400D01*
X142595034Y-91099997D01*
X142595034Y-91100002D01*
X141708500Y-91100002D01*
X141708500Y-90251362D01*
X141708499Y-90251345D01*
X141703775Y-90207413D01*
X141701989Y-90190799D01*
X141650889Y-90053796D01*
X141563261Y-89936739D01*
X141446204Y-89849111D01*
X141436391Y-89845451D01*
X141309203Y-89798011D01*
X141248654Y-89791500D01*
X141248638Y-89791500D01*
X139551362Y-89791500D01*
X139551345Y-89791500D01*
X139490797Y-89798011D01*
X139490795Y-89798011D01*
X139353795Y-89849111D01*
X139236739Y-89936739D01*
X139149111Y-90053795D01*
X139098011Y-90190795D01*
X139098011Y-90190797D01*
X139091500Y-90251345D01*
X139091500Y-91948654D01*
X136468500Y-91948654D01*
X136468500Y-84900001D01*
X137866502Y-84900001D01*
X137886456Y-85128081D01*
X137886457Y-85128089D01*
X137945714Y-85349238D01*
X137945718Y-85349249D01*
X138042475Y-85556745D01*
X138042477Y-85556749D01*
X138173802Y-85744300D01*
X138335700Y-85906198D01*
X138523251Y-86037523D01*
X138578445Y-86063260D01*
X138730750Y-86134281D01*
X138730752Y-86134281D01*
X138730757Y-86134284D01*
X138951913Y-86193543D01*
X139122873Y-86208500D01*
X140037127Y-86208500D01*
X140208087Y-86193543D01*
X140429243Y-86134284D01*
X140636749Y-86037523D01*
X140824300Y-85906198D01*
X140986198Y-85744300D01*
X141117523Y-85556749D01*
X141214284Y-85349243D01*
X141273543Y-85128087D01*
X141293498Y-84900000D01*
X141273543Y-84671913D01*
X141214284Y-84450757D01*
X141117523Y-84243251D01*
X140986198Y-84055700D01*
X140824300Y-83893802D01*
X140636749Y-83762477D01*
X140593655Y-83742382D01*
X140541215Y-83696210D01*
X140522063Y-83629017D01*
X140542278Y-83562136D01*
X140593655Y-83517618D01*
X140596882Y-83516112D01*
X140636749Y-83497523D01*
X140824300Y-83366198D01*
X140986198Y-83204300D01*
X141117523Y-83016749D01*
X141214284Y-82809243D01*
X141273543Y-82588087D01*
X141293498Y-82360001D01*
X145486502Y-82360001D01*
X145506456Y-82588081D01*
X145506457Y-82588089D01*
X145565714Y-82809238D01*
X145565718Y-82809249D01*
X145662475Y-83016745D01*
X145662477Y-83016749D01*
X145793802Y-83204300D01*
X145955700Y-83366198D01*
X145963370Y-83371568D01*
X146006993Y-83426144D01*
X146014185Y-83495642D01*
X145982663Y-83557997D01*
X145922433Y-83593410D01*
X145905501Y-83596430D01*
X145890797Y-83598011D01*
X145890795Y-83598011D01*
X145753795Y-83649111D01*
X145636739Y-83736739D01*
X145549111Y-83853795D01*
X145498011Y-83990795D01*
X145498011Y-83990797D01*
X145491500Y-84051345D01*
X145491500Y-85748654D01*
X145498011Y-85809202D01*
X145498011Y-85809204D01*
X145534189Y-85906198D01*
X145549111Y-85946204D01*
X145636739Y-86063261D01*
X145753796Y-86150889D01*
X145890799Y-86201989D01*
X145918050Y-86204918D01*
X145951345Y-86208499D01*
X145951362Y-86208500D01*
X148448638Y-86208500D01*
X148448654Y-86208499D01*
X148475692Y-86205591D01*
X148509201Y-86201989D01*
X148646204Y-86150889D01*
X148763261Y-86063261D01*
X148850889Y-85946204D01*
X148901989Y-85809201D01*
X148905591Y-85775692D01*
X148908499Y-85748654D01*
X148908500Y-85748637D01*
X148908500Y-84051362D01*
X148908499Y-84051345D01*
X148905157Y-84020270D01*
X148901989Y-83990799D01*
X148850889Y-83853796D01*
X148763261Y-83736739D01*
X148646204Y-83649111D01*
X148509203Y-83598011D01*
X148494498Y-83596430D01*
X148429947Y-83569691D01*
X148390100Y-83512298D01*
X148387607Y-83442473D01*
X148423261Y-83382385D01*
X148436624Y-83371572D01*
X148444300Y-83366198D01*
X148606198Y-83204300D01*
X148737523Y-83016749D01*
X148834284Y-82809243D01*
X148893543Y-82588087D01*
X148913498Y-82360000D01*
X148893543Y-82131913D01*
X148834284Y-81910757D01*
X148737523Y-81703251D01*
X148606198Y-81515700D01*
X148444300Y-81353802D01*
X148256749Y-81222477D01*
X148213655Y-81202382D01*
X148161215Y-81156210D01*
X148142063Y-81089017D01*
X148162278Y-81022136D01*
X148213655Y-80977618D01*
X148216882Y-80976112D01*
X148256749Y-80957523D01*
X148444300Y-80826198D01*
X148606198Y-80664300D01*
X148693233Y-80540001D01*
X149486502Y-80540001D01*
X149506456Y-80768081D01*
X149506457Y-80768089D01*
X149565714Y-80989238D01*
X149565718Y-80989249D01*
X149612241Y-81089017D01*
X149662477Y-81196749D01*
X149793802Y-81384300D01*
X149955700Y-81546198D01*
X150143251Y-81677523D01*
X150198432Y-81703254D01*
X150350750Y-81774281D01*
X150350752Y-81774281D01*
X150350757Y-81774284D01*
X150571913Y-81833543D01*
X150734832Y-81847796D01*
X150799998Y-81853498D01*
X150800000Y-81853498D01*
X150800002Y-81853498D01*
X150857021Y-81848509D01*
X151028087Y-81833543D01*
X151249243Y-81774284D01*
X151456749Y-81677523D01*
X151644300Y-81546198D01*
X151806198Y-81384300D01*
X151937523Y-81196749D01*
X152034284Y-80989243D01*
X152093543Y-80768087D01*
X152113498Y-80540000D01*
X152109998Y-80500001D01*
X152986502Y-80500001D01*
X153006456Y-80728081D01*
X153006457Y-80728089D01*
X153065714Y-80949238D01*
X153065718Y-80949249D01*
X153131810Y-81090984D01*
X153162477Y-81156749D01*
X153293802Y-81344300D01*
X153455700Y-81506198D01*
X153643251Y-81637523D01*
X153729032Y-81677523D01*
X153850750Y-81734281D01*
X153850752Y-81734281D01*
X153850757Y-81734284D01*
X154071913Y-81793543D01*
X154234832Y-81807796D01*
X154299998Y-81813498D01*
X154300000Y-81813498D01*
X154300002Y-81813498D01*
X154357021Y-81808509D01*
X154528087Y-81793543D01*
X154749243Y-81734284D01*
X154956749Y-81637523D01*
X155144300Y-81506198D01*
X155306198Y-81344300D01*
X155437523Y-81156749D01*
X155534284Y-80949243D01*
X155593543Y-80728087D01*
X155613498Y-80500000D01*
X155611463Y-80476745D01*
X155597043Y-80311918D01*
X155593543Y-80271913D01*
X155534284Y-80050757D01*
X155437523Y-79843251D01*
X155306198Y-79655700D01*
X155144300Y-79493802D01*
X154956749Y-79362477D01*
X154956745Y-79362475D01*
X154749249Y-79265718D01*
X154749238Y-79265714D01*
X154528089Y-79206457D01*
X154528081Y-79206456D01*
X154300002Y-79186502D01*
X154299998Y-79186502D01*
X154071918Y-79206456D01*
X154071910Y-79206457D01*
X153850761Y-79265714D01*
X153850750Y-79265718D01*
X153643254Y-79362475D01*
X153643252Y-79362476D01*
X153643251Y-79362477D01*
X153455700Y-79493802D01*
X153455698Y-79493803D01*
X153455695Y-79493806D01*
X153293806Y-79655695D01*
X153162476Y-79843252D01*
X153162475Y-79843254D01*
X153065718Y-80050750D01*
X153065714Y-80050761D01*
X153006457Y-80271910D01*
X153006456Y-80271918D01*
X152986502Y-80499998D01*
X152986502Y-80500001D01*
X152109998Y-80500001D01*
X152109998Y-80500000D01*
X152107443Y-80470795D01*
X152093543Y-80311913D01*
X152034284Y-80090757D01*
X152028340Y-80078011D01*
X151937524Y-79883254D01*
X151937523Y-79883252D01*
X151937523Y-79883251D01*
X151806198Y-79695700D01*
X151644300Y-79533802D01*
X151456749Y-79402477D01*
X151456745Y-79402475D01*
X151249249Y-79305718D01*
X151249238Y-79305714D01*
X151028089Y-79246457D01*
X151028081Y-79246456D01*
X150800002Y-79226502D01*
X150799998Y-79226502D01*
X150571918Y-79246456D01*
X150571910Y-79246457D01*
X150350761Y-79305714D01*
X150350750Y-79305718D01*
X150143254Y-79402475D01*
X150143252Y-79402476D01*
X150143251Y-79402477D01*
X149955700Y-79533802D01*
X149955698Y-79533803D01*
X149955695Y-79533806D01*
X149793806Y-79695695D01*
X149662476Y-79883252D01*
X149662475Y-79883254D01*
X149565718Y-80090750D01*
X149565714Y-80090761D01*
X149506457Y-80311910D01*
X149506456Y-80311918D01*
X149486502Y-80539998D01*
X149486502Y-80540001D01*
X148693233Y-80540001D01*
X148737523Y-80476749D01*
X148834284Y-80269243D01*
X148893543Y-80048087D01*
X148913498Y-79820000D01*
X148893543Y-79591913D01*
X148834284Y-79370757D01*
X148737523Y-79163251D01*
X148606198Y-78975700D01*
X148444300Y-78813802D01*
X148256749Y-78682477D01*
X148203596Y-78657691D01*
X148151158Y-78611519D01*
X148132007Y-78544325D01*
X148152223Y-78477444D01*
X148203600Y-78432927D01*
X148252483Y-78410133D01*
X148438820Y-78279657D01*
X148599657Y-78118820D01*
X148730134Y-77932482D01*
X148826265Y-77726326D01*
X148826269Y-77726317D01*
X148878872Y-77530000D01*
X147515686Y-77530000D01*
X147527641Y-77518045D01*
X147585165Y-77405148D01*
X147604986Y-77280000D01*
X147585165Y-77154852D01*
X147527641Y-77041955D01*
X147515686Y-77030000D01*
X148878872Y-77030000D01*
X148878872Y-77029999D01*
X148844039Y-76900001D01*
X149986502Y-76900001D01*
X150006456Y-77128081D01*
X150006457Y-77128089D01*
X150065714Y-77349238D01*
X150065718Y-77349249D01*
X150144429Y-77518045D01*
X150162477Y-77556749D01*
X150293802Y-77744300D01*
X150455700Y-77906198D01*
X150643251Y-78037523D01*
X150742686Y-78083890D01*
X150850750Y-78134281D01*
X150850752Y-78134281D01*
X150850757Y-78134284D01*
X151071913Y-78193543D01*
X151234832Y-78207796D01*
X151299998Y-78213498D01*
X151300000Y-78213498D01*
X151300002Y-78213498D01*
X151357021Y-78208509D01*
X151528087Y-78193543D01*
X151749243Y-78134284D01*
X151956749Y-78037523D01*
X152144300Y-77906198D01*
X152306198Y-77744300D01*
X152437523Y-77556749D01*
X152534284Y-77349243D01*
X152593543Y-77128087D01*
X152613498Y-76900000D01*
X152593543Y-76671913D01*
X152534284Y-76450757D01*
X152531768Y-76445362D01*
X152460661Y-76292871D01*
X152437523Y-76243251D01*
X152306198Y-76055700D01*
X152144300Y-75893802D01*
X151956749Y-75762477D01*
X151956745Y-75762475D01*
X151749249Y-75665718D01*
X151749238Y-75665714D01*
X151528089Y-75606457D01*
X151528081Y-75606456D01*
X151300002Y-75586502D01*
X151299998Y-75586502D01*
X151071918Y-75606456D01*
X151071910Y-75606457D01*
X150850761Y-75665714D01*
X150850750Y-75665718D01*
X150643254Y-75762475D01*
X150643252Y-75762476D01*
X150643251Y-75762477D01*
X150455700Y-75893802D01*
X150455698Y-75893803D01*
X150455695Y-75893806D01*
X150293806Y-76055695D01*
X150293803Y-76055698D01*
X150293802Y-76055700D01*
X150251923Y-76115509D01*
X150162476Y-76243252D01*
X150162475Y-76243254D01*
X150065718Y-76450750D01*
X150065714Y-76450761D01*
X150006457Y-76671910D01*
X150006456Y-76671918D01*
X149986502Y-76899998D01*
X149986502Y-76900001D01*
X148844039Y-76900001D01*
X148826269Y-76833682D01*
X148826265Y-76833673D01*
X148730134Y-76627517D01*
X148599657Y-76441179D01*
X148438820Y-76280342D01*
X148252482Y-76149865D01*
X148046326Y-76053734D01*
X148046317Y-76053730D01*
X147826610Y-75994860D01*
X147826599Y-75994858D01*
X147656763Y-75980000D01*
X147450000Y-75980000D01*
X147450000Y-76964314D01*
X147438045Y-76952359D01*
X147325148Y-76894835D01*
X147231481Y-76880000D01*
X147168519Y-76880000D01*
X147074852Y-76894835D01*
X146961955Y-76952359D01*
X146950000Y-76964314D01*
X146950000Y-75980000D01*
X146743237Y-75980000D01*
X146573400Y-75994858D01*
X146573389Y-75994860D01*
X146353682Y-76053730D01*
X146353673Y-76053734D01*
X146147517Y-76149865D01*
X145961179Y-76280342D01*
X145800342Y-76441179D01*
X145669865Y-76627517D01*
X145573734Y-76833673D01*
X145573730Y-76833682D01*
X145521127Y-77029999D01*
X145521128Y-77030000D01*
X146884314Y-77030000D01*
X146872359Y-77041955D01*
X146814835Y-77154852D01*
X146795014Y-77280000D01*
X146814835Y-77405148D01*
X146872359Y-77518045D01*
X146884314Y-77530000D01*
X145521128Y-77530000D01*
X145573730Y-77726317D01*
X145573734Y-77726326D01*
X145669865Y-77932482D01*
X145800342Y-78118820D01*
X145961179Y-78279657D01*
X146147517Y-78410133D01*
X146196399Y-78432927D01*
X146248839Y-78479099D01*
X146267992Y-78546292D01*
X146247777Y-78613174D01*
X146196402Y-78657691D01*
X146143256Y-78682474D01*
X146143252Y-78682476D01*
X146072856Y-78731767D01*
X145955700Y-78813802D01*
X145955698Y-78813803D01*
X145955695Y-78813806D01*
X145793806Y-78975695D01*
X145662476Y-79163252D01*
X145662475Y-79163254D01*
X145565718Y-79370750D01*
X145565714Y-79370761D01*
X145506457Y-79591910D01*
X145506456Y-79591918D01*
X145486502Y-79819998D01*
X145486502Y-79820001D01*
X145506456Y-80048081D01*
X145506457Y-80048089D01*
X145565714Y-80269238D01*
X145565718Y-80269249D01*
X145659702Y-80470799D01*
X145662477Y-80476749D01*
X145793802Y-80664300D01*
X145955700Y-80826198D01*
X146131419Y-80949238D01*
X146143251Y-80957523D01*
X146186345Y-80977618D01*
X146238784Y-81023791D01*
X146257936Y-81090984D01*
X146237720Y-81157865D01*
X146186345Y-81202382D01*
X146143251Y-81222476D01*
X146018126Y-81310090D01*
X145955700Y-81353802D01*
X145955698Y-81353803D01*
X145955695Y-81353806D01*
X145793806Y-81515695D01*
X145662476Y-81703252D01*
X145662475Y-81703254D01*
X145565718Y-81910750D01*
X145565714Y-81910761D01*
X145506457Y-82131910D01*
X145506456Y-82131918D01*
X145486502Y-82359998D01*
X145486502Y-82360001D01*
X141293498Y-82360001D01*
X141293498Y-82360000D01*
X141273543Y-82131913D01*
X141214284Y-81910757D01*
X141117523Y-81703251D01*
X140986198Y-81515700D01*
X140824300Y-81353802D01*
X140636749Y-81222477D01*
X140593655Y-81202382D01*
X140541215Y-81156210D01*
X140522063Y-81089017D01*
X140542278Y-81022136D01*
X140593655Y-80977618D01*
X140596882Y-80976112D01*
X140636749Y-80957523D01*
X140824300Y-80826198D01*
X140986198Y-80664300D01*
X141117523Y-80476749D01*
X141214284Y-80269243D01*
X141273543Y-80048087D01*
X141293498Y-79820000D01*
X141273543Y-79591913D01*
X141214284Y-79370757D01*
X141117523Y-79163251D01*
X140986198Y-78975700D01*
X140824300Y-78813802D01*
X140636749Y-78682477D01*
X140593655Y-78662382D01*
X140541215Y-78616210D01*
X140522063Y-78549017D01*
X140542278Y-78482136D01*
X140593655Y-78437618D01*
X140596882Y-78436112D01*
X140636749Y-78417523D01*
X140824300Y-78286198D01*
X140986198Y-78124300D01*
X141117523Y-77936749D01*
X141214284Y-77729243D01*
X141273543Y-77508087D01*
X141293498Y-77280000D01*
X141290352Y-77244046D01*
X141281701Y-77145165D01*
X141273543Y-77051913D01*
X141214284Y-76830757D01*
X141117523Y-76623251D01*
X140986198Y-76435700D01*
X140824300Y-76273802D01*
X140636749Y-76142477D01*
X140561777Y-76107517D01*
X140429249Y-76045718D01*
X140429238Y-76045714D01*
X140208089Y-75986457D01*
X140208081Y-75986456D01*
X140037127Y-75971500D01*
X139122873Y-75971500D01*
X138951918Y-75986456D01*
X138951910Y-75986457D01*
X138730761Y-76045714D01*
X138730750Y-76045718D01*
X138523254Y-76142475D01*
X138523252Y-76142476D01*
X138498224Y-76160001D01*
X138335700Y-76273802D01*
X138335698Y-76273803D01*
X138335695Y-76273806D01*
X138173806Y-76435695D01*
X138173803Y-76435698D01*
X138173802Y-76435700D01*
X138098959Y-76542587D01*
X138042476Y-76623252D01*
X138042475Y-76623254D01*
X137945718Y-76830750D01*
X137945714Y-76830761D01*
X137886457Y-77051910D01*
X137886456Y-77051918D01*
X137866502Y-77279998D01*
X137866502Y-77280001D01*
X137886456Y-77508081D01*
X137886457Y-77508089D01*
X137945714Y-77729238D01*
X137945718Y-77729249D01*
X138028231Y-77906198D01*
X138042477Y-77936749D01*
X138173802Y-78124300D01*
X138335700Y-78286198D01*
X138512697Y-78410133D01*
X138523251Y-78417523D01*
X138566345Y-78437618D01*
X138618784Y-78483791D01*
X138637936Y-78550984D01*
X138617720Y-78617865D01*
X138566345Y-78662382D01*
X138523251Y-78682476D01*
X138398126Y-78770090D01*
X138335700Y-78813802D01*
X138335698Y-78813803D01*
X138335695Y-78813806D01*
X138173806Y-78975695D01*
X138042476Y-79163252D01*
X138042475Y-79163254D01*
X137945718Y-79370750D01*
X137945714Y-79370761D01*
X137886457Y-79591910D01*
X137886456Y-79591918D01*
X137866502Y-79819998D01*
X137866502Y-79820001D01*
X137886456Y-80048081D01*
X137886457Y-80048089D01*
X137945714Y-80269238D01*
X137945718Y-80269249D01*
X138039702Y-80470799D01*
X138042477Y-80476749D01*
X138173802Y-80664300D01*
X138335700Y-80826198D01*
X138511419Y-80949238D01*
X138523251Y-80957523D01*
X138566345Y-80977618D01*
X138618784Y-81023791D01*
X138637936Y-81090984D01*
X138617720Y-81157865D01*
X138566345Y-81202382D01*
X138523251Y-81222476D01*
X138398126Y-81310090D01*
X138335700Y-81353802D01*
X138335698Y-81353803D01*
X138335695Y-81353806D01*
X138173806Y-81515695D01*
X138042476Y-81703252D01*
X138042475Y-81703254D01*
X137945718Y-81910750D01*
X137945714Y-81910761D01*
X137886457Y-82131910D01*
X137886456Y-82131918D01*
X137866502Y-82359998D01*
X137866502Y-82360001D01*
X137886456Y-82588081D01*
X137886457Y-82588089D01*
X137945714Y-82809238D01*
X137945718Y-82809249D01*
X138042475Y-83016745D01*
X138042477Y-83016749D01*
X138173802Y-83204300D01*
X138335700Y-83366198D01*
X138520565Y-83495642D01*
X138523251Y-83497523D01*
X138566345Y-83517618D01*
X138618784Y-83563791D01*
X138637936Y-83630984D01*
X138617720Y-83697865D01*
X138566345Y-83742382D01*
X138523251Y-83762476D01*
X138398126Y-83850090D01*
X138335700Y-83893802D01*
X138335698Y-83893803D01*
X138335695Y-83893806D01*
X138173806Y-84055695D01*
X138173803Y-84055698D01*
X138173802Y-84055700D01*
X138150836Y-84088499D01*
X138042476Y-84243252D01*
X138042475Y-84243254D01*
X137945718Y-84450750D01*
X137945714Y-84450761D01*
X137886457Y-84671910D01*
X137886456Y-84671918D01*
X137866502Y-84899998D01*
X137866502Y-84900001D01*
X136468500Y-84900001D01*
X136468500Y-74267674D01*
X136488185Y-74200635D01*
X136504814Y-74179998D01*
X137984811Y-72700001D01*
X141646502Y-72700001D01*
X141666456Y-72928081D01*
X141666457Y-72928089D01*
X141725714Y-73149238D01*
X141725718Y-73149249D01*
X141822475Y-73356745D01*
X141822477Y-73356749D01*
X141953802Y-73544300D01*
X142115700Y-73706198D01*
X142303251Y-73837523D01*
X142411093Y-73887810D01*
X142510750Y-73934281D01*
X142510752Y-73934281D01*
X142510757Y-73934284D01*
X142731913Y-73993543D01*
X142894832Y-74007796D01*
X142959998Y-74013498D01*
X142960000Y-74013498D01*
X142960002Y-74013498D01*
X143017021Y-74008509D01*
X143188087Y-73993543D01*
X143409243Y-73934284D01*
X143616749Y-73837523D01*
X143804300Y-73706198D01*
X143914044Y-73596454D01*
X143975367Y-73562969D01*
X144045059Y-73567953D01*
X144100992Y-73609825D01*
X144121930Y-73653694D01*
X144123249Y-73658902D01*
X144123249Y-73658903D01*
X144217015Y-73872668D01*
X144344686Y-74068084D01*
X144501535Y-74238466D01*
X144502780Y-74239818D01*
X144686983Y-74383190D01*
X144686985Y-74383191D01*
X144686988Y-74383193D01*
X144766579Y-74426265D01*
X144892273Y-74494287D01*
X145006914Y-74533643D01*
X145113045Y-74570079D01*
X145113047Y-74570079D01*
X145113049Y-74570080D01*
X145343288Y-74608500D01*
X145343289Y-74608500D01*
X145576711Y-74608500D01*
X145576712Y-74608500D01*
X145806951Y-74570080D01*
X146027727Y-74494287D01*
X146233017Y-74383190D01*
X146417220Y-74239818D01*
X146423646Y-74232837D01*
X146483531Y-74196845D01*
X146553369Y-74198944D01*
X146610986Y-74238466D01*
X146631059Y-74273485D01*
X146656645Y-74342086D01*
X146656649Y-74342093D01*
X146742809Y-74457187D01*
X146742812Y-74457190D01*
X146857906Y-74543350D01*
X146857913Y-74543354D01*
X146992620Y-74593596D01*
X146992627Y-74593598D01*
X147052155Y-74599999D01*
X147052172Y-74600000D01*
X147750000Y-74600000D01*
X147750000Y-73574189D01*
X147802547Y-73610016D01*
X147932173Y-73650000D01*
X148033724Y-73650000D01*
X148134138Y-73634865D01*
X148250000Y-73579068D01*
X148250000Y-74600000D01*
X148947828Y-74600000D01*
X148947844Y-74599999D01*
X149007372Y-74593598D01*
X149007379Y-74593596D01*
X149142086Y-74543354D01*
X149142093Y-74543350D01*
X149257187Y-74457190D01*
X149257190Y-74457187D01*
X149343350Y-74342093D01*
X149343354Y-74342086D01*
X149393596Y-74207379D01*
X149393598Y-74207372D01*
X149399999Y-74147844D01*
X149400000Y-74147827D01*
X149400000Y-73450000D01*
X148375278Y-73450000D01*
X148423625Y-73366260D01*
X148453810Y-73234008D01*
X148443673Y-73098735D01*
X148394113Y-72972459D01*
X148376203Y-72950000D01*
X149400000Y-72950000D01*
X149400000Y-72252172D01*
X149399999Y-72252155D01*
X149393598Y-72192627D01*
X149393596Y-72192620D01*
X149343354Y-72057913D01*
X149343350Y-72057906D01*
X149257190Y-71942812D01*
X149257187Y-71942809D01*
X149142093Y-71856649D01*
X149142086Y-71856645D01*
X149007379Y-71806403D01*
X149007372Y-71806401D01*
X148947844Y-71800000D01*
X148250000Y-71800000D01*
X148250000Y-72825810D01*
X148197453Y-72789984D01*
X148067827Y-72750000D01*
X147966276Y-72750000D01*
X147865862Y-72765135D01*
X147750000Y-72820931D01*
X147750000Y-71800000D01*
X147052155Y-71800000D01*
X146992627Y-71806401D01*
X146992620Y-71806403D01*
X146857913Y-71856645D01*
X146857906Y-71856649D01*
X146742812Y-71942809D01*
X146742809Y-71942812D01*
X146656649Y-72057906D01*
X146656645Y-72057913D01*
X146631059Y-72126514D01*
X146589188Y-72182448D01*
X146523723Y-72206865D01*
X146455450Y-72192013D01*
X146423649Y-72167165D01*
X146417224Y-72160186D01*
X146417222Y-72160184D01*
X146417220Y-72160182D01*
X146233017Y-72016810D01*
X146233015Y-72016809D01*
X146233014Y-72016808D01*
X146233011Y-72016806D01*
X146027733Y-71905716D01*
X146027730Y-71905715D01*
X146027727Y-71905713D01*
X146027721Y-71905711D01*
X146027719Y-71905710D01*
X145806954Y-71829920D01*
X145627650Y-71800000D01*
X145576712Y-71791500D01*
X145343288Y-71791500D01*
X145297240Y-71799184D01*
X145113045Y-71829920D01*
X144892280Y-71905710D01*
X144892266Y-71905716D01*
X144686988Y-72016806D01*
X144686985Y-72016808D01*
X144502781Y-72160180D01*
X144395351Y-72276880D01*
X144335464Y-72312870D01*
X144265626Y-72310769D01*
X144208010Y-72271244D01*
X144191740Y-72245301D01*
X144167727Y-72193806D01*
X144097523Y-72043251D01*
X143966198Y-71855700D01*
X143804300Y-71693802D01*
X143616749Y-71562477D01*
X143616745Y-71562475D01*
X143409249Y-71465718D01*
X143409238Y-71465714D01*
X143188089Y-71406457D01*
X143188081Y-71406456D01*
X142960002Y-71386502D01*
X142959998Y-71386502D01*
X142731918Y-71406456D01*
X142731910Y-71406457D01*
X142510761Y-71465714D01*
X142510750Y-71465718D01*
X142303254Y-71562475D01*
X142303252Y-71562476D01*
X142303251Y-71562477D01*
X142115700Y-71693802D01*
X142115698Y-71693803D01*
X142115695Y-71693806D01*
X141953806Y-71855695D01*
X141953803Y-71855698D01*
X141953802Y-71855700D01*
X141892805Y-71942812D01*
X141822476Y-72043252D01*
X141822475Y-72043254D01*
X141725718Y-72250750D01*
X141725714Y-72250761D01*
X141666457Y-72471910D01*
X141666456Y-72471918D01*
X141646502Y-72699998D01*
X141646502Y-72700001D01*
X137984811Y-72700001D01*
X142068640Y-68616172D01*
X142129960Y-68582689D01*
X142199652Y-68587673D01*
X142255585Y-68629545D01*
X142280002Y-68695009D01*
X142276093Y-68735946D01*
X142266459Y-68771900D01*
X142266456Y-68771918D01*
X142246502Y-68999998D01*
X142246502Y-69000001D01*
X142266456Y-69228081D01*
X142266457Y-69228089D01*
X142325714Y-69449238D01*
X142325718Y-69449249D01*
X142400065Y-69608686D01*
X142422477Y-69656749D01*
X142553802Y-69844300D01*
X142715700Y-70006198D01*
X142903251Y-70137523D01*
X143028091Y-70195736D01*
X143110750Y-70234281D01*
X143110752Y-70234281D01*
X143110757Y-70234284D01*
X143331913Y-70293543D01*
X143494832Y-70307796D01*
X143559998Y-70313498D01*
X143560000Y-70313498D01*
X143560002Y-70313498D01*
X143617021Y-70308509D01*
X143788087Y-70293543D01*
X144009243Y-70234284D01*
X144216749Y-70137523D01*
X144404300Y-70006198D01*
X144566198Y-69844300D01*
X144697523Y-69656749D01*
X144794284Y-69449243D01*
X144853543Y-69228087D01*
X144873498Y-69000000D01*
X144853543Y-68771913D01*
X144794284Y-68550757D01*
X144697523Y-68343251D01*
X144566198Y-68155700D01*
X144404300Y-67993802D01*
X144216749Y-67862477D01*
X144156289Y-67834284D01*
X144009249Y-67765718D01*
X144009238Y-67765714D01*
X143788089Y-67706457D01*
X143788081Y-67706456D01*
X143560002Y-67686502D01*
X143559998Y-67686502D01*
X143331918Y-67706456D01*
X143331900Y-67706459D01*
X143295946Y-67716093D01*
X143226096Y-67714429D01*
X143168235Y-67675266D01*
X143140732Y-67611037D01*
X143152320Y-67542135D01*
X143176170Y-67508641D01*
X143944810Y-66740001D01*
X149986502Y-66740001D01*
X150006456Y-66968081D01*
X150006457Y-66968089D01*
X150065714Y-67189238D01*
X150065718Y-67189249D01*
X150142536Y-67353986D01*
X150162477Y-67396749D01*
X150293802Y-67584300D01*
X150455700Y-67746198D01*
X150643251Y-67877523D01*
X150720400Y-67913498D01*
X150850750Y-67974281D01*
X150850752Y-67974281D01*
X150850757Y-67974284D01*
X151071913Y-68033543D01*
X151234832Y-68047796D01*
X151299998Y-68053498D01*
X151300000Y-68053498D01*
X151300002Y-68053498D01*
X151357021Y-68048509D01*
X151528087Y-68033543D01*
X151749243Y-67974284D01*
X151956749Y-67877523D01*
X152144300Y-67746198D01*
X152306198Y-67584300D01*
X152437523Y-67396749D01*
X152534284Y-67189243D01*
X152593543Y-66968087D01*
X152613498Y-66740000D01*
X152593543Y-66511913D01*
X152534284Y-66290757D01*
X152510149Y-66239000D01*
X152473888Y-66161237D01*
X152437523Y-66083251D01*
X152306198Y-65895700D01*
X152144300Y-65733802D01*
X151956749Y-65602477D01*
X151938154Y-65593806D01*
X151749249Y-65505718D01*
X151749238Y-65505714D01*
X151528089Y-65446457D01*
X151528081Y-65446456D01*
X151300002Y-65426502D01*
X151299998Y-65426502D01*
X151071918Y-65446456D01*
X151071910Y-65446457D01*
X150850761Y-65505714D01*
X150850750Y-65505718D01*
X150643254Y-65602475D01*
X150643252Y-65602476D01*
X150643251Y-65602477D01*
X150455700Y-65733802D01*
X150455698Y-65733803D01*
X150455695Y-65733806D01*
X150293806Y-65895695D01*
X150293803Y-65895698D01*
X150293802Y-65895700D01*
X150259772Y-65944300D01*
X150162476Y-66083252D01*
X150162475Y-66083254D01*
X150065718Y-66290750D01*
X150065714Y-66290761D01*
X150006457Y-66511910D01*
X150006456Y-66511918D01*
X149986502Y-66739998D01*
X149986502Y-66740001D01*
X143944810Y-66740001D01*
X145484951Y-65199860D01*
X145499738Y-65187231D01*
X145511253Y-65178866D01*
X145558144Y-65126786D01*
X145560346Y-65124465D01*
X145576072Y-65108741D01*
X145590074Y-65091449D01*
X145592115Y-65089058D01*
X145639040Y-65036944D01*
X145646153Y-65024623D01*
X145657173Y-65008589D01*
X145666129Y-64997530D01*
X145697959Y-64935058D01*
X145699484Y-64932251D01*
X145734527Y-64871556D01*
X145738922Y-64858026D01*
X145746365Y-64840056D01*
X145752830Y-64827370D01*
X145770970Y-64759665D01*
X145771889Y-64756566D01*
X145793541Y-64689931D01*
X145793540Y-64689931D01*
X145793542Y-64689928D01*
X145795029Y-64675769D01*
X145798573Y-64656648D01*
X145802257Y-64642903D01*
X145805925Y-64572911D01*
X145806178Y-64569698D01*
X145808500Y-64547610D01*
X145808500Y-64525404D01*
X145808585Y-64522158D01*
X145809746Y-64499999D01*
X145812252Y-64452190D01*
X145810026Y-64438140D01*
X145808500Y-64418743D01*
X145808500Y-64165086D01*
X145828185Y-64098047D01*
X145880989Y-64052292D01*
X145950147Y-64042348D01*
X146013703Y-64071373D01*
X146023718Y-64081091D01*
X146077780Y-64139818D01*
X146261983Y-64283190D01*
X146261985Y-64283191D01*
X146261988Y-64283193D01*
X146381331Y-64347777D01*
X146467273Y-64394287D01*
X146581914Y-64433643D01*
X146688045Y-64470079D01*
X146688047Y-64470079D01*
X146688049Y-64470080D01*
X146918288Y-64508500D01*
X146918289Y-64508500D01*
X147151711Y-64508500D01*
X147151712Y-64508500D01*
X147381951Y-64470080D01*
X147602727Y-64394287D01*
X147808017Y-64283190D01*
X147992220Y-64139818D01*
X147998646Y-64132837D01*
X148058531Y-64096845D01*
X148128369Y-64098944D01*
X148185986Y-64138466D01*
X148206059Y-64173485D01*
X148231645Y-64242086D01*
X148231649Y-64242093D01*
X148317809Y-64357187D01*
X148317812Y-64357190D01*
X148432906Y-64443350D01*
X148432913Y-64443354D01*
X148567620Y-64493596D01*
X148567627Y-64493598D01*
X148627155Y-64499999D01*
X148627172Y-64500000D01*
X149325000Y-64500000D01*
X149325000Y-63474189D01*
X149377547Y-63510016D01*
X149507173Y-63550000D01*
X149608724Y-63550000D01*
X149709138Y-63534865D01*
X149825000Y-63479068D01*
X149825000Y-64500000D01*
X150522828Y-64500000D01*
X150522844Y-64499999D01*
X150582372Y-64493598D01*
X150582379Y-64493596D01*
X150717086Y-64443354D01*
X150717093Y-64443350D01*
X150832187Y-64357190D01*
X150832190Y-64357187D01*
X150918350Y-64242093D01*
X150918354Y-64242086D01*
X150968596Y-64107379D01*
X150968598Y-64107372D01*
X150974999Y-64047844D01*
X150975000Y-64047827D01*
X150975000Y-63350000D01*
X149950278Y-63350000D01*
X149998625Y-63266260D01*
X150028810Y-63134008D01*
X150018673Y-62998735D01*
X149969113Y-62872459D01*
X149951203Y-62850000D01*
X150975000Y-62850000D01*
X150975000Y-62152172D01*
X150974999Y-62152155D01*
X150968598Y-62092627D01*
X150968596Y-62092620D01*
X150918354Y-61957913D01*
X150918350Y-61957906D01*
X150832190Y-61842812D01*
X150832187Y-61842809D01*
X150717093Y-61756649D01*
X150717086Y-61756645D01*
X150582379Y-61706403D01*
X150582372Y-61706401D01*
X150522844Y-61700000D01*
X149825000Y-61700000D01*
X149825000Y-62725810D01*
X149772453Y-62689984D01*
X149642827Y-62650000D01*
X149541276Y-62650000D01*
X149440862Y-62665135D01*
X149325000Y-62720931D01*
X149325000Y-61700000D01*
X148627155Y-61700000D01*
X148567627Y-61706401D01*
X148567620Y-61706403D01*
X148432913Y-61756645D01*
X148432906Y-61756649D01*
X148317812Y-61842809D01*
X148317809Y-61842812D01*
X148231649Y-61957906D01*
X148231645Y-61957913D01*
X148206059Y-62026514D01*
X148164188Y-62082448D01*
X148098723Y-62106865D01*
X148030450Y-62092013D01*
X147998649Y-62067165D01*
X147992224Y-62060186D01*
X147992222Y-62060184D01*
X147992220Y-62060182D01*
X147808017Y-61916810D01*
X147808015Y-61916809D01*
X147808014Y-61916808D01*
X147808011Y-61916806D01*
X147602733Y-61805716D01*
X147602730Y-61805715D01*
X147602727Y-61805713D01*
X147602721Y-61805711D01*
X147602719Y-61805710D01*
X147381954Y-61729920D01*
X147202650Y-61700000D01*
X147151712Y-61691500D01*
X146918288Y-61691500D01*
X146872240Y-61699184D01*
X146688045Y-61729920D01*
X146467280Y-61805710D01*
X146467266Y-61805716D01*
X146261988Y-61916806D01*
X146261985Y-61916808D01*
X146077781Y-62060181D01*
X146077776Y-62060185D01*
X146023729Y-62118896D01*
X145963842Y-62154887D01*
X145894004Y-62152786D01*
X145836388Y-62113262D01*
X145809287Y-62048862D01*
X145808500Y-62034913D01*
X145808500Y-61381255D01*
X145810027Y-61361855D01*
X145812252Y-61347809D01*
X145808585Y-61277838D01*
X145808500Y-61274593D01*
X145808500Y-61252391D01*
X145808499Y-61252382D01*
X145806178Y-61230299D01*
X145805924Y-61227082D01*
X145802257Y-61157096D01*
X145798576Y-61143359D01*
X145795029Y-61124221D01*
X145794681Y-61120920D01*
X145793542Y-61110072D01*
X145771882Y-61043411D01*
X145770961Y-61040301D01*
X145766551Y-61023841D01*
X145752829Y-60972630D01*
X145746367Y-60959949D01*
X145738923Y-60941975D01*
X145734527Y-60928444D01*
X145699491Y-60867761D01*
X145697942Y-60864907D01*
X145690655Y-60850605D01*
X145666129Y-60802469D01*
X145657169Y-60791404D01*
X145646153Y-60775375D01*
X145639042Y-60763059D01*
X145639038Y-60763054D01*
X145628381Y-60751218D01*
X145592148Y-60710977D01*
X145590073Y-60708547D01*
X145576072Y-60691258D01*
X145560364Y-60675550D01*
X145558128Y-60673194D01*
X145511253Y-60621134D01*
X145499744Y-60612772D01*
X145484950Y-60600136D01*
X141089819Y-56205005D01*
X141056334Y-56143682D01*
X141053500Y-56117324D01*
X141053500Y-55748360D01*
X141073185Y-55681321D01*
X141089819Y-55660679D01*
X141097046Y-55653452D01*
X141151198Y-55599300D01*
X141282523Y-55411749D01*
X141302618Y-55368655D01*
X141348790Y-55316215D01*
X141415983Y-55297063D01*
X141482864Y-55317278D01*
X141527382Y-55368655D01*
X141547477Y-55411749D01*
X141678802Y-55599300D01*
X141840700Y-55761198D01*
X142028251Y-55892523D01*
X142153091Y-55950736D01*
X142235750Y-55989281D01*
X142235752Y-55989281D01*
X142235757Y-55989284D01*
X142456913Y-56048543D01*
X142619832Y-56062796D01*
X142684998Y-56068498D01*
X142685000Y-56068498D01*
X142685002Y-56068498D01*
X142742021Y-56063509D01*
X142913087Y-56048543D01*
X143134243Y-55989284D01*
X143341749Y-55892523D01*
X143529300Y-55761198D01*
X143691198Y-55599300D01*
X143822523Y-55411749D01*
X143919284Y-55204243D01*
X143978543Y-54983087D01*
X143993500Y-54812127D01*
X143993500Y-54550002D01*
X146030134Y-54550002D01*
X146049958Y-54776599D01*
X146049960Y-54776610D01*
X146108830Y-54996317D01*
X146108834Y-54996326D01*
X146204965Y-55202481D01*
X146204966Y-55202483D01*
X146256073Y-55275471D01*
X146256074Y-55275472D01*
X146937146Y-54594399D01*
X146949935Y-54675148D01*
X147007459Y-54788045D01*
X147097055Y-54877641D01*
X147209952Y-54935165D01*
X147290697Y-54947953D01*
X146609626Y-55629025D01*
X146609626Y-55629026D01*
X146682612Y-55680131D01*
X146682616Y-55680133D01*
X146888773Y-55776265D01*
X146888782Y-55776269D01*
X147108489Y-55835139D01*
X147108500Y-55835141D01*
X147335098Y-55854966D01*
X147335102Y-55854966D01*
X147561699Y-55835141D01*
X147561710Y-55835139D01*
X147781417Y-55776269D01*
X147781431Y-55776264D01*
X147987577Y-55680137D01*
X147993792Y-55675785D01*
X148059996Y-55653452D01*
X148127765Y-55670457D01*
X148164190Y-55703043D01*
X148171839Y-55713261D01*
X148288896Y-55800889D01*
X148425899Y-55851989D01*
X148453150Y-55854918D01*
X148486445Y-55858499D01*
X148486462Y-55858500D01*
X150183738Y-55858500D01*
X150183754Y-55858499D01*
X150210792Y-55855591D01*
X150244301Y-55851989D01*
X150381304Y-55800889D01*
X150498361Y-55713261D01*
X150585989Y-55596204D01*
X150637089Y-55459201D01*
X150640691Y-55425692D01*
X150643599Y-55398654D01*
X150643600Y-55398637D01*
X150643600Y-53701362D01*
X150643599Y-53701345D01*
X150640257Y-53670270D01*
X150637089Y-53640799D01*
X150636436Y-53639049D01*
X150620800Y-53597127D01*
X153141500Y-53597127D01*
X153156456Y-53768081D01*
X153156457Y-53768089D01*
X153215714Y-53989238D01*
X153215718Y-53989249D01*
X153291435Y-54151624D01*
X153312477Y-54196749D01*
X153443802Y-54384300D01*
X153605700Y-54546198D01*
X153793251Y-54677523D01*
X153804227Y-54682641D01*
X154000750Y-54774281D01*
X154000752Y-54774281D01*
X154000757Y-54774284D01*
X154221913Y-54833543D01*
X154382551Y-54847597D01*
X154449998Y-54853498D01*
X154450000Y-54853498D01*
X154450002Y-54853498D01*
X154507021Y-54848509D01*
X154678087Y-54833543D01*
X154899243Y-54774284D01*
X155106749Y-54677523D01*
X155294300Y-54546198D01*
X155456198Y-54384300D01*
X155587523Y-54196749D01*
X155607618Y-54153655D01*
X155653790Y-54101215D01*
X155720983Y-54082063D01*
X155787864Y-54102278D01*
X155832382Y-54153655D01*
X155852477Y-54196749D01*
X155983802Y-54384300D01*
X156145700Y-54546198D01*
X156333251Y-54677523D01*
X156344227Y-54682641D01*
X156540750Y-54774281D01*
X156540752Y-54774281D01*
X156540757Y-54774284D01*
X156761913Y-54833543D01*
X156922551Y-54847597D01*
X156989998Y-54853498D01*
X156990000Y-54853498D01*
X156990002Y-54853498D01*
X157047021Y-54848509D01*
X157218087Y-54833543D01*
X157439243Y-54774284D01*
X157646749Y-54677523D01*
X157834300Y-54546198D01*
X157996198Y-54384300D01*
X158127523Y-54196749D01*
X158147618Y-54153655D01*
X158193790Y-54101215D01*
X158260983Y-54082063D01*
X158327864Y-54102278D01*
X158372382Y-54153655D01*
X158392477Y-54196749D01*
X158523802Y-54384300D01*
X158685700Y-54546198D01*
X158873251Y-54677523D01*
X158884227Y-54682641D01*
X159080750Y-54774281D01*
X159080752Y-54774281D01*
X159080757Y-54774284D01*
X159301913Y-54833543D01*
X159462551Y-54847597D01*
X159529998Y-54853498D01*
X159530000Y-54853498D01*
X159530002Y-54853498D01*
X159587021Y-54848509D01*
X159758087Y-54833543D01*
X159979243Y-54774284D01*
X160186749Y-54677523D01*
X160374300Y-54546198D01*
X160536198Y-54384300D01*
X160667523Y-54196749D01*
X160687618Y-54153655D01*
X160733790Y-54101215D01*
X160800983Y-54082063D01*
X160867864Y-54102278D01*
X160912382Y-54153655D01*
X160932477Y-54196749D01*
X161063802Y-54384300D01*
X161225700Y-54546198D01*
X161413251Y-54677523D01*
X161424227Y-54682641D01*
X161620750Y-54774281D01*
X161620752Y-54774281D01*
X161620757Y-54774284D01*
X161841913Y-54833543D01*
X162002551Y-54847597D01*
X162069998Y-54853498D01*
X162070000Y-54853498D01*
X162070002Y-54853498D01*
X162127021Y-54848509D01*
X162298087Y-54833543D01*
X162519243Y-54774284D01*
X162726749Y-54677523D01*
X162914300Y-54546198D01*
X163076198Y-54384300D01*
X163207523Y-54196749D01*
X163304284Y-53989243D01*
X163363543Y-53768087D01*
X163378500Y-53597127D01*
X163378500Y-52682873D01*
X163363543Y-52511913D01*
X163304284Y-52290757D01*
X163207523Y-52083251D01*
X163076198Y-51895700D01*
X162914300Y-51733802D01*
X162726749Y-51602477D01*
X162721549Y-51600052D01*
X162519249Y-51505718D01*
X162519238Y-51505714D01*
X162298089Y-51446457D01*
X162298081Y-51446456D01*
X162070002Y-51426502D01*
X162069998Y-51426502D01*
X161841918Y-51446456D01*
X161841910Y-51446457D01*
X161620761Y-51505714D01*
X161620750Y-51505718D01*
X161413254Y-51602475D01*
X161413252Y-51602476D01*
X161413251Y-51602477D01*
X161225700Y-51733802D01*
X161225698Y-51733803D01*
X161225695Y-51733806D01*
X161063806Y-51895695D01*
X161063803Y-51895698D01*
X161063802Y-51895700D01*
X161020090Y-51958126D01*
X160932476Y-52083251D01*
X160912382Y-52126345D01*
X160866209Y-52178784D01*
X160799016Y-52197936D01*
X160732135Y-52177720D01*
X160687618Y-52126345D01*
X160667523Y-52083251D01*
X160620620Y-52016267D01*
X160536198Y-51895700D01*
X160374300Y-51733802D01*
X160186749Y-51602477D01*
X160181549Y-51600052D01*
X159979249Y-51505718D01*
X159979238Y-51505714D01*
X159758089Y-51446457D01*
X159758081Y-51446456D01*
X159530002Y-51426502D01*
X159529998Y-51426502D01*
X159301918Y-51446456D01*
X159301910Y-51446457D01*
X159080761Y-51505714D01*
X159080750Y-51505718D01*
X158873254Y-51602475D01*
X158873252Y-51602476D01*
X158873251Y-51602477D01*
X158685700Y-51733802D01*
X158685698Y-51733803D01*
X158685695Y-51733806D01*
X158523806Y-51895695D01*
X158523803Y-51895698D01*
X158523802Y-51895700D01*
X158480090Y-51958126D01*
X158392476Y-52083251D01*
X158372382Y-52126345D01*
X158326209Y-52178784D01*
X158259016Y-52197936D01*
X158192135Y-52177720D01*
X158147618Y-52126345D01*
X158127523Y-52083251D01*
X158080620Y-52016267D01*
X157996198Y-51895700D01*
X157834300Y-51733802D01*
X157646749Y-51602477D01*
X157641549Y-51600052D01*
X157439249Y-51505718D01*
X157439238Y-51505714D01*
X157218089Y-51446457D01*
X157218081Y-51446456D01*
X156990002Y-51426502D01*
X156989998Y-51426502D01*
X156761918Y-51446456D01*
X156761910Y-51446457D01*
X156540761Y-51505714D01*
X156540750Y-51505718D01*
X156333254Y-51602475D01*
X156333252Y-51602476D01*
X156333251Y-51602477D01*
X156145700Y-51733802D01*
X156145698Y-51733803D01*
X156145695Y-51733806D01*
X155983806Y-51895695D01*
X155983803Y-51895698D01*
X155983802Y-51895700D01*
X155940090Y-51958126D01*
X155852476Y-52083251D01*
X155832382Y-52126345D01*
X155786209Y-52178784D01*
X155719016Y-52197936D01*
X155652135Y-52177720D01*
X155607618Y-52126345D01*
X155587523Y-52083251D01*
X155540620Y-52016267D01*
X155456198Y-51895700D01*
X155294300Y-51733802D01*
X155106749Y-51602477D01*
X155101549Y-51600052D01*
X154899249Y-51505718D01*
X154899238Y-51505714D01*
X154678089Y-51446457D01*
X154678081Y-51446456D01*
X154450002Y-51426502D01*
X154449998Y-51426502D01*
X154221918Y-51446456D01*
X154221910Y-51446457D01*
X154000761Y-51505714D01*
X154000750Y-51505718D01*
X153793254Y-51602475D01*
X153793252Y-51602476D01*
X153793251Y-51602477D01*
X153605700Y-51733802D01*
X153605698Y-51733803D01*
X153605695Y-51733806D01*
X153443806Y-51895695D01*
X153443803Y-51895698D01*
X153443802Y-51895700D01*
X153361767Y-52012856D01*
X153312476Y-52083252D01*
X153312475Y-52083254D01*
X153215718Y-52290750D01*
X153215714Y-52290761D01*
X153156457Y-52511910D01*
X153156456Y-52511918D01*
X153141500Y-52682873D01*
X153141500Y-53597127D01*
X150620800Y-53597127D01*
X150602891Y-53549111D01*
X150585989Y-53503796D01*
X150498361Y-53386739D01*
X150381304Y-53299111D01*
X150378998Y-53298251D01*
X150244303Y-53248011D01*
X150183754Y-53241500D01*
X150183738Y-53241500D01*
X148486462Y-53241500D01*
X148486445Y-53241500D01*
X148425897Y-53248011D01*
X148425895Y-53248011D01*
X148288895Y-53299111D01*
X148171838Y-53386740D01*
X148164188Y-53396959D01*
X148108253Y-53438828D01*
X148038561Y-53443809D01*
X147993804Y-53424222D01*
X147987582Y-53419866D01*
X147781426Y-53323734D01*
X147781417Y-53323730D01*
X147561710Y-53264860D01*
X147561699Y-53264858D01*
X147335102Y-53245034D01*
X147335098Y-53245034D01*
X147108500Y-53264858D01*
X147108489Y-53264860D01*
X146888782Y-53323730D01*
X146888773Y-53323734D01*
X146682613Y-53419868D01*
X146609626Y-53470973D01*
X147290699Y-54152046D01*
X147209952Y-54164835D01*
X147097055Y-54222359D01*
X147007459Y-54311955D01*
X146949935Y-54424852D01*
X146937146Y-54505599D01*
X146256073Y-53824526D01*
X146256072Y-53824527D01*
X146204968Y-53897513D01*
X146108834Y-54103673D01*
X146108830Y-54103682D01*
X146049960Y-54323389D01*
X146049958Y-54323400D01*
X146030134Y-54549997D01*
X146030134Y-54550002D01*
X143993500Y-54550002D01*
X143993500Y-53897873D01*
X143978543Y-53726913D01*
X143919284Y-53505757D01*
X143910316Y-53486526D01*
X143851996Y-53361457D01*
X143822523Y-53298251D01*
X143691198Y-53110700D01*
X143529300Y-52948802D01*
X143341749Y-52817477D01*
X143341745Y-52817475D01*
X143134249Y-52720718D01*
X143134238Y-52720714D01*
X142913089Y-52661457D01*
X142913081Y-52661456D01*
X142685002Y-52641502D01*
X142684998Y-52641502D01*
X142456918Y-52661456D01*
X142456910Y-52661457D01*
X142235761Y-52720714D01*
X142235750Y-52720718D01*
X142028254Y-52817475D01*
X142028252Y-52817476D01*
X142028251Y-52817477D01*
X141840700Y-52948802D01*
X141840698Y-52948803D01*
X141840695Y-52948806D01*
X141678806Y-53110695D01*
X141547476Y-53298251D01*
X141527382Y-53341345D01*
X141481209Y-53393784D01*
X141414016Y-53412936D01*
X141347135Y-53392720D01*
X141302618Y-53341345D01*
X141282523Y-53298251D01*
X141242785Y-53241500D01*
X141151198Y-53110700D01*
X140989300Y-52948802D01*
X140801749Y-52817477D01*
X140801745Y-52817475D01*
X140594249Y-52720718D01*
X140594238Y-52720714D01*
X140373089Y-52661457D01*
X140373081Y-52661456D01*
X140145002Y-52641502D01*
X140144998Y-52641502D01*
X139916918Y-52661456D01*
X139916910Y-52661457D01*
X139695761Y-52720714D01*
X139695750Y-52720718D01*
X139488254Y-52817475D01*
X139488252Y-52817476D01*
X139488251Y-52817477D01*
X139300700Y-52948802D01*
X139300698Y-52948803D01*
X139300695Y-52948806D01*
X139138806Y-53110695D01*
X139007476Y-53298252D01*
X139007474Y-53298256D01*
X138982691Y-53351402D01*
X138936518Y-53403841D01*
X138869324Y-53422992D01*
X138802444Y-53402775D01*
X138757927Y-53351399D01*
X138735133Y-53302517D01*
X138604657Y-53116179D01*
X138443820Y-52955342D01*
X138257482Y-52824865D01*
X138051328Y-52728734D01*
X137855000Y-52676127D01*
X137855000Y-54039314D01*
X137843045Y-54027359D01*
X137730148Y-53969835D01*
X137636481Y-53955000D01*
X137573519Y-53955000D01*
X137479852Y-53969835D01*
X137366955Y-54027359D01*
X137355000Y-54039314D01*
X137355000Y-52676127D01*
X137158671Y-52728734D01*
X136952517Y-52824865D01*
X136766179Y-52955342D01*
X136605342Y-53116179D01*
X136474865Y-53302517D01*
X136447382Y-53361457D01*
X136401210Y-53413896D01*
X136334016Y-53433048D01*
X136267135Y-53412832D01*
X136222618Y-53361457D01*
X136195134Y-53302517D01*
X136064657Y-53116179D01*
X135903820Y-52955342D01*
X135717482Y-52824865D01*
X135511328Y-52728734D01*
X135315000Y-52676127D01*
X135315000Y-54039314D01*
X135303045Y-54027359D01*
X135190148Y-53969835D01*
X135096481Y-53955000D01*
X135033519Y-53955000D01*
X134939852Y-53969835D01*
X134826955Y-54027359D01*
X134815000Y-54039314D01*
X134815000Y-52676127D01*
X134618671Y-52728734D01*
X134412517Y-52824865D01*
X134226179Y-52955342D01*
X134065342Y-53116179D01*
X133934865Y-53302517D01*
X133912071Y-53351401D01*
X133865898Y-53403840D01*
X133798705Y-53422992D01*
X133731824Y-53402776D01*
X133687307Y-53351401D01*
X133662523Y-53298251D01*
X133622785Y-53241500D01*
X133531198Y-53110700D01*
X133369300Y-52948802D01*
X133181749Y-52817477D01*
X133181745Y-52817475D01*
X132974249Y-52720718D01*
X132974238Y-52720714D01*
X132753089Y-52661457D01*
X132753081Y-52661456D01*
X132525002Y-52641502D01*
X132524998Y-52641502D01*
X132296918Y-52661456D01*
X132296910Y-52661457D01*
X132075761Y-52720714D01*
X132075750Y-52720718D01*
X131868254Y-52817475D01*
X131868252Y-52817476D01*
X131868251Y-52817477D01*
X131680700Y-52948802D01*
X131680698Y-52948803D01*
X131680695Y-52948806D01*
X131518806Y-53110695D01*
X131387476Y-53298252D01*
X131387474Y-53298256D01*
X131362691Y-53351402D01*
X131316518Y-53403841D01*
X131249324Y-53422992D01*
X131182444Y-53402775D01*
X131137927Y-53351399D01*
X131115133Y-53302517D01*
X130984657Y-53116179D01*
X130823820Y-52955342D01*
X130637482Y-52824865D01*
X130431328Y-52728734D01*
X130235000Y-52676127D01*
X130235000Y-54039314D01*
X130223045Y-54027359D01*
X130110148Y-53969835D01*
X130016481Y-53955000D01*
X129953519Y-53955000D01*
X129859852Y-53969835D01*
X129746955Y-54027359D01*
X129735000Y-54039314D01*
X129735000Y-52676127D01*
X129538671Y-52728734D01*
X129332517Y-52824865D01*
X129146179Y-52955342D01*
X128985342Y-53116179D01*
X128854865Y-53302517D01*
X128832071Y-53351401D01*
X128785898Y-53403840D01*
X128718705Y-53422992D01*
X128651824Y-53402776D01*
X128607307Y-53351401D01*
X128582523Y-53298251D01*
X128542785Y-53241500D01*
X128451198Y-53110700D01*
X128289300Y-52948802D01*
X128101749Y-52817477D01*
X128101745Y-52817475D01*
X127894249Y-52720718D01*
X127894238Y-52720714D01*
X127673089Y-52661457D01*
X127673081Y-52661456D01*
X127445002Y-52641502D01*
X127444998Y-52641502D01*
X127216918Y-52661456D01*
X127216910Y-52661457D01*
X126995761Y-52720714D01*
X126995750Y-52720718D01*
X126788254Y-52817475D01*
X126788252Y-52817476D01*
X126788251Y-52817477D01*
X126600700Y-52948802D01*
X126600698Y-52948803D01*
X126600695Y-52948806D01*
X126438806Y-53110695D01*
X126307476Y-53298252D01*
X126307475Y-53298254D01*
X126210718Y-53505750D01*
X126210714Y-53505761D01*
X126151457Y-53726910D01*
X126151456Y-53726918D01*
X126136500Y-53897873D01*
X126136500Y-54812127D01*
X126151456Y-54983081D01*
X126151457Y-54983089D01*
X126210714Y-55204238D01*
X126210718Y-55204249D01*
X126279805Y-55352406D01*
X126307477Y-55411749D01*
X126438802Y-55599300D01*
X126600700Y-55761198D01*
X126788251Y-55892523D01*
X126913091Y-55950736D01*
X126995750Y-55989281D01*
X126995752Y-55989281D01*
X126995757Y-55989284D01*
X127216913Y-56048543D01*
X127379832Y-56062796D01*
X127444998Y-56068498D01*
X127445000Y-56068498D01*
X127445002Y-56068498D01*
X127502021Y-56063509D01*
X127673087Y-56048543D01*
X127894243Y-55989284D01*
X128101749Y-55892523D01*
X128289300Y-55761198D01*
X128451198Y-55599300D01*
X128582523Y-55411749D01*
X128607307Y-55358598D01*
X128653479Y-55306159D01*
X128720672Y-55287007D01*
X128787553Y-55307222D01*
X128832071Y-55358599D01*
X128854864Y-55407479D01*
X128854865Y-55407481D01*
X128985342Y-55593820D01*
X129146179Y-55754657D01*
X129332517Y-55885134D01*
X129538673Y-55981265D01*
X129538682Y-55981269D01*
X129734999Y-56033872D01*
X129735000Y-56033871D01*
X129735000Y-54670686D01*
X129746955Y-54682641D01*
X129859852Y-54740165D01*
X129953519Y-54755000D01*
X130016481Y-54755000D01*
X130110148Y-54740165D01*
X130223045Y-54682641D01*
X130235000Y-54670686D01*
X130235000Y-56033872D01*
X130431317Y-55981269D01*
X130431326Y-55981265D01*
X130637482Y-55885134D01*
X130823820Y-55754657D01*
X130984657Y-55593820D01*
X131115133Y-55407483D01*
X131137927Y-55358600D01*
X131184098Y-55306160D01*
X131251292Y-55287007D01*
X131318173Y-55307221D01*
X131362691Y-55358596D01*
X131387477Y-55411749D01*
X131518802Y-55599300D01*
X131680700Y-55761198D01*
X131868251Y-55892523D01*
X131993091Y-55950736D01*
X132075750Y-55989281D01*
X132075752Y-55989281D01*
X132075757Y-55989284D01*
X132296913Y-56048543D01*
X132459832Y-56062796D01*
X132524998Y-56068498D01*
X132525000Y-56068498D01*
X132525002Y-56068498D01*
X132582021Y-56063509D01*
X132753087Y-56048543D01*
X132974243Y-55989284D01*
X133181749Y-55892523D01*
X133369300Y-55761198D01*
X133531198Y-55599300D01*
X133662523Y-55411749D01*
X133687307Y-55358598D01*
X133733479Y-55306159D01*
X133800672Y-55287007D01*
X133867553Y-55307222D01*
X133912071Y-55358599D01*
X133934864Y-55407479D01*
X133934865Y-55407481D01*
X134065342Y-55593820D01*
X134226179Y-55754657D01*
X134412517Y-55885134D01*
X134618673Y-55981265D01*
X134618682Y-55981269D01*
X134814999Y-56033872D01*
X134815000Y-56033871D01*
X134815000Y-54670686D01*
X134826955Y-54682641D01*
X134939852Y-54740165D01*
X135033519Y-54755000D01*
X135096481Y-54755000D01*
X135190148Y-54740165D01*
X135303045Y-54682641D01*
X135315000Y-54670686D01*
X135315000Y-56033872D01*
X135511317Y-55981269D01*
X135511326Y-55981265D01*
X135717482Y-55885134D01*
X135903820Y-55754657D01*
X136064657Y-55593820D01*
X136195134Y-55407481D01*
X136195135Y-55407479D01*
X136222618Y-55348543D01*
X136268790Y-55296103D01*
X136335983Y-55276951D01*
X136402864Y-55297166D01*
X136447382Y-55348543D01*
X136474864Y-55407479D01*
X136474865Y-55407481D01*
X136605342Y-55593820D01*
X136766179Y-55754657D01*
X136952517Y-55885134D01*
X137158673Y-55981265D01*
X137158682Y-55981269D01*
X137354999Y-56033872D01*
X137355000Y-56033871D01*
X137355000Y-54670686D01*
X137366955Y-54682641D01*
X137479852Y-54740165D01*
X137573519Y-54755000D01*
X137636481Y-54755000D01*
X137730148Y-54740165D01*
X137843045Y-54682641D01*
X137855000Y-54670686D01*
X137855000Y-56033872D01*
X138051317Y-55981269D01*
X138051326Y-55981265D01*
X138257482Y-55885134D01*
X138443820Y-55754657D01*
X138604657Y-55593820D01*
X138735133Y-55407483D01*
X138757927Y-55358600D01*
X138804098Y-55306160D01*
X138871292Y-55287007D01*
X138938173Y-55307221D01*
X138982691Y-55358596D01*
X139007477Y-55411749D01*
X139138802Y-55599300D01*
X139138806Y-55599304D01*
X139200181Y-55660679D01*
X139233666Y-55722002D01*
X139236500Y-55748360D01*
X139236500Y-56463743D01*
X139234973Y-56483142D01*
X139232748Y-56497188D01*
X139236415Y-56567158D01*
X139236500Y-56570404D01*
X139236500Y-56592610D01*
X139238303Y-56609776D01*
X139238820Y-56614693D01*
X139239074Y-56617925D01*
X139242742Y-56687901D01*
X139246424Y-56701640D01*
X139249969Y-56720767D01*
X139251457Y-56734927D01*
X139262378Y-56768540D01*
X139273121Y-56801604D01*
X139274028Y-56804663D01*
X139283282Y-56839200D01*
X139292171Y-56872373D01*
X139298631Y-56885051D01*
X139306073Y-56903018D01*
X139310470Y-56916550D01*
X139310471Y-56916553D01*
X139310473Y-56916556D01*
X139345521Y-56977262D01*
X139347059Y-56980094D01*
X139378868Y-57042524D01*
X139378873Y-57042533D01*
X139387827Y-57053590D01*
X139398838Y-57069610D01*
X139405960Y-57081944D01*
X139405962Y-57081947D01*
X139452846Y-57134017D01*
X139454946Y-57136476D01*
X139468928Y-57153741D01*
X139468931Y-57153744D01*
X139484625Y-57169438D01*
X139486846Y-57171777D01*
X139533747Y-57223866D01*
X139545257Y-57232228D01*
X139560052Y-57244865D01*
X142415247Y-60100060D01*
X142448732Y-60161383D01*
X142443748Y-60231075D01*
X142401876Y-60287008D01*
X142359660Y-60307516D01*
X142235761Y-60340714D01*
X142235750Y-60340718D01*
X142028254Y-60437475D01*
X142028252Y-60437476D01*
X142028251Y-60437477D01*
X141840700Y-60568802D01*
X141840698Y-60568803D01*
X141840695Y-60568806D01*
X141678806Y-60730695D01*
X141678803Y-60730698D01*
X141678802Y-60730700D01*
X141647520Y-60775375D01*
X141547476Y-60918251D01*
X141527382Y-60961345D01*
X141481209Y-61013784D01*
X141414016Y-61032936D01*
X141347135Y-61012720D01*
X141302618Y-60961345D01*
X141282523Y-60918251D01*
X141245171Y-60864907D01*
X141151198Y-60730700D01*
X140989300Y-60568802D01*
X140801749Y-60437477D01*
X140801745Y-60437475D01*
X140594249Y-60340718D01*
X140594238Y-60340714D01*
X140373089Y-60281457D01*
X140373081Y-60281456D01*
X140145002Y-60261502D01*
X140144998Y-60261502D01*
X139916918Y-60281456D01*
X139916910Y-60281457D01*
X139695761Y-60340714D01*
X139695750Y-60340718D01*
X139488254Y-60437475D01*
X139488252Y-60437476D01*
X139488251Y-60437477D01*
X139300700Y-60568802D01*
X139300698Y-60568803D01*
X139300695Y-60568806D01*
X139138806Y-60730695D01*
X139138803Y-60730698D01*
X139138802Y-60730700D01*
X139088549Y-60802469D01*
X139007476Y-60918252D01*
X139007474Y-60918256D01*
X138982691Y-60971402D01*
X138936518Y-61023841D01*
X138869324Y-61042992D01*
X138802444Y-61022775D01*
X138757927Y-60971399D01*
X138735133Y-60922517D01*
X138604657Y-60736179D01*
X138443820Y-60575342D01*
X138257482Y-60444865D01*
X138051328Y-60348734D01*
X137855000Y-60296127D01*
X137855000Y-61659314D01*
X137843045Y-61647359D01*
X137730148Y-61589835D01*
X137636481Y-61575000D01*
X137573519Y-61575000D01*
X137479852Y-61589835D01*
X137366955Y-61647359D01*
X137355000Y-61659314D01*
X137355000Y-60296127D01*
X137158671Y-60348734D01*
X136952517Y-60444865D01*
X136766179Y-60575342D01*
X136605342Y-60736179D01*
X136474865Y-60922517D01*
X136452071Y-60971401D01*
X136405898Y-61023840D01*
X136338705Y-61042992D01*
X136271824Y-61022776D01*
X136227307Y-60971401D01*
X136202523Y-60918251D01*
X136165171Y-60864907D01*
X136071198Y-60730700D01*
X135909300Y-60568802D01*
X135721749Y-60437477D01*
X135721745Y-60437475D01*
X135514249Y-60340718D01*
X135514238Y-60340714D01*
X135293089Y-60281457D01*
X135293081Y-60281456D01*
X135065002Y-60261502D01*
X135064998Y-60261502D01*
X134836918Y-60281456D01*
X134836910Y-60281457D01*
X134615761Y-60340714D01*
X134615750Y-60340718D01*
X134408254Y-60437475D01*
X134408252Y-60437476D01*
X134408251Y-60437477D01*
X134220700Y-60568802D01*
X134220698Y-60568803D01*
X134220695Y-60568806D01*
X134058806Y-60730695D01*
X134058803Y-60730698D01*
X134058802Y-60730700D01*
X134027520Y-60775375D01*
X133927476Y-60918251D01*
X133907382Y-60961345D01*
X133861209Y-61013784D01*
X133794016Y-61032936D01*
X133727135Y-61012720D01*
X133682618Y-60961345D01*
X133662523Y-60918251D01*
X133625171Y-60864907D01*
X133531198Y-60730700D01*
X133369300Y-60568802D01*
X133181749Y-60437477D01*
X133181745Y-60437475D01*
X132974249Y-60340718D01*
X132974238Y-60340714D01*
X132753089Y-60281457D01*
X132753081Y-60281456D01*
X132525002Y-60261502D01*
X132524998Y-60261502D01*
X132296918Y-60281456D01*
X132296910Y-60281457D01*
X132075761Y-60340714D01*
X132075750Y-60340718D01*
X131868254Y-60437475D01*
X131868252Y-60437476D01*
X131868251Y-60437477D01*
X131680700Y-60568802D01*
X131680698Y-60568803D01*
X131680695Y-60568806D01*
X131518806Y-60730695D01*
X131518803Y-60730698D01*
X131518802Y-60730700D01*
X131468549Y-60802469D01*
X131387476Y-60918252D01*
X131387474Y-60918256D01*
X131362691Y-60971402D01*
X131316518Y-61023841D01*
X131249324Y-61042992D01*
X131182444Y-61022775D01*
X131137927Y-60971399D01*
X131115133Y-60922517D01*
X130984657Y-60736179D01*
X130823820Y-60575342D01*
X130637482Y-60444865D01*
X130431328Y-60348734D01*
X130235000Y-60296127D01*
X130235000Y-61659314D01*
X130223045Y-61647359D01*
X130110148Y-61589835D01*
X130016481Y-61575000D01*
X129953519Y-61575000D01*
X129859852Y-61589835D01*
X129746955Y-61647359D01*
X129735000Y-61659314D01*
X129735000Y-60296127D01*
X129538671Y-60348734D01*
X129332517Y-60444865D01*
X129146179Y-60575342D01*
X128985340Y-60736181D01*
X128974811Y-60751218D01*
X128920232Y-60794840D01*
X128850734Y-60802031D01*
X128788380Y-60770506D01*
X128752969Y-60710274D01*
X128749952Y-60693359D01*
X128746989Y-60665799D01*
X128695889Y-60528796D01*
X128608261Y-60411739D01*
X128491204Y-60324111D01*
X128446712Y-60307516D01*
X128354203Y-60273011D01*
X128293654Y-60266500D01*
X128293638Y-60266500D01*
X126596362Y-60266500D01*
X126596345Y-60266500D01*
X126535797Y-60273011D01*
X126535795Y-60273011D01*
X126398795Y-60324111D01*
X126281739Y-60411739D01*
X126194111Y-60528795D01*
X126143011Y-60665795D01*
X126143011Y-60665797D01*
X126136500Y-60726345D01*
X126136500Y-63223654D01*
X124119370Y-63223654D01*
X124144300Y-63206198D01*
X124306198Y-63044300D01*
X124437523Y-62856749D01*
X124534284Y-62649243D01*
X124593543Y-62428087D01*
X124613498Y-62200000D01*
X124609968Y-62159657D01*
X124607796Y-62134832D01*
X124593543Y-61971913D01*
X124534284Y-61750757D01*
X124520508Y-61721215D01*
X124459245Y-61589835D01*
X124437523Y-61543251D01*
X124306198Y-61355700D01*
X124144300Y-61193802D01*
X123956749Y-61062477D01*
X123956745Y-61062475D01*
X123749249Y-60965718D01*
X123749238Y-60965714D01*
X123528089Y-60906457D01*
X123528081Y-60906456D01*
X123300002Y-60886502D01*
X123299998Y-60886502D01*
X123071918Y-60906456D01*
X123071910Y-60906457D01*
X122850761Y-60965714D01*
X122850750Y-60965718D01*
X122643254Y-61062475D01*
X122643252Y-61062476D01*
X122643251Y-61062477D01*
X122455700Y-61193802D01*
X122455698Y-61193803D01*
X122455695Y-61193806D01*
X122293806Y-61355695D01*
X122293803Y-61355698D01*
X122293802Y-61355700D01*
X122213878Y-61469843D01*
X122162476Y-61543252D01*
X122162475Y-61543254D01*
X122065718Y-61750750D01*
X122065714Y-61750761D01*
X122006457Y-61971910D01*
X122006456Y-61971918D01*
X121986502Y-62199998D01*
X121986502Y-62200001D01*
X114453498Y-62200001D01*
X114453498Y-62200000D01*
X114449968Y-62159657D01*
X114447796Y-62134832D01*
X114433543Y-61971913D01*
X114374284Y-61750757D01*
X114360508Y-61721215D01*
X114299245Y-61589835D01*
X114277523Y-61543251D01*
X114146198Y-61355700D01*
X113984300Y-61193802D01*
X113796749Y-61062477D01*
X113796745Y-61062475D01*
X113589249Y-60965718D01*
X113589238Y-60965714D01*
X113368089Y-60906457D01*
X113368081Y-60906456D01*
X113140002Y-60886502D01*
X113139998Y-60886502D01*
X112911918Y-60906456D01*
X112911910Y-60906457D01*
X112690761Y-60965714D01*
X112690750Y-60965718D01*
X112483254Y-61062475D01*
X112483252Y-61062476D01*
X112483251Y-61062477D01*
X112295700Y-61193802D01*
X112295698Y-61193803D01*
X112295695Y-61193806D01*
X112133806Y-61355695D01*
X112133803Y-61355698D01*
X112133802Y-61355700D01*
X112053878Y-61469843D01*
X112002476Y-61543252D01*
X112002475Y-61543254D01*
X111905718Y-61750750D01*
X111905714Y-61750761D01*
X111846457Y-61971910D01*
X111846456Y-61971918D01*
X111826502Y-62199998D01*
X111826502Y-62200001D01*
X109439024Y-62200001D01*
X109382221Y-62034545D01*
X109382215Y-62034531D01*
X109267655Y-61822840D01*
X109267649Y-61822831D01*
X109119806Y-61632883D01*
X109119797Y-61632873D01*
X108942710Y-61469851D01*
X108942699Y-61469843D01*
X108741184Y-61338186D01*
X108520739Y-61241491D01*
X108520740Y-61241491D01*
X108287391Y-61182399D01*
X108250000Y-61179300D01*
X108250000Y-62128316D01*
X108221181Y-62110791D01*
X108075596Y-62070000D01*
X107962378Y-62070000D01*
X107850217Y-62085416D01*
X107750000Y-62128946D01*
X107750000Y-61179300D01*
X107749999Y-61179300D01*
X107712608Y-61182399D01*
X107479259Y-61241491D01*
X107258815Y-61338186D01*
X107057300Y-61469843D01*
X107057289Y-61469851D01*
X106880202Y-61632873D01*
X106880193Y-61632883D01*
X106732350Y-61822831D01*
X106732344Y-61822840D01*
X106617784Y-62034531D01*
X106617778Y-62034545D01*
X106539619Y-62262208D01*
X106521633Y-62369999D01*
X106521634Y-62370000D01*
X107505148Y-62370000D01*
X107456441Y-62507047D01*
X107446123Y-62657886D01*
X107476884Y-62805915D01*
X107510090Y-62870000D01*
X106521633Y-62870000D01*
X106539619Y-62977791D01*
X106617778Y-63205454D01*
X106617784Y-63205468D01*
X106732344Y-63417159D01*
X106732350Y-63417168D01*
X106880193Y-63607116D01*
X106880202Y-63607126D01*
X107057295Y-63770153D01*
X107074071Y-63781113D01*
X107119429Y-63834259D01*
X107128853Y-63903490D01*
X107099352Y-63966826D01*
X107074077Y-63988729D01*
X107052058Y-64003115D01*
X106873922Y-64167102D01*
X106725209Y-64358167D01*
X106725206Y-64358172D01*
X106609973Y-64571105D01*
X106609967Y-64571119D01*
X106531352Y-64800113D01*
X106509071Y-64933641D01*
X106491500Y-65038938D01*
X106491500Y-65281062D01*
X106501009Y-65338045D01*
X106531352Y-65519886D01*
X106609967Y-65748880D01*
X106609973Y-65748894D01*
X106725206Y-65961827D01*
X106725209Y-65961832D01*
X106829826Y-66096243D01*
X106855469Y-66161237D01*
X106841903Y-66229777D01*
X106793434Y-66280102D01*
X106775309Y-66288587D01*
X106753794Y-66296611D01*
X106636739Y-66384239D01*
X106549111Y-66501295D01*
X106498011Y-66638295D01*
X106498011Y-66638297D01*
X106491500Y-66698845D01*
X106491500Y-68701154D01*
X102888500Y-68701154D01*
X102888500Y-58590001D01*
X111786502Y-58590001D01*
X111806456Y-58818081D01*
X111806457Y-58818089D01*
X111865714Y-59039238D01*
X111865718Y-59039249D01*
X111939157Y-59196739D01*
X111962477Y-59246749D01*
X112093802Y-59434300D01*
X112255700Y-59596198D01*
X112443251Y-59727523D01*
X112568091Y-59785736D01*
X112650750Y-59824281D01*
X112650752Y-59824281D01*
X112650757Y-59824284D01*
X112871913Y-59883543D01*
X113034832Y-59897796D01*
X113099998Y-59903498D01*
X113100000Y-59903498D01*
X113100002Y-59903498D01*
X113157021Y-59898509D01*
X113328087Y-59883543D01*
X113549243Y-59824284D01*
X113756749Y-59727523D01*
X113944300Y-59596198D01*
X114106198Y-59434300D01*
X114237523Y-59246749D01*
X114334284Y-59039243D01*
X114393543Y-58818087D01*
X114413498Y-58590000D01*
X114393543Y-58361913D01*
X114387671Y-58339999D01*
X121981127Y-58339999D01*
X121981128Y-58340000D01*
X122944314Y-58340000D01*
X122932359Y-58351955D01*
X122874835Y-58464852D01*
X122855014Y-58590000D01*
X122874835Y-58715148D01*
X122932359Y-58828045D01*
X122944314Y-58840000D01*
X121981128Y-58840000D01*
X122033730Y-59036317D01*
X122033734Y-59036326D01*
X122129865Y-59242482D01*
X122260342Y-59428820D01*
X122421179Y-59589657D01*
X122607517Y-59720134D01*
X122813673Y-59816265D01*
X122813682Y-59816269D01*
X123009999Y-59868872D01*
X123010000Y-59868871D01*
X123010000Y-58905686D01*
X123021955Y-58917641D01*
X123134852Y-58975165D01*
X123228519Y-58990000D01*
X123291481Y-58990000D01*
X123385148Y-58975165D01*
X123498045Y-58917641D01*
X123510000Y-58905686D01*
X123510000Y-59868872D01*
X123706317Y-59816269D01*
X123706326Y-59816265D01*
X123912482Y-59720134D01*
X124098820Y-59589657D01*
X124259657Y-59428820D01*
X124390134Y-59242482D01*
X124486265Y-59036326D01*
X124486269Y-59036317D01*
X124538872Y-58840000D01*
X123575686Y-58840000D01*
X123587641Y-58828045D01*
X123645165Y-58715148D01*
X123664986Y-58590000D01*
X123645165Y-58464852D01*
X123587641Y-58351955D01*
X123575686Y-58340000D01*
X124538872Y-58340000D01*
X124538872Y-58339999D01*
X124486269Y-58143682D01*
X124486265Y-58143673D01*
X124390134Y-57937517D01*
X124259657Y-57751179D01*
X124098820Y-57590342D01*
X123912482Y-57459865D01*
X123706328Y-57363734D01*
X123510000Y-57311127D01*
X123510000Y-58274314D01*
X123498045Y-58262359D01*
X123385148Y-58204835D01*
X123291481Y-58190000D01*
X123228519Y-58190000D01*
X123134852Y-58204835D01*
X123021955Y-58262359D01*
X123010000Y-58274314D01*
X123010000Y-57311127D01*
X122813671Y-57363734D01*
X122607517Y-57459865D01*
X122421179Y-57590342D01*
X122260342Y-57751179D01*
X122129865Y-57937517D01*
X122033734Y-58143673D01*
X122033730Y-58143682D01*
X121981127Y-58339999D01*
X114387671Y-58339999D01*
X114334284Y-58140757D01*
X114237523Y-57933251D01*
X114106198Y-57745700D01*
X113944300Y-57583802D01*
X113756749Y-57452477D01*
X113756745Y-57452475D01*
X113549249Y-57355718D01*
X113549238Y-57355714D01*
X113328089Y-57296457D01*
X113328081Y-57296456D01*
X113100002Y-57276502D01*
X113099998Y-57276502D01*
X112871918Y-57296456D01*
X112871910Y-57296457D01*
X112650761Y-57355714D01*
X112650750Y-57355718D01*
X112443254Y-57452475D01*
X112443252Y-57452476D01*
X112443251Y-57452477D01*
X112255700Y-57583802D01*
X112255698Y-57583803D01*
X112255695Y-57583806D01*
X112093806Y-57745695D01*
X111962476Y-57933252D01*
X111962475Y-57933254D01*
X111865718Y-58140750D01*
X111865714Y-58140761D01*
X111806457Y-58361910D01*
X111806456Y-58361918D01*
X111786502Y-58589998D01*
X111786502Y-58590001D01*
X102888500Y-58590001D01*
X102888500Y-57238654D01*
X104791500Y-57238654D01*
X104798011Y-57299202D01*
X104798011Y-57299204D01*
X104849111Y-57436204D01*
X104936739Y-57553261D01*
X105053796Y-57640889D01*
X105190799Y-57691989D01*
X105218050Y-57694918D01*
X105251345Y-57698499D01*
X105251362Y-57698500D01*
X108348638Y-57698500D01*
X108348654Y-57698499D01*
X108375692Y-57695591D01*
X108409201Y-57691989D01*
X108546204Y-57640889D01*
X108663261Y-57553261D01*
X108750889Y-57436204D01*
X108801989Y-57299201D01*
X108807831Y-57244865D01*
X108808499Y-57238654D01*
X108808500Y-57238637D01*
X108808500Y-55100000D01*
X111226526Y-55100000D01*
X111246391Y-55352406D01*
X111305495Y-55598593D01*
X111402383Y-55832502D01*
X111534668Y-56048370D01*
X111534669Y-56048372D01*
X111534670Y-56048374D01*
X111534672Y-56048376D01*
X111699102Y-56240898D01*
X111891624Y-56405328D01*
X111891626Y-56405329D01*
X111891627Y-56405330D01*
X111891629Y-56405331D01*
X112107497Y-56537616D01*
X112341406Y-56634504D01*
X112341407Y-56634504D01*
X112341409Y-56634505D01*
X112587597Y-56693609D01*
X112840000Y-56713474D01*
X113092403Y-56693609D01*
X113338591Y-56634505D01*
X113572502Y-56537616D01*
X113788376Y-56405328D01*
X113971817Y-56248654D01*
X121391500Y-56248654D01*
X121398011Y-56309202D01*
X121398011Y-56309204D01*
X121433866Y-56405331D01*
X121449111Y-56446204D01*
X121536739Y-56563261D01*
X121653796Y-56650889D01*
X121790799Y-56701989D01*
X121818050Y-56704918D01*
X121851345Y-56708499D01*
X121851362Y-56708500D01*
X124148638Y-56708500D01*
X124148654Y-56708499D01*
X124175692Y-56705591D01*
X124209201Y-56701989D01*
X124346204Y-56650889D01*
X124463261Y-56563261D01*
X124550889Y-56446204D01*
X124601989Y-56309201D01*
X124605591Y-56275692D01*
X124608499Y-56248654D01*
X124608500Y-56248637D01*
X124608500Y-53951362D01*
X124608499Y-53951345D01*
X124605157Y-53920270D01*
X124601989Y-53890799D01*
X124550889Y-53753796D01*
X124463261Y-53636739D01*
X124346204Y-53549111D01*
X124209203Y-53498011D01*
X124148654Y-53491500D01*
X124148638Y-53491500D01*
X121851362Y-53491500D01*
X121851345Y-53491500D01*
X121790797Y-53498011D01*
X121790795Y-53498011D01*
X121653795Y-53549111D01*
X121536739Y-53636739D01*
X121449111Y-53753795D01*
X121398011Y-53890795D01*
X121398011Y-53890797D01*
X121391500Y-53951345D01*
X121391500Y-56248654D01*
X113971817Y-56248654D01*
X113980898Y-56240898D01*
X114145328Y-56048376D01*
X114277616Y-55832502D01*
X114374505Y-55598591D01*
X114433609Y-55352403D01*
X114453474Y-55100000D01*
X114433609Y-54847597D01*
X114374505Y-54601409D01*
X114353211Y-54550000D01*
X114277616Y-54367497D01*
X114145331Y-54151629D01*
X114145330Y-54151627D01*
X114145329Y-54151626D01*
X114145328Y-54151624D01*
X113980898Y-53959102D01*
X113788376Y-53794672D01*
X113788374Y-53794670D01*
X113788372Y-53794669D01*
X113788370Y-53794668D01*
X113572502Y-53662383D01*
X113338593Y-53565495D01*
X113092406Y-53506391D01*
X112840000Y-53486526D01*
X112587593Y-53506391D01*
X112341406Y-53565495D01*
X112107497Y-53662383D01*
X111891629Y-53794668D01*
X111891627Y-53794669D01*
X111699102Y-53959102D01*
X111534669Y-54151627D01*
X111534668Y-54151629D01*
X111402383Y-54367497D01*
X111305495Y-54601406D01*
X111246391Y-54847593D01*
X111226526Y-55100000D01*
X108808500Y-55100000D01*
X108808500Y-54141362D01*
X108808499Y-54141345D01*
X108804184Y-54101215D01*
X108801989Y-54080799D01*
X108750889Y-53943796D01*
X108663261Y-53826739D01*
X108546204Y-53739111D01*
X108513514Y-53726918D01*
X108409203Y-53688011D01*
X108348654Y-53681500D01*
X108348638Y-53681500D01*
X105251362Y-53681500D01*
X105251345Y-53681500D01*
X105190797Y-53688011D01*
X105190795Y-53688011D01*
X105053795Y-53739111D01*
X104936739Y-53826739D01*
X104849111Y-53943795D01*
X104798011Y-54080795D01*
X104798011Y-54080797D01*
X104791500Y-54141345D01*
X104791500Y-57238654D01*
X102888500Y-57238654D01*
X102888500Y-52601228D01*
X102908185Y-52534189D01*
X102924819Y-52513547D01*
X103633547Y-51804819D01*
X103694870Y-51771334D01*
X103721228Y-51768500D01*
X105095032Y-51768500D01*
X105162071Y-51788185D01*
X105196335Y-51820990D01*
X105217101Y-51850409D01*
X105238344Y-51880504D01*
X105290597Y-51936452D01*
X105425889Y-52081314D01*
X105639031Y-52254718D01*
X105639033Y-52254719D01*
X105639034Y-52254720D01*
X105873801Y-52397485D01*
X106078348Y-52486331D01*
X106125823Y-52506953D01*
X106390404Y-52581085D01*
X106629720Y-52613978D01*
X106662614Y-52618500D01*
X106662615Y-52618500D01*
X106937386Y-52618500D01*
X106966733Y-52614466D01*
X107209596Y-52581085D01*
X107474177Y-52506953D01*
X107726200Y-52397484D01*
X107960969Y-52254718D01*
X108174111Y-52081314D01*
X108361657Y-51880502D01*
X108520111Y-51656023D01*
X108646523Y-51412058D01*
X108738538Y-51153153D01*
X108738539Y-51153146D01*
X108738541Y-51153141D01*
X108764491Y-51028259D01*
X108794442Y-50884130D01*
X108813193Y-50610000D01*
X108794442Y-50335870D01*
X108752543Y-50134240D01*
X108745148Y-50098654D01*
X117437500Y-50098654D01*
X117444011Y-50159202D01*
X117444011Y-50159204D01*
X117495111Y-50296204D01*
X117582739Y-50413261D01*
X117699796Y-50500889D01*
X117836799Y-50551989D01*
X117864050Y-50554918D01*
X117897345Y-50558499D01*
X117897362Y-50558500D01*
X119694638Y-50558500D01*
X119694654Y-50558499D01*
X119721692Y-50555591D01*
X119755201Y-50551989D01*
X119892204Y-50500889D01*
X120009261Y-50413261D01*
X120096889Y-50296204D01*
X120142138Y-50174887D01*
X120184009Y-50118956D01*
X120249474Y-50094539D01*
X120317746Y-50109391D01*
X120349545Y-50134236D01*
X120412760Y-50202906D01*
X120590424Y-50341189D01*
X120590425Y-50341189D01*
X120590427Y-50341191D01*
X120650314Y-50373600D01*
X120788426Y-50448342D01*
X121001365Y-50521444D01*
X121223431Y-50558500D01*
X121448569Y-50558500D01*
X121670635Y-50521444D01*
X121883574Y-50448342D01*
X122081576Y-50341189D01*
X122259240Y-50202906D01*
X122380594Y-50071082D01*
X122411715Y-50037276D01*
X122411715Y-50037275D01*
X122411722Y-50037268D01*
X122502193Y-49898790D01*
X122555338Y-49853437D01*
X122624569Y-49844013D01*
X122687905Y-49873515D01*
X122709804Y-49898787D01*
X122800278Y-50037268D01*
X122800283Y-50037273D01*
X122800284Y-50037276D01*
X122926968Y-50174889D01*
X122952760Y-50202906D01*
X123130424Y-50341189D01*
X123130425Y-50341189D01*
X123130427Y-50341191D01*
X123190314Y-50373600D01*
X123328426Y-50448342D01*
X123541365Y-50521444D01*
X123763431Y-50558500D01*
X123988569Y-50558500D01*
X124210635Y-50521444D01*
X124423574Y-50448342D01*
X124621576Y-50341189D01*
X124799240Y-50202906D01*
X124920594Y-50071082D01*
X124951715Y-50037276D01*
X124951715Y-50037275D01*
X124951722Y-50037268D01*
X125045749Y-49893347D01*
X125098894Y-49847994D01*
X125168125Y-49838570D01*
X125231461Y-49868072D01*
X125251130Y-49890048D01*
X125377890Y-50071078D01*
X125544917Y-50238105D01*
X125738421Y-50373600D01*
X125952507Y-50473429D01*
X125952516Y-50473433D01*
X126166000Y-50530634D01*
X126166000Y-49635501D01*
X126273685Y-49684680D01*
X126380237Y-49700000D01*
X126451763Y-49700000D01*
X126558315Y-49684680D01*
X126666000Y-49635501D01*
X126666000Y-50530633D01*
X126879483Y-50473433D01*
X126879492Y-50473429D01*
X127093578Y-50373600D01*
X127287082Y-50238105D01*
X127454105Y-50071082D01*
X127580868Y-49890048D01*
X127635445Y-49846423D01*
X127704944Y-49839231D01*
X127767298Y-49870753D01*
X127786251Y-49893350D01*
X127880276Y-50037265D01*
X127880284Y-50037276D01*
X128006968Y-50174889D01*
X128032760Y-50202906D01*
X128210424Y-50341189D01*
X128210425Y-50341189D01*
X128210427Y-50341191D01*
X128270314Y-50373600D01*
X128408426Y-50448342D01*
X128621365Y-50521444D01*
X128843431Y-50558500D01*
X129068569Y-50558500D01*
X129290635Y-50521444D01*
X129503574Y-50448342D01*
X129701576Y-50341189D01*
X129879240Y-50202906D01*
X130000594Y-50071082D01*
X130031715Y-50037276D01*
X130031715Y-50037275D01*
X130031722Y-50037268D01*
X130122193Y-49898790D01*
X130175338Y-49853437D01*
X130244569Y-49844013D01*
X130307905Y-49873515D01*
X130329804Y-49898787D01*
X130420278Y-50037268D01*
X130420283Y-50037273D01*
X130420284Y-50037276D01*
X130546968Y-50174889D01*
X130572760Y-50202906D01*
X130750424Y-50341189D01*
X130750425Y-50341189D01*
X130750427Y-50341191D01*
X130810314Y-50373600D01*
X130948426Y-50448342D01*
X131161365Y-50521444D01*
X131383431Y-50558500D01*
X131608569Y-50558500D01*
X131830635Y-50521444D01*
X132043574Y-50448342D01*
X132241576Y-50341189D01*
X132419240Y-50202906D01*
X132540594Y-50071082D01*
X132571715Y-50037276D01*
X132571715Y-50037275D01*
X132571722Y-50037268D01*
X132662193Y-49898790D01*
X132715338Y-49853437D01*
X132784569Y-49844013D01*
X132847905Y-49873515D01*
X132869804Y-49898787D01*
X132960278Y-50037268D01*
X132960283Y-50037273D01*
X132960284Y-50037276D01*
X133086968Y-50174889D01*
X133112760Y-50202906D01*
X133290424Y-50341189D01*
X133290425Y-50341189D01*
X133290427Y-50341191D01*
X133350314Y-50373600D01*
X133488426Y-50448342D01*
X133701365Y-50521444D01*
X133923431Y-50558500D01*
X134148569Y-50558500D01*
X134370635Y-50521444D01*
X134583574Y-50448342D01*
X134781576Y-50341189D01*
X134959240Y-50202906D01*
X135080594Y-50071082D01*
X135111715Y-50037276D01*
X135111715Y-50037275D01*
X135111722Y-50037268D01*
X135202193Y-49898790D01*
X135255338Y-49853437D01*
X135324569Y-49844013D01*
X135387905Y-49873515D01*
X135409804Y-49898787D01*
X135500278Y-50037268D01*
X135500283Y-50037273D01*
X135500284Y-50037276D01*
X135626968Y-50174889D01*
X135652760Y-50202906D01*
X135830424Y-50341189D01*
X135830425Y-50341189D01*
X135830427Y-50341191D01*
X135890314Y-50373600D01*
X136028426Y-50448342D01*
X136241365Y-50521444D01*
X136463431Y-50558500D01*
X136688569Y-50558500D01*
X136910635Y-50521444D01*
X137123574Y-50448342D01*
X137321576Y-50341189D01*
X137499240Y-50202906D01*
X137620594Y-50071082D01*
X137651715Y-50037276D01*
X137651715Y-50037275D01*
X137651722Y-50037268D01*
X137742193Y-49898790D01*
X137795338Y-49853437D01*
X137864569Y-49844013D01*
X137927905Y-49873515D01*
X137949804Y-49898787D01*
X138040278Y-50037268D01*
X138040283Y-50037273D01*
X138040284Y-50037276D01*
X138166968Y-50174889D01*
X138192760Y-50202906D01*
X138370424Y-50341189D01*
X138370425Y-50341189D01*
X138370427Y-50341191D01*
X138430314Y-50373600D01*
X138568426Y-50448342D01*
X138781365Y-50521444D01*
X139003431Y-50558500D01*
X139228569Y-50558500D01*
X139450635Y-50521444D01*
X139663574Y-50448342D01*
X139861576Y-50341189D01*
X140039240Y-50202906D01*
X140160594Y-50071082D01*
X140191715Y-50037276D01*
X140191715Y-50037275D01*
X140191722Y-50037268D01*
X140282193Y-49898790D01*
X140335338Y-49853437D01*
X140404569Y-49844013D01*
X140467905Y-49873515D01*
X140489804Y-49898787D01*
X140580278Y-50037268D01*
X140580283Y-50037273D01*
X140580284Y-50037276D01*
X140706968Y-50174889D01*
X140732760Y-50202906D01*
X140910424Y-50341189D01*
X140910425Y-50341189D01*
X140910427Y-50341191D01*
X140970314Y-50373600D01*
X141108426Y-50448342D01*
X141321365Y-50521444D01*
X141543431Y-50558500D01*
X141768569Y-50558500D01*
X141990635Y-50521444D01*
X142203574Y-50448342D01*
X142401576Y-50341189D01*
X142579240Y-50202906D01*
X142675212Y-50098654D01*
X144361500Y-50098654D01*
X144368011Y-50159202D01*
X144368011Y-50159204D01*
X144419111Y-50296204D01*
X144506739Y-50413261D01*
X144623796Y-50500889D01*
X144760799Y-50551989D01*
X144788050Y-50554918D01*
X144821345Y-50558499D01*
X144821362Y-50558500D01*
X146618638Y-50558500D01*
X146618654Y-50558499D01*
X146645692Y-50555591D01*
X146679201Y-50551989D01*
X146816204Y-50500889D01*
X146933261Y-50413261D01*
X147020889Y-50296204D01*
X147066138Y-50174887D01*
X147108009Y-50118956D01*
X147173474Y-50094539D01*
X147241746Y-50109391D01*
X147273545Y-50134236D01*
X147336760Y-50202906D01*
X147514424Y-50341189D01*
X147514425Y-50341189D01*
X147514427Y-50341191D01*
X147574314Y-50373600D01*
X147712426Y-50448342D01*
X147925365Y-50521444D01*
X148147431Y-50558500D01*
X148372569Y-50558500D01*
X148594635Y-50521444D01*
X148807574Y-50448342D01*
X149005576Y-50341189D01*
X149183240Y-50202906D01*
X149304594Y-50071082D01*
X149335715Y-50037276D01*
X149335715Y-50037275D01*
X149335722Y-50037268D01*
X149426193Y-49898790D01*
X149479338Y-49853437D01*
X149548569Y-49844013D01*
X149611905Y-49873515D01*
X149633804Y-49898787D01*
X149724278Y-50037268D01*
X149724283Y-50037273D01*
X149724284Y-50037276D01*
X149850968Y-50174889D01*
X149876760Y-50202906D01*
X150054424Y-50341189D01*
X150054425Y-50341189D01*
X150054427Y-50341191D01*
X150114314Y-50373600D01*
X150252426Y-50448342D01*
X150465365Y-50521444D01*
X150687431Y-50558500D01*
X150912569Y-50558500D01*
X151134635Y-50521444D01*
X151347574Y-50448342D01*
X151545576Y-50341189D01*
X151723240Y-50202906D01*
X151844594Y-50071082D01*
X151875715Y-50037276D01*
X151875715Y-50037275D01*
X151875722Y-50037268D01*
X151966193Y-49898790D01*
X152019338Y-49853437D01*
X152088569Y-49844013D01*
X152151905Y-49873515D01*
X152173804Y-49898787D01*
X152264278Y-50037268D01*
X152264283Y-50037273D01*
X152264284Y-50037276D01*
X152390968Y-50174889D01*
X152416760Y-50202906D01*
X152594424Y-50341189D01*
X152594425Y-50341189D01*
X152594427Y-50341191D01*
X152654314Y-50373600D01*
X152792426Y-50448342D01*
X153005365Y-50521444D01*
X153227431Y-50558500D01*
X153452569Y-50558500D01*
X153674635Y-50521444D01*
X153887574Y-50448342D01*
X154085576Y-50341189D01*
X154263240Y-50202906D01*
X154384594Y-50071082D01*
X154415715Y-50037276D01*
X154415715Y-50037275D01*
X154415722Y-50037268D01*
X154506193Y-49898790D01*
X154559338Y-49853437D01*
X154628569Y-49844013D01*
X154691905Y-49873515D01*
X154713804Y-49898787D01*
X154804278Y-50037268D01*
X154804283Y-50037273D01*
X154804284Y-50037276D01*
X154930968Y-50174889D01*
X154956760Y-50202906D01*
X155134424Y-50341189D01*
X155134425Y-50341189D01*
X155134427Y-50341191D01*
X155194314Y-50373600D01*
X155332426Y-50448342D01*
X155545365Y-50521444D01*
X155767431Y-50558500D01*
X155992569Y-50558500D01*
X156214635Y-50521444D01*
X156427574Y-50448342D01*
X156625576Y-50341189D01*
X156803240Y-50202906D01*
X156924594Y-50071082D01*
X156955715Y-50037276D01*
X156955715Y-50037275D01*
X156955722Y-50037268D01*
X157046193Y-49898790D01*
X157099338Y-49853437D01*
X157168569Y-49844013D01*
X157231905Y-49873515D01*
X157253804Y-49898787D01*
X157344278Y-50037268D01*
X157344283Y-50037273D01*
X157344284Y-50037276D01*
X157470968Y-50174889D01*
X157496760Y-50202906D01*
X157674424Y-50341189D01*
X157674425Y-50341189D01*
X157674427Y-50341191D01*
X157734314Y-50373600D01*
X157872426Y-50448342D01*
X158085365Y-50521444D01*
X158307431Y-50558500D01*
X158532569Y-50558500D01*
X158754635Y-50521444D01*
X158967574Y-50448342D01*
X159165576Y-50341189D01*
X159343240Y-50202906D01*
X159464594Y-50071082D01*
X159495715Y-50037276D01*
X159495715Y-50037275D01*
X159495722Y-50037268D01*
X159586193Y-49898790D01*
X159639338Y-49853437D01*
X159708569Y-49844013D01*
X159771905Y-49873515D01*
X159793804Y-49898787D01*
X159884278Y-50037268D01*
X159884283Y-50037273D01*
X159884284Y-50037276D01*
X160010968Y-50174889D01*
X160036760Y-50202906D01*
X160214424Y-50341189D01*
X160214425Y-50341189D01*
X160214427Y-50341191D01*
X160274314Y-50373600D01*
X160412426Y-50448342D01*
X160625365Y-50521444D01*
X160847431Y-50558500D01*
X161072569Y-50558500D01*
X161294635Y-50521444D01*
X161507574Y-50448342D01*
X161705576Y-50341189D01*
X161883240Y-50202906D01*
X162004594Y-50071082D01*
X162035715Y-50037276D01*
X162035715Y-50037275D01*
X162035722Y-50037268D01*
X162126193Y-49898790D01*
X162179338Y-49853437D01*
X162248569Y-49844013D01*
X162311905Y-49873515D01*
X162333804Y-49898787D01*
X162424278Y-50037268D01*
X162424283Y-50037273D01*
X162424284Y-50037276D01*
X162550968Y-50174889D01*
X162576760Y-50202906D01*
X162754424Y-50341189D01*
X162754425Y-50341189D01*
X162754427Y-50341191D01*
X162814314Y-50373600D01*
X162952426Y-50448342D01*
X163165365Y-50521444D01*
X163387431Y-50558500D01*
X163612569Y-50558500D01*
X163834635Y-50521444D01*
X164047574Y-50448342D01*
X164245576Y-50341189D01*
X164423240Y-50202906D01*
X164544594Y-50071082D01*
X164575715Y-50037276D01*
X164575717Y-50037273D01*
X164575722Y-50037268D01*
X164698860Y-49848791D01*
X164789296Y-49642616D01*
X164844564Y-49424368D01*
X164845768Y-49409844D01*
X164863156Y-49200005D01*
X164863156Y-49199994D01*
X164844565Y-48975640D01*
X164844563Y-48975628D01*
X164789296Y-48757385D01*
X164737331Y-48638916D01*
X164698860Y-48551209D01*
X164682706Y-48526484D01*
X164575723Y-48362734D01*
X164575715Y-48362723D01*
X164423243Y-48197097D01*
X164423238Y-48197092D01*
X164245577Y-48058812D01*
X164245572Y-48058808D01*
X164047580Y-47951661D01*
X164047577Y-47951659D01*
X164047574Y-47951658D01*
X164047571Y-47951657D01*
X164047569Y-47951656D01*
X163834637Y-47878556D01*
X163612569Y-47841500D01*
X163387431Y-47841500D01*
X163165362Y-47878556D01*
X162952430Y-47951656D01*
X162952419Y-47951661D01*
X162754427Y-48058808D01*
X162754422Y-48058812D01*
X162576761Y-48197092D01*
X162576756Y-48197097D01*
X162424284Y-48362723D01*
X162424276Y-48362734D01*
X162333808Y-48501206D01*
X162280662Y-48546562D01*
X162211431Y-48555986D01*
X162148095Y-48526484D01*
X162126192Y-48501206D01*
X162035723Y-48362734D01*
X162035715Y-48362723D01*
X161883243Y-48197097D01*
X161883238Y-48197092D01*
X161705577Y-48058812D01*
X161705572Y-48058808D01*
X161507580Y-47951661D01*
X161507577Y-47951659D01*
X161507574Y-47951658D01*
X161507571Y-47951657D01*
X161507569Y-47951656D01*
X161294637Y-47878556D01*
X161072569Y-47841500D01*
X160847431Y-47841500D01*
X160625362Y-47878556D01*
X160412430Y-47951656D01*
X160412419Y-47951661D01*
X160214427Y-48058808D01*
X160214422Y-48058812D01*
X160036761Y-48197092D01*
X160036756Y-48197097D01*
X159884284Y-48362723D01*
X159884276Y-48362734D01*
X159793808Y-48501206D01*
X159740662Y-48546562D01*
X159671431Y-48555986D01*
X159608095Y-48526484D01*
X159586192Y-48501206D01*
X159495723Y-48362734D01*
X159495715Y-48362723D01*
X159343243Y-48197097D01*
X159343238Y-48197092D01*
X159165577Y-48058812D01*
X159165572Y-48058808D01*
X158967580Y-47951661D01*
X158967577Y-47951659D01*
X158967574Y-47951658D01*
X158967571Y-47951657D01*
X158967569Y-47951656D01*
X158754637Y-47878556D01*
X158532569Y-47841500D01*
X158307431Y-47841500D01*
X158085362Y-47878556D01*
X157872430Y-47951656D01*
X157872419Y-47951661D01*
X157674427Y-48058808D01*
X157674422Y-48058812D01*
X157496761Y-48197092D01*
X157496756Y-48197097D01*
X157344284Y-48362723D01*
X157344276Y-48362734D01*
X157253808Y-48501206D01*
X157200662Y-48546562D01*
X157131431Y-48555986D01*
X157068095Y-48526484D01*
X157046192Y-48501206D01*
X156955723Y-48362734D01*
X156955715Y-48362723D01*
X156803243Y-48197097D01*
X156803238Y-48197092D01*
X156625577Y-48058812D01*
X156625572Y-48058808D01*
X156427580Y-47951661D01*
X156427577Y-47951659D01*
X156427574Y-47951658D01*
X156427571Y-47951657D01*
X156427569Y-47951656D01*
X156214637Y-47878556D01*
X155992569Y-47841500D01*
X155767431Y-47841500D01*
X155545362Y-47878556D01*
X155332430Y-47951656D01*
X155332419Y-47951661D01*
X155134427Y-48058808D01*
X155134422Y-48058812D01*
X154956761Y-48197092D01*
X154956756Y-48197097D01*
X154804284Y-48362723D01*
X154804276Y-48362734D01*
X154713808Y-48501206D01*
X154660662Y-48546562D01*
X154591431Y-48555986D01*
X154528095Y-48526484D01*
X154506192Y-48501206D01*
X154415723Y-48362734D01*
X154415715Y-48362723D01*
X154263243Y-48197097D01*
X154263238Y-48197092D01*
X154085577Y-48058812D01*
X154085572Y-48058808D01*
X153887580Y-47951661D01*
X153887577Y-47951659D01*
X153887574Y-47951658D01*
X153887571Y-47951657D01*
X153887569Y-47951656D01*
X153674637Y-47878556D01*
X153452569Y-47841500D01*
X153227431Y-47841500D01*
X153005362Y-47878556D01*
X152792430Y-47951656D01*
X152792419Y-47951661D01*
X152594427Y-48058808D01*
X152594422Y-48058812D01*
X152416761Y-48197092D01*
X152416756Y-48197097D01*
X152264284Y-48362723D01*
X152264276Y-48362734D01*
X152173808Y-48501206D01*
X152120662Y-48546562D01*
X152051431Y-48555986D01*
X151988095Y-48526484D01*
X151966192Y-48501206D01*
X151875723Y-48362734D01*
X151875715Y-48362723D01*
X151723243Y-48197097D01*
X151723238Y-48197092D01*
X151545577Y-48058812D01*
X151545572Y-48058808D01*
X151347580Y-47951661D01*
X151347577Y-47951659D01*
X151347574Y-47951658D01*
X151347571Y-47951657D01*
X151347569Y-47951656D01*
X151134637Y-47878556D01*
X150912569Y-47841500D01*
X150687431Y-47841500D01*
X150465362Y-47878556D01*
X150252430Y-47951656D01*
X150252419Y-47951661D01*
X150054427Y-48058808D01*
X150054422Y-48058812D01*
X149876761Y-48197092D01*
X149876756Y-48197097D01*
X149724284Y-48362723D01*
X149724276Y-48362734D01*
X149633808Y-48501206D01*
X149580662Y-48546562D01*
X149511431Y-48555986D01*
X149448095Y-48526484D01*
X149426192Y-48501206D01*
X149335723Y-48362734D01*
X149335715Y-48362723D01*
X149183243Y-48197097D01*
X149183238Y-48197092D01*
X149005577Y-48058812D01*
X149005572Y-48058808D01*
X148807580Y-47951661D01*
X148807577Y-47951659D01*
X148807574Y-47951658D01*
X148807571Y-47951657D01*
X148807569Y-47951656D01*
X148594637Y-47878556D01*
X148372569Y-47841500D01*
X148147431Y-47841500D01*
X147925362Y-47878556D01*
X147712430Y-47951656D01*
X147712419Y-47951661D01*
X147514427Y-48058808D01*
X147514422Y-48058812D01*
X147336761Y-48197092D01*
X147273548Y-48265760D01*
X147213661Y-48301750D01*
X147143823Y-48299649D01*
X147086207Y-48260124D01*
X147066138Y-48225110D01*
X147020889Y-48103796D01*
X146987214Y-48058812D01*
X146933261Y-47986739D01*
X146816204Y-47899111D01*
X146679203Y-47848011D01*
X146618654Y-47841500D01*
X146618638Y-47841500D01*
X144821362Y-47841500D01*
X144821345Y-47841500D01*
X144760797Y-47848011D01*
X144760795Y-47848011D01*
X144623795Y-47899111D01*
X144506739Y-47986739D01*
X144419111Y-48103795D01*
X144368011Y-48240795D01*
X144368011Y-48240797D01*
X144361500Y-48301345D01*
X144361500Y-50098654D01*
X142675212Y-50098654D01*
X142700594Y-50071082D01*
X142731715Y-50037276D01*
X142731717Y-50037273D01*
X142731722Y-50037268D01*
X142854860Y-49848791D01*
X142945296Y-49642616D01*
X143000564Y-49424368D01*
X143001768Y-49409844D01*
X143019156Y-49200005D01*
X143019156Y-49199994D01*
X143000565Y-48975640D01*
X143000563Y-48975628D01*
X142945296Y-48757385D01*
X142893331Y-48638916D01*
X142854860Y-48551209D01*
X142838706Y-48526484D01*
X142731723Y-48362734D01*
X142731715Y-48362723D01*
X142579243Y-48197097D01*
X142579238Y-48197092D01*
X142401577Y-48058812D01*
X142401572Y-48058808D01*
X142203580Y-47951661D01*
X142203577Y-47951659D01*
X142203574Y-47951658D01*
X142203571Y-47951657D01*
X142203569Y-47951656D01*
X141990637Y-47878556D01*
X141768569Y-47841500D01*
X141543431Y-47841500D01*
X141321362Y-47878556D01*
X141108430Y-47951656D01*
X141108419Y-47951661D01*
X140910427Y-48058808D01*
X140910422Y-48058812D01*
X140732761Y-48197092D01*
X140732756Y-48197097D01*
X140580284Y-48362723D01*
X140580276Y-48362734D01*
X140489808Y-48501206D01*
X140436662Y-48546562D01*
X140367431Y-48555986D01*
X140304095Y-48526484D01*
X140282192Y-48501206D01*
X140191723Y-48362734D01*
X140191715Y-48362723D01*
X140039243Y-48197097D01*
X140039238Y-48197092D01*
X139861577Y-48058812D01*
X139861572Y-48058808D01*
X139663580Y-47951661D01*
X139663577Y-47951659D01*
X139663574Y-47951658D01*
X139663571Y-47951657D01*
X139663569Y-47951656D01*
X139450637Y-47878556D01*
X139228569Y-47841500D01*
X139003431Y-47841500D01*
X138781362Y-47878556D01*
X138568430Y-47951656D01*
X138568419Y-47951661D01*
X138370427Y-48058808D01*
X138370422Y-48058812D01*
X138192761Y-48197092D01*
X138192756Y-48197097D01*
X138040284Y-48362723D01*
X138040276Y-48362734D01*
X137949808Y-48501206D01*
X137896662Y-48546562D01*
X137827431Y-48555986D01*
X137764095Y-48526484D01*
X137742192Y-48501206D01*
X137651723Y-48362734D01*
X137651715Y-48362723D01*
X137499243Y-48197097D01*
X137499238Y-48197092D01*
X137321577Y-48058812D01*
X137321572Y-48058808D01*
X137123580Y-47951661D01*
X137123577Y-47951659D01*
X137123574Y-47951658D01*
X137123571Y-47951657D01*
X137123569Y-47951656D01*
X136910637Y-47878556D01*
X136688569Y-47841500D01*
X136463431Y-47841500D01*
X136241362Y-47878556D01*
X136028430Y-47951656D01*
X136028419Y-47951661D01*
X135830427Y-48058808D01*
X135830422Y-48058812D01*
X135652761Y-48197092D01*
X135652756Y-48197097D01*
X135500284Y-48362723D01*
X135500276Y-48362734D01*
X135409808Y-48501206D01*
X135356662Y-48546562D01*
X135287431Y-48555986D01*
X135224095Y-48526484D01*
X135202192Y-48501206D01*
X135111723Y-48362734D01*
X135111715Y-48362723D01*
X134959243Y-48197097D01*
X134959238Y-48197092D01*
X134781577Y-48058812D01*
X134781572Y-48058808D01*
X134583580Y-47951661D01*
X134583577Y-47951659D01*
X134583574Y-47951658D01*
X134583571Y-47951657D01*
X134583569Y-47951656D01*
X134370637Y-47878556D01*
X134148569Y-47841500D01*
X133923431Y-47841500D01*
X133701362Y-47878556D01*
X133488430Y-47951656D01*
X133488419Y-47951661D01*
X133290427Y-48058808D01*
X133290422Y-48058812D01*
X133112761Y-48197092D01*
X133112756Y-48197097D01*
X132960284Y-48362723D01*
X132960276Y-48362734D01*
X132869808Y-48501206D01*
X132816662Y-48546562D01*
X132747431Y-48555986D01*
X132684095Y-48526484D01*
X132662192Y-48501206D01*
X132571723Y-48362734D01*
X132571715Y-48362723D01*
X132419243Y-48197097D01*
X132419238Y-48197092D01*
X132241577Y-48058812D01*
X132241572Y-48058808D01*
X132043580Y-47951661D01*
X132043577Y-47951659D01*
X132043574Y-47951658D01*
X132043571Y-47951657D01*
X132043569Y-47951656D01*
X131830637Y-47878556D01*
X131608569Y-47841500D01*
X131383431Y-47841500D01*
X131161362Y-47878556D01*
X130948430Y-47951656D01*
X130948419Y-47951661D01*
X130750427Y-48058808D01*
X130750422Y-48058812D01*
X130572761Y-48197092D01*
X130572756Y-48197097D01*
X130420284Y-48362723D01*
X130420276Y-48362734D01*
X130329808Y-48501206D01*
X130276662Y-48546562D01*
X130207431Y-48555986D01*
X130144095Y-48526484D01*
X130122192Y-48501206D01*
X130031723Y-48362734D01*
X130031715Y-48362723D01*
X129879243Y-48197097D01*
X129879238Y-48197092D01*
X129701577Y-48058812D01*
X129701572Y-48058808D01*
X129503580Y-47951661D01*
X129503577Y-47951659D01*
X129503574Y-47951658D01*
X129503571Y-47951657D01*
X129503569Y-47951656D01*
X129290637Y-47878556D01*
X129068569Y-47841500D01*
X128843431Y-47841500D01*
X128621362Y-47878556D01*
X128408430Y-47951656D01*
X128408419Y-47951661D01*
X128210427Y-48058808D01*
X128210422Y-48058812D01*
X128032761Y-48197092D01*
X128032756Y-48197097D01*
X127880284Y-48362723D01*
X127880276Y-48362734D01*
X127786251Y-48506650D01*
X127733105Y-48552007D01*
X127663873Y-48561430D01*
X127600538Y-48531928D01*
X127580868Y-48509951D01*
X127454113Y-48328926D01*
X127454108Y-48328920D01*
X127287082Y-48161894D01*
X127093578Y-48026399D01*
X126879492Y-47926570D01*
X126879486Y-47926567D01*
X126666000Y-47869364D01*
X126666000Y-48764498D01*
X126558315Y-48715320D01*
X126451763Y-48700000D01*
X126380237Y-48700000D01*
X126273685Y-48715320D01*
X126166000Y-48764498D01*
X126166000Y-47869364D01*
X126165999Y-47869364D01*
X125952513Y-47926567D01*
X125952507Y-47926570D01*
X125738422Y-48026399D01*
X125738420Y-48026400D01*
X125544926Y-48161886D01*
X125544920Y-48161891D01*
X125377891Y-48328920D01*
X125377890Y-48328922D01*
X125251131Y-48509952D01*
X125196554Y-48553577D01*
X125127055Y-48560769D01*
X125064701Y-48529247D01*
X125045752Y-48506656D01*
X124951722Y-48362732D01*
X124951715Y-48362725D01*
X124951715Y-48362723D01*
X124799243Y-48197097D01*
X124799238Y-48197092D01*
X124621577Y-48058812D01*
X124621572Y-48058808D01*
X124423580Y-47951661D01*
X124423577Y-47951659D01*
X124423574Y-47951658D01*
X124423571Y-47951657D01*
X124423569Y-47951656D01*
X124210637Y-47878556D01*
X123988569Y-47841500D01*
X123763431Y-47841500D01*
X123541362Y-47878556D01*
X123328430Y-47951656D01*
X123328419Y-47951661D01*
X123130427Y-48058808D01*
X123130422Y-48058812D01*
X122952761Y-48197092D01*
X122952756Y-48197097D01*
X122800284Y-48362723D01*
X122800276Y-48362734D01*
X122709808Y-48501206D01*
X122656662Y-48546562D01*
X122587431Y-48555986D01*
X122524095Y-48526484D01*
X122502192Y-48501206D01*
X122411723Y-48362734D01*
X122411715Y-48362723D01*
X122259243Y-48197097D01*
X122259238Y-48197092D01*
X122081577Y-48058812D01*
X122081572Y-48058808D01*
X121883580Y-47951661D01*
X121883577Y-47951659D01*
X121883574Y-47951658D01*
X121883571Y-47951657D01*
X121883569Y-47951656D01*
X121670637Y-47878556D01*
X121448569Y-47841500D01*
X121223431Y-47841500D01*
X121001362Y-47878556D01*
X120788430Y-47951656D01*
X120788419Y-47951661D01*
X120590427Y-48058808D01*
X120590422Y-48058812D01*
X120412761Y-48197092D01*
X120349548Y-48265760D01*
X120289661Y-48301750D01*
X120219823Y-48299649D01*
X120162207Y-48260124D01*
X120142138Y-48225110D01*
X120096889Y-48103796D01*
X120063214Y-48058812D01*
X120009261Y-47986739D01*
X119892204Y-47899111D01*
X119755203Y-47848011D01*
X119694654Y-47841500D01*
X119694638Y-47841500D01*
X117897362Y-47841500D01*
X117897345Y-47841500D01*
X117836797Y-47848011D01*
X117836795Y-47848011D01*
X117699795Y-47899111D01*
X117582739Y-47986739D01*
X117495111Y-48103795D01*
X117444011Y-48240795D01*
X117444011Y-48240797D01*
X117437500Y-48301345D01*
X117437500Y-50098654D01*
X108745148Y-50098654D01*
X108738541Y-50066858D01*
X108738536Y-50066841D01*
X108713561Y-49996568D01*
X108646523Y-49807942D01*
X108520111Y-49563977D01*
X108520110Y-49563975D01*
X108520106Y-49563969D01*
X108361659Y-49339500D01*
X108298514Y-49271889D01*
X108174111Y-49138686D01*
X107960969Y-48965282D01*
X107960967Y-48965281D01*
X107960965Y-48965279D01*
X107726198Y-48822514D01*
X107474178Y-48713047D01*
X107209602Y-48638916D01*
X107209597Y-48638915D01*
X107209596Y-48638915D01*
X107073490Y-48620207D01*
X106937386Y-48601500D01*
X106937385Y-48601500D01*
X106662615Y-48601500D01*
X106662614Y-48601500D01*
X106390404Y-48638915D01*
X106390397Y-48638916D01*
X106125821Y-48713047D01*
X105873801Y-48822514D01*
X105639034Y-48965279D01*
X105425892Y-49138683D01*
X105425889Y-49138685D01*
X105425889Y-49138686D01*
X105416859Y-49148355D01*
X105238344Y-49339495D01*
X105196337Y-49399008D01*
X105141595Y-49442425D01*
X105095032Y-49451500D01*
X103218209Y-49451500D01*
X103215346Y-49451434D01*
X103182718Y-49449925D01*
X103136267Y-49447778D01*
X103136265Y-49447778D01*
X103136262Y-49447778D01*
X103057870Y-49458713D01*
X103055026Y-49459043D01*
X102976212Y-49466347D01*
X102976206Y-49466348D01*
X102954441Y-49472541D01*
X102946034Y-49474314D01*
X102923627Y-49477440D01*
X102923615Y-49477443D01*
X102848586Y-49502590D01*
X102845851Y-49503437D01*
X102769711Y-49525101D01*
X102749442Y-49535192D01*
X102741509Y-49538478D01*
X102720058Y-49545668D01*
X102720050Y-49545672D01*
X102650901Y-49584188D01*
X102648368Y-49585522D01*
X102577518Y-49620802D01*
X102577517Y-49620802D01*
X102559456Y-49634441D01*
X102552257Y-49639132D01*
X102532485Y-49650145D01*
X102532482Y-49650147D01*
X102471588Y-49700713D01*
X102469343Y-49702490D01*
X102406182Y-49750188D01*
X102352847Y-49808692D01*
X102350870Y-49810763D01*
X100930753Y-51230879D01*
X100928682Y-51232856D01*
X100870190Y-51286178D01*
X100870189Y-51286179D01*
X100822486Y-51349349D01*
X100820708Y-51351594D01*
X100770147Y-51412482D01*
X100770145Y-51412485D01*
X100759132Y-51432257D01*
X100754441Y-51439456D01*
X100740803Y-51457516D01*
X100705522Y-51528368D01*
X100704187Y-51530900D01*
X100665671Y-51600052D01*
X100658475Y-51621517D01*
X100655188Y-51629452D01*
X100645103Y-51649708D01*
X100623438Y-51725848D01*
X100622591Y-51728583D01*
X100597439Y-51803625D01*
X100594312Y-51826040D01*
X100592539Y-51834446D01*
X100586347Y-51856211D01*
X100586347Y-51856212D01*
X100579042Y-51935031D01*
X100578712Y-51937874D01*
X100567778Y-52016261D01*
X100567778Y-52016262D01*
X100571434Y-52095346D01*
X100571500Y-52098209D01*
X100571500Y-94381789D01*
X100571434Y-94384652D01*
X100567778Y-94463737D01*
X100075500Y-94463737D01*
X100075500Y-47425048D01*
X100075799Y-47418967D01*
X100087494Y-47300222D01*
X100092234Y-47276389D01*
X100124216Y-47170959D01*
X100133508Y-47148526D01*
X100185442Y-47051365D01*
X100198938Y-47031166D01*
X100268827Y-46946006D01*
X100286006Y-46928827D01*
X100371166Y-46858938D01*
X100391365Y-46845442D01*
X100488526Y-46793508D01*
X100510959Y-46784216D01*
X100616389Y-46752234D01*
X100640220Y-46747494D01*
X100670605Y-46744501D01*
X100758968Y-46735799D01*
X100765049Y-46735500D01*
X100786531Y-46735500D01*
X163417365Y-46735500D01*
X163484404Y-46755185D01*
G37*
G04 #@! TD.AperFunction*
M02*
