M48
INCH,TZ
T1C0.0157
T2C0.0315
T3C0.0354
T4C0.0394
T5C0.0433
T6C0.0598
%
G90
G05
T1
X13783Y-19244
X13783Y-20031
X13783Y-20819
X13783Y-21606
X13783Y-22394
X14571Y-19638
X14571Y-20425
X14571Y-21213
X14571Y-22000
X15358Y-19244
X15358Y-20031
X15358Y-20819
X15358Y-21606
X15358Y-22394
X16146Y-19638
X16146Y-20425
X16146Y-21213
X16146Y-22000
T2
X14224Y-17748
X16972Y-11996
X16988Y-13417
X18224Y-17748
X19768Y-16409
X19787Y-17748
X20772Y-17748
X20972Y-11996
X20988Y-13417
X22620Y-10329
X22620Y-13329
X23620Y-10329
X23620Y-13329
X23768Y-16409
X24620Y-10329
X24620Y-13329
X24669Y-14559
X24728Y-17551
X24965Y-16094
X25620Y-10329
X25620Y-13329
X25654Y-14559
X26620Y-10329
X26620Y-13329
X27398Y-19354
X27398Y-20354
X27398Y-21354
X27398Y-22354
X27620Y-10329
X27620Y-13329
X27720Y-24795
X28620Y-10329
X28620Y-13329
X28728Y-17551
X28965Y-16094
X29098Y-24795
X30398Y-19354
X30398Y-20354
X30398Y-21354
X30398Y-22354
X30451Y-10406
X31238Y-10406
X31815Y-20638
X31815Y-24638
X32012Y-15205
X32012Y-19205
X33193Y-20622
X33193Y-24622
X33252Y-9850
X33252Y-12850
X33390Y-15150
X33390Y-19150
X34252Y-9850
X34252Y-12850
X35252Y-9850
X35252Y-12850
X36252Y-9850
X36252Y-12850
T3
X29713Y-17748
X30333Y-13772
X30713Y-17748
X31333Y-13772
T4
X19215Y-8299
X20215Y-8299
X20280Y-24402
X20280Y-26370
X21215Y-8299
X22215Y-8299
X22815Y-27299
X23215Y-8299
X23815Y-27299
X24215Y-8299
X24815Y-27299
X25215Y-8299
X25815Y-27299
X26215Y-8299
X26815Y-27299
X27215Y-8299
X27815Y-27299
X28215Y-8299
X28815Y-27299
X29815Y-8299
X29815Y-27299
X30815Y-8299
X31815Y-8299
X31815Y-27299
X32815Y-8299
X32815Y-27299
X33815Y-8299
X33815Y-27299
X34815Y-8299
X34815Y-27299
X35815Y-8299
X35815Y-27299
X36815Y-8299
X36815Y-27299
T5
X14965Y-13583
X14965Y-14583
X14965Y-15583
X16870Y-10622
X17287Y-23496
X17287Y-27496
X20870Y-10622
T6
X14492Y-8854
X14492Y-10854
X14492Y-24594
X14492Y-26594
X35949Y-14913
X35949Y-16913
X35949Y-18913
X35949Y-21244
X35949Y-23244
X35949Y-25244
M30
