M48
INCH,TZ
T1C0.0157
T2C0.0315
T3C0.0354
T4C0.0394
T5C0.0433
T6C0.0598
%
G90
G05
T1
X41339Y-30315
X41339Y-31102
X41339Y-31890
X41339Y-32677
X41339Y-33465
X42126Y-30709
X42126Y-31496
X42126Y-32283
X42126Y-33071
X42913Y-30315
X42913Y-31102
X42913Y-31890
X42913Y-32677
X42913Y-33465
X43701Y-30709
X43701Y-31496
X43701Y-32283
X43701Y-33071
T2
X41780Y-28819
X44528Y-23067
X44543Y-24488
X45780Y-28819
X47323Y-27480
X47343Y-28819
X48327Y-28819
X48528Y-23067
X48543Y-24488
X50175Y-21400
X50175Y-24400
X51175Y-21400
X51175Y-24400
X51323Y-27480
X52175Y-21400
X52175Y-24400
X52224Y-25630
X52283Y-28622
X52520Y-27165
X53175Y-21400
X53175Y-24400
X53209Y-25630
X54175Y-21400
X54175Y-24400
X54953Y-30425
X54953Y-31425
X54953Y-32425
X54953Y-33425
X55175Y-21400
X55175Y-24400
X55276Y-35866
X56175Y-21400
X56175Y-24400
X56283Y-28622
X56520Y-27165
X56654Y-35866
X57953Y-30425
X57953Y-31425
X57953Y-32425
X57953Y-33425
X58006Y-21476
X58793Y-21476
X59370Y-31709
X59370Y-35709
X59567Y-26276
X59567Y-30276
X60748Y-31693
X60748Y-35693
X60807Y-20921
X60807Y-23921
X60945Y-26220
X60945Y-30220
X61807Y-20921
X61807Y-23921
X62807Y-20921
X62807Y-23921
X63807Y-20921
X63807Y-23921
T3
X57268Y-28819
X57888Y-24843
X58268Y-28819
X58888Y-24843
T4
X46770Y-19370
X47770Y-19370
X47835Y-35472
X47835Y-37441
X48770Y-19370
X49770Y-19370
X50370Y-38370
X50770Y-19370
X51370Y-38370
X51770Y-19370
X52370Y-38370
X52770Y-19370
X53370Y-38370
X53770Y-19370
X54370Y-38370
X54770Y-19370
X55370Y-38370
X55770Y-19370
X56370Y-38370
X57370Y-19370
X57370Y-38370
X58370Y-19370
X59370Y-19370
X59370Y-38370
X60370Y-19370
X60370Y-38370
X61370Y-19370
X61370Y-38370
X62370Y-19370
X62370Y-38370
X63370Y-19370
X63370Y-38370
X64370Y-19370
X64370Y-38370
T5
X42520Y-24654
X42520Y-25654
X42520Y-26654
X44425Y-21693
X44843Y-34567
X44843Y-38567
X48425Y-21693
T6
X42047Y-19925
X42047Y-21925
X42047Y-35665
X42047Y-37665
X63504Y-25984
X63504Y-27984
X63504Y-29984
X63504Y-32315
X63504Y-34315
X63504Y-36315
T0
M30
