G04 #@! TF.GenerationSoftware,KiCad,Pcbnew,8.0.1*
G04 #@! TF.CreationDate,2024-03-22T11:37:50+04:00*
G04 #@! TF.ProjectId,BSPD_Nucleo_Shield,42535044-5f4e-4756-936c-656f5f536869,1.0*
G04 #@! TF.SameCoordinates,Original*
G04 #@! TF.FileFunction,Soldermask,Bot*
G04 #@! TF.FilePolarity,Negative*
%FSLAX46Y46*%
G04 Gerber Fmt 4.6, Leading zero omitted, Abs format (unit mm)*
G04 Created by KiCad (PCBNEW 8.0.1) date 2024-03-22 11:37:50*
%MOMM*%
%LPD*%
G01*
G04 APERTURE LIST*
%ADD10R,1.700000X1.700000*%
%ADD11O,1.700000X1.700000*%
%ADD12R,3.000000X3.000000*%
%ADD13C,3.000000*%
%ADD14R,2.200000X2.200000*%
%ADD15O,2.200000X2.200000*%
%ADD16C,1.600000*%
%ADD17O,1.600000X1.600000*%
%ADD18R,2.000000X2.000000*%
%ADD19C,2.000000*%
%ADD20R,1.600000X1.600000*%
%ADD21R,2.400000X1.600000*%
%ADD22O,2.400000X1.600000*%
%ADD23R,1.600000X2.400000*%
%ADD24O,1.600000X2.400000*%
%ADD25R,1.800000X1.800000*%
%ADD26C,1.800000*%
%ADD27R,2.000000X1.905000*%
%ADD28O,2.000000X1.905000*%
G04 APERTURE END LIST*
D10*
X57950000Y-69340000D03*
D11*
X60490000Y-69340000D03*
X63030000Y-69340000D03*
X65570000Y-69340000D03*
X68110000Y-69340000D03*
X70650000Y-69340000D03*
X73190000Y-69340000D03*
X75730000Y-69340000D03*
D10*
X80810000Y-69340000D03*
D11*
X83350000Y-69340000D03*
X85890000Y-69340000D03*
X88430000Y-69340000D03*
X90970000Y-69340000D03*
X93510000Y-69340000D03*
D10*
X75730000Y-21080000D03*
D11*
X78270000Y-21080000D03*
X80810000Y-21080000D03*
X83350000Y-21080000D03*
X85890000Y-21080000D03*
X88430000Y-21080000D03*
X90970000Y-21080000D03*
X93510000Y-21080000D03*
D12*
X36810000Y-67550000D03*
D13*
X36810000Y-62470000D03*
D14*
X53010000Y-26980000D03*
D15*
X42850000Y-26980000D03*
D16*
X50210000Y-41680000D03*
D17*
X60370000Y-41680000D03*
D16*
X46290000Y-45080000D03*
D17*
X36130000Y-45080000D03*
D16*
X43110000Y-30470000D03*
D17*
X53270000Y-30470000D03*
D18*
X51510000Y-66980000D03*
D19*
X51510000Y-61980000D03*
D20*
X70410000Y-62980000D03*
D16*
X73910000Y-62980000D03*
X62810000Y-44580000D03*
D17*
X72970000Y-44580000D03*
D16*
X84310000Y-52380000D03*
D17*
X84310000Y-62540000D03*
D16*
X81310000Y-48780000D03*
D17*
X81310000Y-38620000D03*
D21*
X77210000Y-56780000D03*
D22*
X77210000Y-54240000D03*
X77210000Y-51700000D03*
X77210000Y-49160000D03*
X69590000Y-49160000D03*
X69590000Y-51700000D03*
X69590000Y-54240000D03*
X69590000Y-56780000D03*
D12*
X91310000Y-37880000D03*
D13*
X91310000Y-42960000D03*
X91310000Y-48040000D03*
D23*
X57455000Y-33855000D03*
D24*
X59995000Y-33855000D03*
X62535000Y-33855000D03*
X65075000Y-33855000D03*
X67615000Y-33855000D03*
X70155000Y-33855000D03*
X72695000Y-33855000D03*
X72695000Y-26235000D03*
X70155000Y-26235000D03*
X67615000Y-26235000D03*
X65075000Y-26235000D03*
X62535000Y-26235000D03*
X59995000Y-26235000D03*
X57455000Y-26235000D03*
D10*
X48806000Y-21080000D03*
D11*
X51346000Y-21080000D03*
X53886000Y-21080000D03*
X56426000Y-21080000D03*
X58966000Y-21080000D03*
X61506000Y-21080000D03*
X64046000Y-21080000D03*
X66586000Y-21080000D03*
X69126000Y-21080000D03*
X71666000Y-21080000D03*
D16*
X50260000Y-45080000D03*
X52760000Y-45080000D03*
D12*
X91310000Y-53960000D03*
D13*
X91310000Y-59040000D03*
X91310000Y-64120000D03*
D12*
X36810000Y-27570000D03*
D13*
X36810000Y-22490000D03*
D14*
X43910000Y-59680000D03*
D15*
X43910000Y-69840000D03*
D16*
X63410000Y-40880000D03*
D17*
X73570000Y-40880000D03*
D25*
X79585000Y-34980000D03*
D26*
X77045000Y-34980000D03*
D16*
X80810000Y-62580000D03*
D17*
X80810000Y-52420000D03*
D16*
X65160000Y-36980000D03*
X62660000Y-36980000D03*
D20*
X79345100Y-26430000D03*
D16*
X77345100Y-26430000D03*
D27*
X38010000Y-39580000D03*
D28*
X38010000Y-37040000D03*
X38010000Y-34500000D03*
D23*
X84460000Y-32640000D03*
D24*
X87000000Y-32640000D03*
X89540000Y-32640000D03*
X92080000Y-32640000D03*
X92080000Y-25020000D03*
X89540000Y-25020000D03*
X87000000Y-25020000D03*
X84460000Y-25020000D03*
D25*
X78010000Y-45080000D03*
D26*
X75470000Y-45080000D03*
D16*
X53310000Y-34080000D03*
D17*
X43150000Y-34080000D03*
D16*
X84810000Y-38480000D03*
D17*
X84810000Y-48640000D03*
M02*
